<svg xmlns="http://www.w3.org/2000/svg" xmlns:xlink="http://www.w3.org/1999/xlink" contentStyleType="text/css" data-diagram-type="ACTIVITY" height="1564.5833px" preserveAspectRatio="none" style="width:852px;height:1564px;" version="1.1" viewBox="0 0 852 1564" width="852.0833px" zoomAndPan="magnify"><title>DevWell - Fatigue Detection Activity Diagram</title><defs/><g><g class="title" data-source-line="3"><rect fill="none" height="47.168" rx="4.1667" ry="4.1667" style="stroke:#BABDBF;stroke-width:1.0417;" width="556.8726" x="146.243" y="20.8333"/><text fill="#2FA4E7" font-family="'Verdana'" font-size="20.8333" font-weight="bold" lengthAdjust="spacing" textLength="533.9559" x="157.7014" y="51.6296">DevWell - Fatigue Detection Activity Diagram</text></g><ellipse cx="439.8575" cy="89.8763" fill="#033C73" rx="10.4167" ry="10.4167" style="stroke:#2683B9;stroke-width:1.0417;"/><rect fill="none" height="37.4674" rx="4.1667" ry="4.1667" style="stroke:#2FA4E7;stroke-width:1.0417;" width="200.8952" x="339.4099" y="121.1263"/><text fill="#2FA4E7" font-family="'Verdana'" font-size="12.5" lengthAdjust="spacing" textLength="177.9785" x="350.8682" y="144.1874">Developer opens Dashboard</text><rect fill="none" height="37.4674" rx="4.1667" ry="4.1667" style="stroke:#2FA4E7;stroke-width:1.0417;" width="197.88" x="340.9175" y="179.4271"/><text fill="#2FA4E7" font-family="'Verdana'" font-size="12.5" lengthAdjust="spacing" textLength="174.9634" x="352.3758" y="202.4882">Request camera permission</text><polygon fill="none" points="370.7118,237.7279,509.0032,237.7279,521.5032,250.2279,509.0032,262.7279,370.7118,262.7279,358.2118,250.2279,370.7118,237.7279" style="stroke:#BABDBF;stroke-width:1.0417;"/><text fill="#BABDBF" font-family="'Verdana'" font-size="12.5" lengthAdjust="spacing" textLength="127.8748" x="375.9201" y="254.5553">Permission granted?</text><text fill="#343A40" font-family="'Verdana'" font-size="12.5" lengthAdjust="spacing" textLength="21.6003" x="331.4031" y="242.0715">yes</text><text fill="#343A40" font-family="'Verdana'" font-size="12.5" lengthAdjust="spacing" textLength="15.5701" x="526.7115" y="242.0715">no</text><rect fill="none" height="37.4674" rx="4.1667" ry="4.1667" style="stroke:#2FA4E7;stroke-width:1.0417;" width="209.6781" x="211.7411" y="273.1445"/><text fill="#2FA4E7" font-family="'Verdana'" font-size="12.5" lengthAdjust="spacing" textLength="186.7615" x="223.1995" y="296.2056">Initialize MediaPipe FaceMesh</text><rect fill="none" height="37.4674" rx="4.1667" ry="4.1667" style="stroke:#2FA4E7;stroke-width:1.0417;" width="143.6625" x="244.7489" y="331.4453"/><text fill="#2FA4E7" font-family="'Verdana'" font-size="12.5" lengthAdjust="spacing" textLength="120.7458" x="256.2073" y="354.5064">Start video capture</text><rect fill="none" height="37.4674" rx="4.1667" ry="4.1667" style="stroke:#2FA4E7;stroke-width:1.0417;" width="241.7643" x="442.2526" y="273.1445"/><text fill="#2FA4E7" font-family="'Verdana'" font-size="12.5" lengthAdjust="spacing" textLength="218.8477" x="453.7109" y="296.2056">Show "Camera Required" message</text><ellipse cx="563.1348" cy="342.9036" fill="none" rx="11.4583" ry="11.4583" style="stroke:#2683B9;stroke-width:1.0417;"/><ellipse cx="563.1348" cy="342.9036" fill="none" rx="6.25" ry="6.25" style="stroke:#2683B9;stroke-width:1.0417;"/><rect fill="none" height="37.4674" rx="4.1667" ry="4.1667" style="stroke:#2FA4E7;stroke-width:1.0417;" width="152.0487" x="363.8331" y="435.5794"/><text fill="#2FA4E7" font-family="'Verdana'" font-size="12.5" lengthAdjust="spacing" textLength="129.1321" x="375.2914" y="458.6405">Capture video frame</text><rect fill="none" height="37.4674" rx="4.1667" ry="4.1667" style="stroke:#2FA4E7;stroke-width:1.0417;" width="139.0727" x="370.3211" y="493.8802"/><text fill="#2FA4E7" font-family="'Verdana'" font-size="12.5" lengthAdjust="spacing" textLength="116.156" x="381.7795" y="516.9413">Send to MediaPipe</text><rect fill="none" height="37.4674" rx="4.1667" ry="4.1667" style="stroke:#2FA4E7;stroke-width:1.0417;" width="199.6318" x="340.0416" y="552.181"/><text fill="#2FA4E7" font-family="'Verdana'" font-size="12.5" lengthAdjust="spacing" textLength="176.7151" x="351.4999" y="575.2421">Detect 478 facial landmarks</text><rect fill="#73A839" height="6.25" rx="2.6042" ry="2.6042" style="stroke:#73A839;stroke-width:1.0417;" width="748.1689" x="64.7313" y="610.4818"/><rect fill="none" height="37.4674" rx="4.1667" ry="4.1667" style="stroke:#2FA4E7;stroke-width:1.0417;" width="144.6757" x="79.3147" y="637.5651"/><text fill="#2FA4E7" font-family="'Verdana'" font-size="12.5" lengthAdjust="spacing" textLength="121.759" x="90.773" y="660.6262">Calculate blink rate</text><rect fill="none" height="37.4674" rx="4.1667" ry="4.1667" style="stroke:#2FA4E7;stroke-width:1.0417;" width="168.7174" x="253.157" y="637.5651"/><text fill="#2FA4E7" font-family="'Verdana'" font-size="12.5" lengthAdjust="spacing" textLength="145.8008" x="264.6154" y="660.6262">Detect yawn frequency</text><rect fill="none" height="37.4674" rx="4.1667" ry="4.1667" style="stroke:#2FA4E7;stroke-width:1.0417;" width="159.0739" x="451.0412" y="637.5651"/><text fill="#2FA4E7" font-family="'Verdana'" font-size="12.5" lengthAdjust="spacing" textLength="136.1572" x="462.4995" y="660.6262">Analyze head posture</text><rect fill="none" height="37.4674" rx="4.1667" ry="4.1667" style="stroke:#2FA4E7;stroke-width:1.0417;" width="161.1186" x="639.2817" y="637.5651"/><text fill="#2FA4E7" font-family="'Verdana'" font-size="12.5" lengthAdjust="spacing" textLength="138.2019" x="650.7401" y="660.6262">Measure eye aperture</text><rect fill="#73A839" height="6.25" rx="2.6042" ry="2.6042" style="stroke:#73A839;stroke-width:1.0417;" width="748.1689" x="64.7313" y="695.8659"/><rect fill="none" height="37.4674" rx="4.1667" ry="4.1667" style="stroke:#2FA4E7;stroke-width:1.0417;" width="240.4154" x="319.6498" y="722.9492"/><text fill="#2FA4E7" font-family="'Verdana'" font-size="12.5" lengthAdjust="spacing" textLength="217.4988" x="331.1081" y="746.0103">Aggregate into Fatigue Score (1-9)</text><polygon fill="none" points="369.8939,781.25,509.8211,781.25,522.3211,793.75,509.8211,806.25,369.8939,806.25,357.3939,793.75,369.8939,781.25" style="stroke:#BABDBF;stroke-width:1.0417;"/><text fill="#BABDBF" font-family="'Verdana'" font-size="12.5" lengthAdjust="spacing" textLength="129.5105" x="375.1022" y="798.0774">Fatigue Score &gt;= 7?</text><text fill="#343A40" font-family="'Verdana'" font-size="12.5" lengthAdjust="spacing" textLength="21.6003" x="330.5852" y="785.5937">yes</text><text fill="#343A40" font-family="'Verdana'" font-size="12.5" lengthAdjust="spacing" textLength="15.5701" x="527.5294" y="785.5937">no</text><rect fill="none" height="37.4674" rx="4.1667" ry="4.1667" style="stroke:#2FA4E7;stroke-width:1.0417;" width="237.5834" x="130.4677" y="816.6667"/><text fill="#2FA4E7" font-family="'Verdana'" font-size="12.5" lengthAdjust="spacing" textLength="214.6667" x="141.9261" y="839.7278">Send frame to Gemini 3 Vision API</text><rect fill="none" height="37.4674" rx="4.1667" ry="4.1667" style="stroke:#2FA4E7;stroke-width:1.0417;" width="143.2109" x="177.654" y="874.9674"/><text fill="#2FA4E7" font-family="'Verdana'" font-size="12.5" lengthAdjust="spacing" textLength="120.2942" x="189.1123" y="898.0286">Receive AI analysis</text><rect fill="none" height="37.4674" rx="4.1667" ry="4.1667" style="stroke:#2FA4E7;stroke-width:1.0417;" width="145.5546" x="176.4821" y="933.2682"/><text fill="#2FA4E7" font-family="'Verdana'" font-size="12.5" lengthAdjust="spacing" textLength="122.6379" x="187.9405" y="956.3293">Create HealthEvent</text><rect fill="none" height="37.4674" rx="4.1667" ry="4.1667" style="stroke:#2FA4E7;stroke-width:1.0417;" width="129.4779" x="184.5205" y="991.569"/><text fill="#2FA4E7" font-family="'Verdana'" font-size="12.5" lengthAdjust="spacing" textLength="106.5613" x="195.9788" y="1014.6301">Save to Firestore</text><polygon fill="none" points="196.4773,1049.8698,302.0416,1049.8698,314.5416,1062.3698,302.0416,1074.8698,196.4773,1074.8698,183.9773,1062.3698,196.4773,1049.8698" style="stroke:#BABDBF;stroke-width:1.0417;"/><text fill="#BABDBF" font-family="'Verdana'" font-size="12.5" lengthAdjust="spacing" textLength="95.1477" x="201.6856" y="1066.6972">Voice enabled?</text><text fill="#343A40" font-family="'Verdana'" font-size="12.5" lengthAdjust="spacing" textLength="21.6003" x="157.1686" y="1054.2135">yes</text><text fill="#343A40" font-family="'Verdana'" font-size="12.5" lengthAdjust="spacing" textLength="15.5701" x="319.75" y="1054.2135">no</text><rect fill="none" height="37.4674" rx="4.1667" ry="4.1667" style="stroke:#2FA4E7;stroke-width:1.0417;" width="143.8944" x="89.2949" y="1085.2865"/><text fill="#2FA4E7" font-family="'Verdana'" font-size="12.5" lengthAdjust="spacing" textLength="120.9778" x="100.7533" y="1108.3476">Speak alert via TTS</text><rect fill="none" height="37.4674" rx="4.1667" ry="4.1667" style="stroke:#2FA4E7;stroke-width:1.0417;" width="166.508" x="254.0227" y="1085.2865"/><text fill="#2FA4E7" font-family="'Verdana'" font-size="12.5" lengthAdjust="spacing" textLength="143.5913" x="265.4811" y="1108.3476">Show toast notification</text><polygon fill="none" points="249.2594,1133.1706,261.7594,1145.6706,249.2594,1158.1706,236.7594,1145.6706,249.2594,1133.1706" style="stroke:#BABDBF;stroke-width:1.0417;"/><polygon fill="none" points="203.1179,1179.0039,295.401,1179.0039,307.901,1191.5039,295.401,1204.0039,203.1179,1204.0039,190.6179,1191.5039,203.1179,1179.0039" style="stroke:#BABDBF;stroke-width:1.0417;"/><text fill="#BABDBF" font-family="'Verdana'" font-size="12.5" lengthAdjust="spacing" textLength="81.8665" x="208.3262" y="1195.8313">ADHD Mode?</text><text fill="#343A40" font-family="'Verdana'" font-size="12.5" lengthAdjust="spacing" textLength="21.6003" x="163.8092" y="1183.3476">yes</text><text fill="#343A40" font-family="'Verdana'" font-size="12.5" lengthAdjust="spacing" textLength="15.5701" x="313.1093" y="1183.3476">no</text><rect fill="none" height="37.4674" rx="4.1667" ry="4.1667" style="stroke:#2FA4E7;stroke-width:1.0417;" width="230.8268" x="11.4583" y="1214.4206"/><text fill="#2FA4E7" font-family="'Verdana'" font-size="12.5" lengthAdjust="spacing" textLength="207.9102" x="22.9167" y="1237.4817">Trigger gamified break challenge</text><rect fill="none" height="37.4674" rx="4.1667" ry="4.1667" style="stroke:#2FA4E7;stroke-width:1.0417;" width="217.0573" x="263.1185" y="1214.4206"/><text fill="#2FA4E7" font-family="'Verdana'" font-size="12.5" lengthAdjust="spacing" textLength="194.1406" x="274.5768" y="1237.4817">Show standard break reminder</text><polygon fill="none" points="249.2594,1262.3047,261.7594,1274.8047,249.2594,1287.3047,236.7594,1274.8047,249.2594,1262.3047" style="stroke:#BABDBF;stroke-width:1.0417;"/><rect fill="none" height="37.4674" rx="4.1667" ry="4.1667" style="stroke:#2FA4E7;stroke-width:1.0417;" width="238.0595" x="511.4258" y="816.6667"/><text fill="#2FA4E7" font-family="'Verdana'" font-size="12.5" lengthAdjust="spacing" textLength="215.1428" x="522.8841" y="839.7278">Update dashboard metrics silently</text><polygon fill="none" points="439.8575,1297.7214,452.3575,1310.2214,439.8575,1322.7214,427.3575,1310.2214,439.8575,1297.7214" style="stroke:#BABDBF;stroke-width:1.0417;"/><polygon fill="none" points="439.8575,389.7461,452.3575,402.2461,439.8575,414.7461,427.3575,402.2461,439.8575,389.7461" style="stroke:#BABDBF;stroke-width:1.0417;"/><polygon fill="none" points="386.5016,1343.5547,493.2134,1343.5547,505.7134,1356.0547,493.2134,1368.5547,386.5016,1368.5547,374.0016,1356.0547,386.5016,1343.5547" style="stroke:#BABDBF;stroke-width:1.0417;"/><text fill="#BABDBF" font-family="'Verdana'" font-size="12.5" lengthAdjust="spacing" textLength="96.2952" x="391.7099" y="1360.3821">Session active?</text><text fill="#343A40" font-family="'Verdana'" font-size="12.5" lengthAdjust="spacing" textLength="21.6003" x="510.9217" y="1347.8984">yes</text><rect fill="none" height="37.4674" rx="4.1667" ry="4.1667" style="stroke:#2FA4E7;stroke-width:1.0417;" width="166.8009" x="356.457" y="1414.3555"/><text fill="#2FA4E7" font-family="'Verdana'" font-size="12.5" lengthAdjust="spacing" textLength="143.8843" x="367.9153" y="1437.4166">Save session summary</text><rect fill="none" height="37.4674" rx="4.1667" ry="4.1667" style="stroke:#2FA4E7;stroke-width:1.0417;" width="266.2028" x="306.7561" y="1472.6563"/><text fill="#2FA4E7" font-family="'Verdana'" font-size="12.5" lengthAdjust="spacing" textLength="243.2861" x="318.2144" y="1495.7174">Generate end-of-day report via Gemini</text><ellipse cx="439.8575" cy="1542.4154" fill="none" rx="11.4583" ry="11.4583" style="stroke:#2683B9;stroke-width:1.0417;"/><ellipse cx="439.8575" cy="1542.4154" fill="none" rx="6.25" ry="6.25" style="stroke:#2683B9;stroke-width:1.0417;"/><line style="stroke:#2FA4E7;stroke-width:3.125;" x1="439.8575" x2="439.8575" y1="100.293" y2="121.1263"/><polygon fill="#2FA4E7" points="435.6908,110.7096,439.8575,121.1263,444.0241,110.7096,439.8575,114.8763" style="stroke:#2FA4E7;stroke-width:1.0417;"/><line style="stroke:#2FA4E7;stroke-width:3.125;" x1="439.8575" x2="439.8575" y1="158.5938" y2="179.4271"/><polygon fill="#2FA4E7" points="435.6908,169.0104,439.8575,179.4271,444.0241,169.0104,439.8575,173.1771" style="stroke:#2FA4E7;stroke-width:1.0417;"/><line style="stroke:#2FA4E7;stroke-width:3.125;" x1="316.5802" x2="316.5802" y1="310.612" y2="331.4453"/><polygon fill="#2FA4E7" points="312.4135,321.0286,316.5802,331.4453,320.7469,321.0286,316.5802,325.1953" style="stroke:#2FA4E7;stroke-width:1.0417;"/><line style="stroke:#2FA4E7;stroke-width:3.125;" x1="563.1348" x2="563.1348" y1="310.612" y2="331.4453"/><polygon fill="#2FA4E7" points="558.9681,321.0286,563.1348,331.4453,567.3014,321.0286,563.1348,325.1953" style="stroke:#2FA4E7;stroke-width:1.0417;"/><line style="stroke:#2FA4E7;stroke-width:3.125;" x1="358.2118" x2="316.5802" y1="250.2279" y2="250.2279"/><line style="stroke:#2FA4E7;stroke-width:3.125;" x1="316.5802" x2="316.5802" y1="250.2279" y2="273.1445"/><polygon fill="#2FA4E7" points="312.4135,262.7279,316.5802,273.1445,320.7469,262.7279,316.5802,266.8945" style="stroke:#2FA4E7;stroke-width:1.0417;"/><line style="stroke:#2FA4E7;stroke-width:3.125;" x1="521.5032" x2="563.1348" y1="250.2279" y2="250.2279"/><line style="stroke:#2FA4E7;stroke-width:3.125;" x1="563.1348" x2="563.1348" y1="250.2279" y2="273.1445"/><polygon fill="#2FA4E7" points="558.9681,262.7279,563.1348,273.1445,567.3014,262.7279,563.1348,266.8945" style="stroke:#2FA4E7;stroke-width:1.0417;"/><line style="stroke:#2FA4E7;stroke-width:3.125;" x1="316.5802" x2="316.5802" y1="368.9128" y2="374.1211"/><line style="stroke:#2FA4E7;stroke-width:3.125;" x1="316.5802" x2="439.8575" y1="374.1211" y2="374.1211"/><line style="stroke:#2FA4E7;stroke-width:3.125;" x1="439.8575" x2="439.8575" y1="374.1211" y2="389.7461"/><polygon fill="#2FA4E7" points="435.6908,379.3294,439.8575,389.7461,444.0241,379.3294,439.8575,383.4961" style="stroke:#2FA4E7;stroke-width:1.0417;"/><line style="stroke:#2FA4E7;stroke-width:3.125;" x1="439.8575" x2="439.8575" y1="216.8945" y2="237.7279"/><polygon fill="#2FA4E7" points="435.6908,227.3112,439.8575,237.7279,444.0241,227.3112,439.8575,231.4779" style="stroke:#2FA4E7;stroke-width:1.0417;"/><line style="stroke:#2FA4E7;stroke-width:3.125;" x1="439.8575" x2="439.8575" y1="473.0469" y2="493.8802"/><polygon fill="#2FA4E7" points="435.6908,483.4635,439.8575,493.8802,444.0241,483.4635,439.8575,487.6302" style="stroke:#2FA4E7;stroke-width:1.0417;"/><line style="stroke:#2FA4E7;stroke-width:3.125;" x1="439.8575" x2="439.8575" y1="531.3477" y2="552.181"/><polygon fill="#2FA4E7" points="435.6908,541.7643,439.8575,552.181,444.0241,541.7643,439.8575,545.931" style="stroke:#2FA4E7;stroke-width:1.0417;"/><line style="stroke:#2FA4E7;stroke-width:3.125;" x1="151.6525" x2="151.6525" y1="616.7318" y2="637.5651"/><polygon fill="#2FA4E7" points="147.4859,627.1484,151.6525,637.5651,155.8192,627.1484,151.6525,631.3151" style="stroke:#2FA4E7;stroke-width:1.0417;"/><line style="stroke:#2FA4E7;stroke-width:3.125;" x1="337.5158" x2="337.5158" y1="616.7318" y2="637.5651"/><polygon fill="#2FA4E7" points="333.3491,627.1484,337.5158,637.5651,341.6824,627.1484,337.5158,631.3151" style="stroke:#2FA4E7;stroke-width:1.0417;"/><line style="stroke:#2FA4E7;stroke-width:3.125;" x1="530.5781" x2="530.5781" y1="616.7318" y2="637.5651"/><polygon fill="#2FA4E7" points="526.4114,627.1484,530.5781,637.5651,534.7448,627.1484,530.5781,631.3151" style="stroke:#2FA4E7;stroke-width:1.0417;"/><line style="stroke:#2FA4E7;stroke-width:3.125;" x1="719.841" x2="719.841" y1="616.7318" y2="637.5651"/><polygon fill="#2FA4E7" points="715.6743,627.1484,719.841,637.5651,724.0077,627.1484,719.841,631.3151" style="stroke:#2FA4E7;stroke-width:1.0417;"/><line style="stroke:#2FA4E7;stroke-width:3.125;" x1="151.6525" x2="151.6525" y1="675.0326" y2="695.8659"/><polygon fill="#2FA4E7" points="147.4859,685.4492,151.6525,695.8659,155.8192,685.4492,151.6525,689.6159" style="stroke:#2FA4E7;stroke-width:1.0417;"/><line style="stroke:#2FA4E7;stroke-width:3.125;" x1="337.5158" x2="337.5158" y1="675.0326" y2="695.8659"/><polygon fill="#2FA4E7" points="333.3491,685.4492,337.5158,695.8659,341.6824,685.4492,337.5158,689.6159" style="stroke:#2FA4E7;stroke-width:1.0417;"/><line style="stroke:#2FA4E7;stroke-width:3.125;" x1="530.5781" x2="530.5781" y1="675.0326" y2="695.8659"/><polygon fill="#2FA4E7" points="526.4114,685.4492,530.5781,695.8659,534.7448,685.4492,530.5781,689.6159" style="stroke:#2FA4E7;stroke-width:1.0417;"/><line style="stroke:#2FA4E7;stroke-width:3.125;" x1="719.841" x2="719.841" y1="675.0326" y2="695.8659"/><polygon fill="#2FA4E7" points="715.6743,685.4492,719.841,695.8659,724.0077,685.4492,719.841,689.6159" style="stroke:#2FA4E7;stroke-width:1.0417;"/><line style="stroke:#2FA4E7;stroke-width:3.125;" x1="439.8575" x2="439.8575" y1="589.6484" y2="610.4818"/><polygon fill="#2FA4E7" points="435.6908,600.0651,439.8575,610.4818,444.0241,600.0651,439.8575,604.2318" style="stroke:#2FA4E7;stroke-width:1.0417;"/><line style="stroke:#2FA4E7;stroke-width:3.125;" x1="439.8575" x2="439.8575" y1="702.1159" y2="722.9492"/><polygon fill="#2FA4E7" points="435.6908,712.5326,439.8575,722.9492,444.0241,712.5326,439.8575,716.6992" style="stroke:#2FA4E7;stroke-width:1.0417;"/><line style="stroke:#2FA4E7;stroke-width:3.125;" x1="249.2594" x2="249.2594" y1="854.1341" y2="874.9674"/><polygon fill="#2FA4E7" points="245.0928,864.5508,249.2594,874.9674,253.4261,864.5508,249.2594,868.7174" style="stroke:#2FA4E7;stroke-width:1.0417;"/><line style="stroke:#2FA4E7;stroke-width:3.125;" x1="249.2594" x2="249.2594" y1="912.4349" y2="933.2682"/><polygon fill="#2FA4E7" points="245.0928,922.8516,249.2594,933.2682,253.4261,922.8516,249.2594,927.0182" style="stroke:#2FA4E7;stroke-width:1.0417;"/><line style="stroke:#2FA4E7;stroke-width:3.125;" x1="249.2594" x2="249.2594" y1="970.7357" y2="991.569"/><polygon fill="#2FA4E7" points="245.0928,981.1523,249.2594,991.569,253.4261,981.1523,249.2594,985.319" style="stroke:#2FA4E7;stroke-width:1.0417;"/><line style="stroke:#2FA4E7;stroke-width:3.125;" x1="183.9773" x2="161.2422" y1="1062.3698" y2="1062.3698"/><line style="stroke:#2FA4E7;stroke-width:3.125;" x1="161.2422" x2="161.2422" y1="1062.3698" y2="1085.2865"/><polygon fill="#2FA4E7" points="157.0755,1074.8698,161.2422,1085.2865,165.4088,1074.8698,161.2422,1079.0365" style="stroke:#2FA4E7;stroke-width:1.0417;"/><line style="stroke:#2FA4E7;stroke-width:3.125;" x1="314.5416" x2="337.2767" y1="1062.3698" y2="1062.3698"/><line style="stroke:#2FA4E7;stroke-width:3.125;" x1="337.2767" x2="337.2767" y1="1062.3698" y2="1085.2865"/><polygon fill="#2FA4E7" points="333.11,1074.8698,337.2767,1085.2865,341.4434,1074.8698,337.2767,1079.0365" style="stroke:#2FA4E7;stroke-width:1.0417;"/><line style="stroke:#2FA4E7;stroke-width:3.125;" x1="161.2422" x2="161.2422" y1="1122.7539" y2="1145.6706"/><line style="stroke:#2FA4E7;stroke-width:3.125;" x1="161.2422" x2="236.7594" y1="1145.6706" y2="1145.6706"/><polygon fill="#2FA4E7" points="226.3428,1141.5039,236.7594,1145.6706,226.3428,1149.8372,230.5094,1145.6706" style="stroke:#2FA4E7;stroke-width:1.0417;"/><line style="stroke:#2FA4E7;stroke-width:3.125;" x1="337.2767" x2="337.2767" y1="1122.7539" y2="1145.6706"/><line style="stroke:#2FA4E7;stroke-width:3.125;" x1="337.2767" x2="261.7594" y1="1145.6706" y2="1145.6706"/><polygon fill="#2FA4E7" points="272.1761,1141.5039,261.7594,1145.6706,272.1761,1149.8372,268.0094,1145.6706" style="stroke:#2FA4E7;stroke-width:1.0417;"/><line style="stroke:#2FA4E7;stroke-width:3.125;" x1="249.2594" x2="249.2594" y1="1029.0365" y2="1049.8698"/><polygon fill="#2FA4E7" points="245.0928,1039.4531,249.2594,1049.8698,253.4261,1039.4531,249.2594,1043.6198" style="stroke:#2FA4E7;stroke-width:1.0417;"/><line style="stroke:#2FA4E7;stroke-width:3.125;" x1="190.6179" x2="126.8717" y1="1191.5039" y2="1191.5039"/><line style="stroke:#2FA4E7;stroke-width:3.125;" x1="126.8717" x2="126.8717" y1="1191.5039" y2="1214.4206"/><polygon fill="#2FA4E7" points="122.7051,1204.0039,126.8717,1214.4206,131.0384,1204.0039,126.8717,1208.1706" style="stroke:#2FA4E7;stroke-width:1.0417;"/><line style="stroke:#2FA4E7;stroke-width:3.125;" x1="307.901" x2="371.6471" y1="1191.5039" y2="1191.5039"/><line style="stroke:#2FA4E7;stroke-width:3.125;" x1="371.6471" x2="371.6471" y1="1191.5039" y2="1214.4206"/><polygon fill="#2FA4E7" points="367.4805,1204.0039,371.6471,1214.4206,375.8138,1204.0039,371.6471,1208.1706" style="stroke:#2FA4E7;stroke-width:1.0417;"/><line style="stroke:#2FA4E7;stroke-width:3.125;" x1="126.8717" x2="126.8717" y1="1251.888" y2="1274.8047"/><line style="stroke:#2FA4E7;stroke-width:3.125;" x1="126.8717" x2="236.7594" y1="1274.8047" y2="1274.8047"/><polygon fill="#2FA4E7" points="226.3428,1270.638,236.7594,1274.8047,226.3428,1278.9714,230.5094,1274.8047" style="stroke:#2FA4E7;stroke-width:1.0417;"/><line style="stroke:#2FA4E7;stroke-width:3.125;" x1="371.6471" x2="371.6471" y1="1251.888" y2="1274.8047"/><line style="stroke:#2FA4E7;stroke-width:3.125;" x1="371.6471" x2="261.7594" y1="1274.8047" y2="1274.8047"/><polygon fill="#2FA4E7" points="272.1761,1270.638,261.7594,1274.8047,272.1761,1278.9714,268.0094,1274.8047" style="stroke:#2FA4E7;stroke-width:1.0417;"/><line style="stroke:#2FA4E7;stroke-width:3.125;" x1="249.2594" x2="249.2594" y1="1158.1706" y2="1179.0039"/><polygon fill="#2FA4E7" points="245.0928,1168.5872,249.2594,1179.0039,253.4261,1168.5872,249.2594,1172.7539" style="stroke:#2FA4E7;stroke-width:1.0417;"/><line style="stroke:#2FA4E7;stroke-width:3.125;" x1="357.3939" x2="249.2594" y1="793.75" y2="793.75"/><line style="stroke:#2FA4E7;stroke-width:3.125;" x1="249.2594" x2="249.2594" y1="793.75" y2="816.6667"/><polygon fill="#2FA4E7" points="245.0928,806.25,249.2594,816.6667,253.4261,806.25,249.2594,810.4167" style="stroke:#2FA4E7;stroke-width:1.0417;"/><line style="stroke:#2FA4E7;stroke-width:3.125;" x1="522.3211" x2="630.4555" y1="793.75" y2="793.75"/><line style="stroke:#2FA4E7;stroke-width:3.125;" x1="630.4555" x2="630.4555" y1="793.75" y2="816.6667"/><polygon fill="#2FA4E7" points="626.2889,806.25,630.4555,816.6667,634.6222,806.25,630.4555,810.4167" style="stroke:#2FA4E7;stroke-width:1.0417;"/><line style="stroke:#2FA4E7;stroke-width:3.125;" x1="249.2594" x2="249.2594" y1="1287.3047" y2="1310.2214"/><line style="stroke:#2FA4E7;stroke-width:3.125;" x1="249.2594" x2="427.3575" y1="1310.2214" y2="1310.2214"/><polygon fill="#2FA4E7" points="416.9408,1306.0547,427.3575,1310.2214,416.9408,1314.388,421.1075,1310.2214" style="stroke:#2FA4E7;stroke-width:1.0417;"/><line style="stroke:#2FA4E7;stroke-width:3.125;" x1="630.4555" x2="630.4555" y1="854.1341" y2="1310.2214"/><line style="stroke:#2FA4E7;stroke-width:3.125;" x1="630.4555" x2="452.3575" y1="1310.2214" y2="1310.2214"/><polygon fill="#2FA4E7" points="462.7741,1306.0547,452.3575,1310.2214,462.7741,1314.388,458.6075,1310.2214" style="stroke:#2FA4E7;stroke-width:1.0417;"/><line style="stroke:#2FA4E7;stroke-width:3.125;" x1="439.8575" x2="439.8575" y1="760.4167" y2="781.25"/><polygon fill="#2FA4E7" points="435.6908,770.8333,439.8575,781.25,444.0241,770.8333,439.8575,775" style="stroke:#2FA4E7;stroke-width:1.0417;"/><line style="stroke:#2FA4E7;stroke-width:3.125;" x1="439.8575" x2="439.8575" y1="414.7461" y2="435.5794"/><polygon fill="#2FA4E7" points="435.6908,425.1628,439.8575,435.5794,444.0241,425.1628,439.8575,429.3294" style="stroke:#2FA4E7;stroke-width:1.0417;"/><line style="stroke:#2FA4E7;stroke-width:3.125;" x1="505.7134" x2="825.4003" y1="1356.0547" y2="1356.0547"/><polygon fill="#2FA4E7" points="821.2336,883.3171,825.4003,872.9004,829.567,883.3171,825.4003,879.1504" style="stroke:#2FA4E7;stroke-width:3.125;"/><line style="stroke:#2FA4E7;stroke-width:3.125;" x1="825.4003" x2="825.4003" y1="402.2461" y2="1356.0547"/><line style="stroke:#2FA4E7;stroke-width:3.125;" x1="825.4003" x2="452.3575" y1="402.2461" y2="402.2461"/><polygon fill="#2FA4E7" points="462.7741,398.0794,452.3575,402.2461,462.7741,406.4128,458.6075,402.2461" style="stroke:#2FA4E7;stroke-width:1.0417;"/><line style="stroke:#2FA4E7;stroke-width:3.125;" x1="439.8575" x2="439.8575" y1="1322.7214" y2="1343.5547"/><polygon fill="#2FA4E7" points="435.6908,1333.138,439.8575,1343.5547,444.0241,1333.138,439.8575,1337.3047" style="stroke:#2FA4E7;stroke-width:1.0417;"/><line style="stroke:#2FA4E7;stroke-width:3.125;" x1="439.8575" x2="439.8575" y1="1368.5547" y2="1414.3555"/><polygon fill="#2FA4E7" points="435.6908,1403.9388,439.8575,1414.3555,444.0241,1403.9388,439.8575,1408.1055" style="stroke:#2FA4E7;stroke-width:1.0417;"/><text fill="#343A40" font-family="'Verdana'" font-size="12.5" lengthAdjust="spacing" textLength="15.5701" x="449.2325" y="1391.9596">no</text><line style="stroke:#2FA4E7;stroke-width:3.125;" x1="439.8575" x2="439.8575" y1="1451.8229" y2="1472.6563"/><polygon fill="#2FA4E7" points="435.6908,1462.2396,439.8575,1472.6563,444.0241,1462.2396,439.8575,1466.4063" style="stroke:#2FA4E7;stroke-width:1.0417;"/><line style="stroke:#2FA4E7;stroke-width:3.125;" x1="439.8575" x2="439.8575" y1="1510.1237" y2="1530.957"/><polygon fill="#2FA4E7" points="435.6908,1520.5404,439.8575,1530.957,444.0241,1520.5404,439.8575,1524.707" style="stroke:#2FA4E7;stroke-width:1.0417;"/><!--SRC=[VLHDRzim3BtxLt0zfOSSXWtebc0TWcRzE0GechOxCnPj4vKbJr9IUBz-fALiwreC2693UdnyV2JzBdNK4zGKzfRGpVq-MNPKLOcJ9LZJuJjP2tEunCJjNayIrOczWvKy3fn6M3Es0VkgYWb3ggg5H97r0mMGFnTXZR7RUGncAPTtz6DFCK6DFGK4GVKSen3A9JSmk_rz0CBg4fclfo0g7Sn6YgSLmEB6SMAq_9DWGuRnbWSIWJLjA7PBHMnL2HpOa9T4Gze7MbPa8y7C-ObZs_bdEBd88bGJ1p8dq5ECs9AInEI7YfpXfge23OH9uouoM-5kf6xA6GK9oVyHD9rcj-3ZsITei1RDOD6P7iDJr7lvDJuyoMDYjlNUOYBOIGkU8CZhiY00MsINSOLpn6Sd-TLDLuzl0LSExIWUTOG61X-p2wzn6yAe9T58WDAF8quhAlAqbbNR1cfL7pifz3WGszfBxEpz_FDfAKcx-FBs_0kS_Tl5esUJXUhS5VNi63x08q_TNztUB3FkZchY0y7g1b1hYXppJJ4kaAgw9hIf-tOWbqhS5WyJywNqLhgPgofHAlBHSorbEzpPrrEM6QJjufMbQPeGxk-tcUFlMSf8dQVaKIRR-SGDrvYcePxGqnIzoBrQNwzXumszcVS-SDlA_hJO2nKPs0KLKdTeBRcM_YT2jj0PMROI4zHMG-4D9I_Z5m-3KH_DSLjb6LBWEa9aIPhiM8PY8YWh0S-TNC9iItbbKJyAMXF7Kj7yN0pHnP-w4GikxdlP0c5SN94Z7NLbdljcRd0KpOClZkUfMEh7nG-_0000]--></g></svg>