<svg xmlns="http://www.w3.org/2000/svg" xmlns:xlink="http://www.w3.org/1999/xlink" contentStyleType="text/css" data-diagram-type="CLASS" height="1039.5833px" preserveAspectRatio="none" style="width:1761px;height:1039px;" version="1.1" viewBox="0 0 1761 1039" width="1761.4583px" zoomAndPan="magnify"><title>DevWell - Class Diagram</title><defs><linearGradient id="g1v63ybwekb1nj0" x1="50%" x2="50%" y1="0%" y2="100%"><stop offset="0%" stop-color="#2FA4E7"/><stop offset="100%" stop-color="#2683B9"/></linearGradient></defs><g><g class="title" data-source-line="4"><rect fill="none" height="47.168" rx="4.1667" ry="4.1667" style="stroke:#BABDBF;stroke-width:1.0417;" width="310.4533" x="720.815" y="20.8333"/><text fill="#2FA4E7" font-family="'Verdana'" font-size="20.8333" font-weight="bold" lengthAdjust="spacing" textLength="287.5366" x="732.2734" y="51.6296">DevWell - Class Diagram</text></g><!--cluster Core Types--><g class="cluster" data-entity="Core Types" data-source-line="6" data-uid="ent0002" id="cluster_Core Types"><path d="M20.8333,85.7096 L107.4626,85.7096 A6.25,6.25 0 0 1 111.6292,89.8763 L118.9209,116.9271 L539.5833,116.9271 A4.1667,4.1667 0 0 1 543.75,121.0938 L543.75,627.3763 A4.1667,4.1667 0 0 1 539.5833,631.543 L20.8333,631.543 A4.1667,4.1667 0 0 1 16.6667,627.3763 L16.6667,89.8763 A4.1667,4.1667 0 0 1 20.8333,85.7096" fill="none" style="stroke:#2FA4E7;stroke-width:2.0833;"/><line style="stroke:#2FA4E7;stroke-width:2.0833;" x1="16.6667" x2="118.9209" y1="116.9271" y2="116.9271"/><text fill="#2FA4E7" font-family="'Verdana'" font-size="12.5" font-weight="bold" lengthAdjust="spacing" textLength="78.2959" x="26.0417" y="104.6041">Core Types</text></g><!--cluster Services--><g class="cluster" data-entity="Services" data-source-line="49" data-uid="ent0008" id="cluster_Services"><path d="M1012.5,702.3763 L1080.2389,702.3763 A6.25,6.25 0 0 1 1084.4055,706.543 L1091.6972,733.5938 L1744.7917,733.5938 A4.1667,4.1667 0 0 1 1748.9583,737.7604 L1748.9583,1023.2096 A4.1667,4.1667 0 0 1 1744.7917,1027.3763 L1012.5,1027.3763 A4.1667,4.1667 0 0 1 1008.3333,1023.2096 L1008.3333,706.543 A4.1667,4.1667 0 0 1 1012.5,702.3763" fill="none" style="stroke:#2FA4E7;stroke-width:2.0833;"/><line style="stroke:#2FA4E7;stroke-width:2.0833;" x1="1008.3333" x2="1091.6972" y1="733.5938" y2="733.5938"/><text fill="#2FA4E7" font-family="'Verdana'" font-size="12.5" font-weight="bold" lengthAdjust="spacing" textLength="59.4055" x="1017.7083" y="721.2708">Services</text></g><!--cluster React Components--><g class="cluster" data-entity="React Components" data-source-line="72" data-uid="ent0011" id="cluster_React Components"><path d="M572.9167,121.1263 L713.5376,121.1263 A6.25,6.25 0 0 1 717.7043,125.293 L724.9959,152.3438 L1387.5,152.3438 A4.1667,4.1667 0 0 1 1391.6667,156.5104 L1391.6667,638.8346 A4.1667,4.1667 0 0 1 1387.5,643.0013 L572.9167,643.0013 A4.1667,4.1667 0 0 1 568.75,638.8346 L568.75,125.293 A4.1667,4.1667 0 0 1 572.9167,121.1263" fill="none" style="stroke:#2FA4E7;stroke-width:2.0833;"/><line style="stroke:#2FA4E7;stroke-width:2.0833;" x1="568.75" x2="724.9959" y1="152.3438" y2="152.3438"/><text fill="#2FA4E7" font-family="'Verdana'" font-size="12.5" font-weight="bold" lengthAdjust="spacing" textLength="132.2876" x="578.125" y="140.0208">React Components</text></g><!--cluster Context--><g class="cluster" data-entity="Context" data-source-line="102" data-uid="ent0016" id="cluster_Context"><path d="M1470.8333,121.1263 L1534.318,121.1263 A6.25,6.25 0 0 1 1538.4847,125.293 L1545.7764,152.3438 L1679.1667,152.3438 A4.1667,4.1667 0 0 1 1683.3333,156.5104 L1683.3333,323.2096 A4.1667,4.1667 0 0 1 1679.1667,327.3763 L1470.8333,327.3763 A4.1667,4.1667 0 0 1 1466.6667,323.2096 L1466.6667,125.293 A4.1667,4.1667 0 0 1 1470.8333,121.1263" fill="none" style="stroke:#2FA4E7;stroke-width:2.0833;"/><line style="stroke:#2FA4E7;stroke-width:2.0833;" x1="1466.6667" x2="1545.7764" y1="152.3438" y2="152.3438"/><text fill="#2FA4E7" font-family="'Verdana'" font-size="12.5" font-weight="bold" lengthAdjust="spacing" textLength="55.1514" x="1476.0417" y="140.0208">Context</text></g><!--class EventType--><g class="entity" data-entity="EventType" data-source-line="7" data-uid="ent0003" id="entity_EventType"><rect fill="none" height="217.1224" rx="4.1667" ry="4.1667" style="stroke:#2FA4E7;stroke-width:1.0417;" width="157.9158" x="368.75" y="129.4596"/><rect fill="url(#g1v63ybwekb1nj0)" height="34.1715" rx="4.1667" ry="4.1667" style="stroke:url(#g1v63ybwekb1nj0);stroke-width:1.0417;" width="157.9158" x="368.75" y="129.4596"/><rect fill="url(#g1v63ybwekb1nj0)" height="4.1667" style="stroke:url(#g1v63ybwekb1nj0);stroke-width:1.0417;" width="157.9158" x="368.75" y="159.4645"/><rect fill="none" height="217.1224" rx="4.1667" ry="4.1667" style="stroke:#2FA4E7;stroke-width:1.0417;" width="157.9158" x="368.75" y="129.4596"/><ellipse cx="408.2277" cy="146.5454" fill="#E47833" rx="10.4167" ry="10.4167" style="stroke:#FFFFFF;stroke-width:1.0417;"/><path d="M410.7667,151.2329 L405.0864,151.2329 L405.0864,142.1183 L410.7667,142.1183 L410.7667,143.7134 L406.893,143.7134 L406.893,145.6665 L410.3924,145.6665 L410.3924,147.2616 L406.893,147.2616 L406.893,149.6379 L410.7667,149.6379 L410.7667,151.2329 Z " fill="#2FA4E7"/><text fill="#343A40" font-family="'Verdana'" font-size="11.4583" lengthAdjust="spacing" textLength="60.9283" x="432.5097" y="150.5122">EventType</text><line style="stroke:#2FA4E7;stroke-width:1.0417;" x1="369.7917" x2="525.6241" y1="163.6312" y2="163.6312"/><text fill="#343A40" font-family="'Verdana'" font-size="11.4583" lengthAdjust="spacing" textLength="75.8611" x="380.2083" y="183.6421">BLINK_ALERT</text><text fill="#343A40" font-family="'Verdana'" font-size="11.4583" lengthAdjust="spacing" textLength="101.8326" x="380.2083" y="207.397">YAWN_DETECTED</text><text fill="#343A40" font-family="'Verdana'" font-size="11.4583" lengthAdjust="spacing" textLength="116.0492" x="380.2083" y="231.1518">POSTURE_WARNING</text><text fill="#343A40" font-family="'Verdana'" font-size="11.4583" lengthAdjust="spacing" textLength="74.675" x="380.2083" y="254.9067">FOCUS_LOST</text><text fill="#343A40" font-family="'Verdana'" font-size="11.4583" lengthAdjust="spacing" textLength="134.9991" x="380.2083" y="278.6616">HYDRATION_REMINDER</text><text fill="#343A40" font-family="'Verdana'" font-size="11.4583" lengthAdjust="spacing" textLength="97.2336" x="380.2083" y="302.4165">STRETCH_BREAK</text><text fill="#343A40" font-family="'Verdana'" font-size="11.4583" lengthAdjust="spacing" textLength="69.2312" x="380.2083" y="326.1714">EYE_STRAIN</text><line style="stroke:#2FA4E7;stroke-width:1.0417;" x1="369.7917" x2="525.6241" y1="338.2487" y2="338.2487"/></g><!--class Severity--><g class="entity" data-entity="Severity" data-source-line="17" data-uid="ent0004" id="entity_Severity"><rect fill="none" height="122.1029" rx="4.1667" ry="4.1667" style="stroke:#2FA4E7;stroke-width:1.0417;" width="88.9882" x="243.2292" y="176.8555"/><rect fill="url(#g1v63ybwekb1nj0)" height="34.1715" rx="4.1667" ry="4.1667" style="stroke:url(#g1v63ybwekb1nj0);stroke-width:1.0417;" width="88.9882" x="243.2292" y="176.8555"/><rect fill="url(#g1v63ybwekb1nj0)" height="4.1667" style="stroke:url(#g1v63ybwekb1nj0);stroke-width:1.0417;" width="88.9882" x="243.2292" y="206.8604"/><rect fill="none" height="122.1029" rx="4.1667" ry="4.1667" style="stroke:#2FA4E7;stroke-width:1.0417;" width="88.9882" x="243.2292" y="176.8555"/><ellipse cx="257.8125" cy="193.9412" fill="#E47833" rx="10.4167" ry="10.4167" style="stroke:#FFFFFF;stroke-width:1.0417;"/><path d="M260.3516,198.6287 L254.6712,198.6287 L254.6712,189.5142 L260.3516,189.5142 L260.3516,191.1092 L256.4779,191.1092 L256.4779,193.0623 L259.9772,193.0623 L259.9772,194.6574 L256.4779,194.6574 L256.4779,197.0337 L260.3516,197.0337 L260.3516,198.6287 Z " fill="#2FA4E7"/><text fill="#343A40" font-family="'Verdana'" font-size="11.4583" lengthAdjust="spacing" textLength="47.3216" x="276.5625" y="197.908">Severity</text><line style="stroke:#2FA4E7;stroke-width:1.0417;" x1="244.2708" x2="331.1757" y1="211.027" y2="211.027"/><text fill="#343A40" font-family="'Verdana'" font-size="11.4583" lengthAdjust="spacing" textLength="26.7324" x="254.6875" y="231.0379">LOW</text><text fill="#343A40" font-family="'Verdana'" font-size="11.4583" lengthAdjust="spacing" textLength="47.6013" x="254.6875" y="254.7928">MEDIUM</text><text fill="#343A40" font-family="'Verdana'" font-size="11.4583" lengthAdjust="spacing" textLength="29.4907" x="254.6875" y="278.5477">HIGH</text><line style="stroke:#2FA4E7;stroke-width:1.0417;" x1="244.2708" x2="331.1757" y1="290.625" y2="290.625"/></g><!--class HealthEvent--><g class="entity" data-entity="HealthEvent" data-source-line="23" data-uid="ent0005" id="entity_HealthEvent"><rect fill="none" height="193.3675" rx="4.1667" ry="4.1667" style="stroke:#2FA4E7;stroke-width:1.0417;" width="133.3598" x="336.4583" y="421.1263"/><rect fill="url(#g1v63ybwekb1nj0)" height="34.1715" rx="4.1667" ry="4.1667" style="stroke:url(#g1v63ybwekb1nj0);stroke-width:1.0417;" width="133.3598" x="336.4583" y="421.1263"/><rect fill="url(#g1v63ybwekb1nj0)" height="4.1667" style="stroke:url(#g1v63ybwekb1nj0);stroke-width:1.0417;" width="133.3598" x="336.4583" y="451.1312"/><rect fill="none" height="193.3675" rx="4.1667" ry="4.1667" style="stroke:#2FA4E7;stroke-width:1.0417;" width="133.3598" x="336.4583" y="421.1263"/><ellipse cx="360.6007" cy="438.2121" fill="#EDF0F2" rx="10.4167" ry="10.4167" style="stroke:#BABDBF;stroke-width:1.0417;"/><path d="M362.505,442.6392 Q362.0818,442.8507 361.6098,442.9647 Q361.1378,443.0786 360.6332,443.0786 Q358.7778,443.0786 357.8012,441.8742 Q356.8409,440.6535 356.8409,438.3586 Q356.8409,436.0474 357.8012,434.8429 Q358.7778,433.6222 360.6332,433.6222 Q361.1378,433.6222 361.6098,433.7362 Q362.0981,433.8338 362.505,434.0617 L362.505,436.0636 Q362.0493,435.6405 361.6098,435.4451 Q361.1703,435.2336 360.7146,435.2336 Q359.7218,435.2336 359.2172,436.0311 Q358.7127,436.8123 358.7127,438.3586 Q358.7127,439.8885 359.2172,440.6698 Q359.7218,441.451 360.7146,441.451 Q361.1703,441.451 361.6098,441.2557 Q362.0493,441.0604 362.505,440.6372 L362.505,442.6392 Z " fill="#2FA4E7"/><text fill="#343A40" font-family="'Verdana'" font-size="11.4583" lengthAdjust="spacing" textLength="70.4508" x="381.4749" y="442.1789">HealthEvent</text><line style="stroke:#2FA4E7;stroke-width:1.0417;" x1="337.5" x2="468.7764" y1="455.2979" y2="455.2979"/><text fill="#343A40" font-family="'Verdana'" font-size="11.4583" lengthAdjust="spacing" textLength="60.4528" x="347.9167" y="475.3087">+id: string</text><text fill="#343A40" font-family="'Verdana'" font-size="11.4583" lengthAdjust="spacing" textLength="103.6285" x="347.9167" y="499.0636">+type: EventType</text><text fill="#343A40" font-family="'Verdana'" font-size="11.4583" lengthAdjust="spacing" textLength="110.4431" x="347.9167" y="522.8185">+severity: Severity</text><text fill="#343A40" font-family="'Verdana'" font-size="11.4583" lengthAdjust="spacing" textLength="106.2973" x="347.9167" y="546.5734">+timestamp: Date</text><text fill="#343A40" font-family="'Verdana'" font-size="11.4583" lengthAdjust="spacing" textLength="107.9478" x="347.9167" y="570.3283">+metadata: object</text><text fill="#343A40" font-family="'Verdana'" font-size="11.4583" lengthAdjust="spacing" textLength="105.1056" x="347.9167" y="594.0832">+aiInsight?: string</text><line style="stroke:#2FA4E7;stroke-width:1.0417;" x1="337.5" x2="468.7764" y1="606.1605" y2="606.1605"/></g><!--class PrivacySettings--><g class="entity" data-entity="PrivacySettings" data-source-line="32" data-uid="ent0006" id="entity_PrivacySettings"><rect fill="none" height="169.6126" rx="4.1667" ry="4.1667" style="stroke:#2FA4E7;stroke-width:1.0417;" width="265.858" x="33.8542" y="433.1055"/><rect fill="url(#g1v63ybwekb1nj0)" height="34.1715" rx="4.1667" ry="4.1667" style="stroke:url(#g1v63ybwekb1nj0);stroke-width:1.0417;" width="265.858" x="33.8542" y="433.1055"/><rect fill="url(#g1v63ybwekb1nj0)" height="4.1667" style="stroke:url(#g1v63ybwekb1nj0);stroke-width:1.0417;" width="265.858" x="33.8542" y="463.1104"/><rect fill="none" height="169.6126" rx="4.1667" ry="4.1667" style="stroke:#2FA4E7;stroke-width:1.0417;" width="265.858" x="33.8542" y="433.1055"/><ellipse cx="113.0658" cy="450.1912" fill="#EDF0F2" rx="10.4167" ry="10.4167" style="stroke:#BABDBF;stroke-width:1.0417;"/><path d="M114.9701,454.6183 Q114.547,454.8299 114.075,454.9438 Q113.603,455.0578 113.0984,455.0578 Q111.2429,455.0578 110.2664,453.8534 Q109.3061,452.6326 109.3061,450.3377 Q109.3061,448.0265 110.2664,446.8221 Q111.2429,445.6014 113.0984,445.6014 Q113.603,445.6014 114.075,445.7153 Q114.5632,445.813 114.9701,446.0409 L114.9701,448.0428 Q114.5144,447.6196 114.075,447.4243 Q113.6355,447.2127 113.1798,447.2127 Q112.1869,447.2127 111.6824,448.0103 Q111.1778,448.7915 111.1778,450.3377 Q111.1778,451.8677 111.6824,452.6489 Q112.1869,453.4302 113.1798,453.4302 Q113.6355,453.4302 114.075,453.2349 Q114.5144,453.0396 114.9701,452.6164 L114.9701,454.6183 Z " fill="#2FA4E7"/><text fill="#343A40" font-family="'Verdana'" font-size="11.4583" lengthAdjust="spacing" textLength="88.6846" x="138.0658" y="454.158">PrivacySettings</text><line style="stroke:#2FA4E7;stroke-width:1.0417;" x1="34.8958" x2="298.6705" y1="467.277" y2="467.277"/><text fill="#343A40" font-family="'Verdana'" font-size="11.4583" lengthAdjust="spacing" textLength="136.879" x="45.3125" y="487.2879">+anonymizeAI: boolean</text><text fill="#343A40" font-family="'Verdana'" font-size="11.4583" lengthAdjust="spacing" textLength="133.4213" x="45.3125" y="511.0428">+encryptLogs: boolean</text><text fill="#343A40" font-family="'Verdana'" font-size="11.4583" lengthAdjust="spacing" textLength="242.9413" x="45.3125" y="534.7977">+encryptionLevel: "AES-256" | "Quantum"</text><text fill="#343A40" font-family="'Verdana'" font-size="11.4583" lengthAdjust="spacing" textLength="171.9925" x="45.3125" y="558.5526">+dataRetentionDays: number</text><text fill="#343A40" font-family="'Verdana'" font-size="11.4583" lengthAdjust="spacing" textLength="199.5641" x="45.3125" y="582.3074">+allowAggregateTraining: boolean</text><line style="stroke:#2FA4E7;stroke-width:1.0417;" x1="34.8958" x2="298.6705" y1="594.3848" y2="594.3848"/></g><!--class User--><g class="entity" data-entity="User" data-source-line="40" data-uid="ent0007" id="entity_User"><rect fill="none" height="169.6126" rx="4.1667" ry="4.1667" style="stroke:#2FA4E7;stroke-width:1.0417;" width="174.3983" x="32.8125" y="152.8971"/><rect fill="url(#g1v63ybwekb1nj0)" height="34.1715" rx="4.1667" ry="4.1667" style="stroke:url(#g1v63ybwekb1nj0);stroke-width:1.0417;" width="174.3983" x="32.8125" y="152.8971"/><rect fill="url(#g1v63ybwekb1nj0)" height="4.1667" style="stroke:url(#g1v63ybwekb1nj0);stroke-width:1.0417;" width="174.3983" x="32.8125" y="182.902"/><rect fill="none" height="169.6126" rx="4.1667" ry="4.1667" style="stroke:#2FA4E7;stroke-width:1.0417;" width="174.3983" x="32.8125" y="152.8971"/><ellipse cx="97.5782" cy="169.9829" fill="#EDF0F2" rx="10.4167" ry="10.4167" style="stroke:#BABDBF;stroke-width:1.0417;"/><path d="M99.4825,174.41 Q99.0593,174.6216 98.5873,174.7355 Q98.1153,174.8494 97.6107,174.8494 Q95.7553,174.8494 94.7787,173.645 Q93.8184,172.4243 93.8184,170.1294 Q93.8184,167.8182 94.7787,166.6138 Q95.7553,165.3931 97.6107,165.3931 Q98.1153,165.3931 98.5873,165.507 Q99.0756,165.6047 99.4825,165.8325 L99.4825,167.8345 Q99.0267,167.4113 98.5873,167.216 Q98.1478,167.0044 97.6921,167.0044 Q96.6993,167.0044 96.1947,167.8019 Q95.6902,168.5832 95.6902,170.1294 Q95.6902,171.6593 96.1947,172.4406 Q96.6993,173.2218 97.6921,173.2218 Q98.1478,173.2218 98.5873,173.0265 Q99.0267,172.8312 99.4825,172.408 L99.4825,174.41 Z " fill="#2FA4E7"/><text fill="#343A40" font-family="'Verdana'" font-size="11.4583" lengthAdjust="spacing" textLength="26.1169" x="122.5782" y="173.9497">User</text><line style="stroke:#2FA4E7;stroke-width:1.0417;" x1="33.8542" x2="206.1691" y1="187.0687" y2="187.0687"/><text fill="#343A40" font-family="'Verdana'" font-size="11.4583" lengthAdjust="spacing" textLength="67.7149" x="44.2708" y="207.0796">+uid: string</text><text fill="#343A40" font-family="'Verdana'" font-size="11.4583" lengthAdjust="spacing" textLength="81.5959" x="44.2708" y="230.8345">+email: string</text><text fill="#343A40" font-family="'Verdana'" font-size="11.4583" lengthAdjust="spacing" textLength="110.6054" x="44.2708" y="254.5893">+tier: "free" | "pro"</text><text fill="#343A40" font-family="'Verdana'" font-size="11.4583" lengthAdjust="spacing" textLength="151.4816" x="44.2708" y="278.3442">+settings: PrivacySettings</text><text fill="#343A40" font-family="'Verdana'" font-size="11.4583" lengthAdjust="spacing" textLength="135.0998" x="44.2708" y="302.0991">+events: HealthEvent[]</text><line style="stroke:#2FA4E7;stroke-width:1.0417;" x1="33.8542" x2="206.1691" y1="314.1764" y2="314.1764"/></g><!--class FirebaseService--><g class="entity" data-entity="FirebaseService" data-source-line="50" data-uid="ent0009" id="entity_FirebaseService"><rect fill="none" height="264.6322" rx="4.1667" ry="4.1667" style="stroke:#2FA4E7;stroke-width:1.0417;" width="312.8886" x="1419.7917" y="746.1263"/><rect fill="url(#g1v63ybwekb1nj0)" height="34.1715" rx="4.1667" ry="4.1667" style="stroke:url(#g1v63ybwekb1nj0);stroke-width:1.0417;" width="312.8886" x="1419.7917" y="746.1263"/><rect fill="url(#g1v63ybwekb1nj0)" height="4.1667" style="stroke:url(#g1v63ybwekb1nj0);stroke-width:1.0417;" width="312.8886" x="1419.7917" y="776.1312"/><rect fill="none" height="264.6322" rx="4.1667" ry="4.1667" style="stroke:#2FA4E7;stroke-width:1.0417;" width="312.8886" x="1419.7917" y="746.1263"/><ellipse cx="1521.2626" cy="763.2121" fill="#EDF0F2" rx="10.4167" ry="10.4167" style="stroke:#BABDBF;stroke-width:1.0417;"/><path d="M1523.1669,767.6392 Q1522.7437,767.8507 1522.2717,767.9647 Q1521.7997,768.0786 1521.2952,768.0786 Q1519.4397,768.0786 1518.4631,766.8742 Q1517.5028,765.6535 1517.5028,763.3586 Q1517.5028,761.0474 1518.4631,759.8429 Q1519.4397,758.6222 1521.2952,758.6222 Q1521.7997,758.6222 1522.2717,758.7362 Q1522.76,758.8338 1523.1669,759.0617 L1523.1669,761.0636 Q1522.7112,760.6405 1522.2717,760.4451 Q1521.8323,760.2336 1521.3765,760.2336 Q1520.3837,760.2336 1519.8792,761.0311 Q1519.3746,761.8123 1519.3746,763.3586 Q1519.3746,764.8885 1519.8792,765.6698 Q1520.3837,766.451 1521.3765,766.451 Q1521.8323,766.451 1522.2717,766.2557 Q1522.7112,766.0604 1523.1669,765.6372 L1523.1669,767.6392 Z " fill="#2FA4E7"/><text fill="#343A40" font-family="'Verdana'" font-size="11.4583" lengthAdjust="spacing" textLength="91.1967" x="1546.2626" y="767.1789">FirebaseService</text><line style="stroke:#2FA4E7;stroke-width:1.0417;" x1="1420.8333" x2="1731.6386" y1="780.2979" y2="780.2979"/><text fill="#343A40" font-family="'Verdana'" font-size="11.4583" lengthAdjust="spacing" textLength="64.5315" x="1431.25" y="800.3087">-auth: Auth</text><text fill="#343A40" font-family="'Verdana'" font-size="11.4583" lengthAdjust="spacing" textLength="76.9521" x="1431.25" y="824.0636">-db: Firestore</text><text fill="#343A40" font-family="'Verdana'" font-size="11.4583" lengthAdjust="spacing" textLength="141.1647" x="1431.25" y="847.8185">-rtdb: RealtimeDatabase</text><line style="stroke:#2FA4E7;stroke-width:1.0417;" x1="1420.8333" x2="1731.6386" y1="859.8958" y2="859.8958"/><text fill="#343A40" font-family="'Verdana'" font-size="11.4583" lengthAdjust="spacing" textLength="245.1736" x="1431.25" y="879.9067">+signIn(email, password): Promise&lt;User&gt;</text><text fill="#343A40" font-family="'Verdana'" font-size="11.4583" lengthAdjust="spacing" textLength="289.9719" x="1431.25" y="903.6616">+signUp(email, password, name): Promise&lt;User&gt;</text><text fill="#343A40" font-family="'Verdana'" font-size="11.4583" lengthAdjust="spacing" textLength="279.0451" x="1431.25" y="927.4165">+saveHealthEvent(uid, event): Promise&lt;string&gt;</text><text fill="#343A40" font-family="'Verdana'" font-size="11.4583" lengthAdjust="spacing" textLength="283.5882" x="1431.25" y="951.1714">+getHealthEvents(uid): Promise&lt;HealthEvent[]&gt;</text><text fill="#343A40" font-family="'Verdana'" font-size="11.4583" lengthAdjust="spacing" textLength="249.8118" x="1431.25" y="974.9262">+createSyncSession(uid): Promise&lt;string&gt;</text><text fill="#343A40" font-family="'Verdana'" font-size="11.4583" lengthAdjust="spacing" textLength="273.204" x="1431.25" y="998.6811">+onSyncData(sessionId, callback): Unsubscribe</text></g><!--class GeminiService--><g class="entity" data-entity="GeminiService" data-source-line="62" data-uid="ent0010" id="entity_GeminiService"><rect fill="none" height="193.3675" rx="4.1667" ry="4.1667" style="stroke:#2FA4E7;stroke-width:1.0417;" width="358.3303" x="1025" y="781.543"/><rect fill="url(#g1v63ybwekb1nj0)" height="34.1715" rx="4.1667" ry="4.1667" style="stroke:url(#g1v63ybwekb1nj0);stroke-width:1.0417;" width="358.3303" x="1025" y="781.543"/><rect fill="url(#g1v63ybwekb1nj0)" height="4.1667" style="stroke:url(#g1v63ybwekb1nj0);stroke-width:1.0417;" width="358.3303" x="1025" y="811.5479"/><rect fill="none" height="193.3675" rx="4.1667" ry="4.1667" style="stroke:#2FA4E7;stroke-width:1.0417;" width="358.3303" x="1025" y="781.543"/><ellipse cx="1153.2565" cy="798.6287" fill="#EDF0F2" rx="10.4167" ry="10.4167" style="stroke:#BABDBF;stroke-width:1.0417;"/><path d="M1155.1608,803.0558 Q1154.7376,803.2674 1154.2656,803.3813 Q1153.7936,803.4953 1153.289,803.4953 Q1151.4336,803.4953 1150.457,802.2909 Q1149.4967,801.0701 1149.4967,798.7752 Q1149.4967,796.464 1150.457,795.2596 Q1151.4336,794.0389 1153.289,794.0389 Q1153.7936,794.0389 1154.2656,794.1528 Q1154.7539,794.2505 1155.1608,794.4784 L1155.1608,796.4803 Q1154.705,796.0571 1154.2656,795.8618 Q1153.8261,795.6502 1153.3704,795.6502 Q1152.3776,795.6502 1151.873,796.4478 Q1151.3685,797.229 1151.3685,798.7752 Q1151.3685,800.3052 1151.873,801.0864 Q1152.3776,801.8677 1153.3704,801.8677 Q1153.8261,801.8677 1154.2656,801.6724 Q1154.705,801.4771 1155.1608,801.0539 L1155.1608,803.0558 Z " fill="#2FA4E7"/><text fill="#343A40" font-family="'Verdana'" font-size="11.4583" lengthAdjust="spacing" textLength="83.0673" x="1178.2565" y="802.5955">GeminiService</text><line style="stroke:#2FA4E7;stroke-width:1.0417;" x1="1026.0417" x2="1382.2886" y1="815.7145" y2="815.7145"/><text fill="#343A40" font-family="'Verdana'" font-size="11.4583" lengthAdjust="spacing" textLength="83.3527" x="1036.4583" y="835.7254">-apiKey: string</text><text fill="#343A40" font-family="'Verdana'" font-size="11.4583" lengthAdjust="spacing" textLength="235.3546" x="1036.4583" y="859.4803">-model: "gemini-3-flash" | "gemini-3-pro"</text><line style="stroke:#2FA4E7;stroke-width:1.0417;" x1="1026.0417" x2="1382.2886" y1="871.5576" y2="871.5576"/><text fill="#343A40" font-family="'Verdana'" font-size="11.4583" lengthAdjust="spacing" textLength="335.4136" x="1036.4583" y="891.5685">+analyzeFatigue(imageBase64): Promise&lt;FatigueResult&gt;</text><text fill="#343A40" font-family="'Verdana'" font-size="11.4583" lengthAdjust="spacing" textLength="253.4709" x="1036.4583" y="915.3234">+generateInsight(events): Promise&lt;string&gt;</text><text fill="#343A40" font-family="'Verdana'" font-size="11.4583" lengthAdjust="spacing" textLength="303.8864" x="1036.4583" y="939.0783">+getPredictiveForecast(events): Promise&lt;Forecast&gt;</text><text fill="#343A40" font-family="'Verdana'" font-size="11.4583" lengthAdjust="spacing" textLength="251.3784" x="1036.4583" y="962.8332">+chat(message, context): Promise&lt;string&gt;</text></g><!--class CameraMonitor--><g class="entity" data-entity="CameraMonitor" data-source-line="73" data-uid="ent0012" id="entity_CameraMonitor"><rect fill="none" height="217.1224" rx="4.1667" ry="4.1667" style="stroke:#2FA4E7;stroke-width:1.0417;" width="290.9007" x="1083.8542" y="409.668"/><rect fill="url(#g1v63ybwekb1nj0)" height="34.1715" rx="4.1667" ry="4.1667" style="stroke:url(#g1v63ybwekb1nj0);stroke-width:1.0417;" width="290.9007" x="1083.8542" y="409.668"/><rect fill="url(#g1v63ybwekb1nj0)" height="4.1667" style="stroke:url(#g1v63ybwekb1nj0);stroke-width:1.0417;" width="290.9007" x="1083.8542" y="439.6729"/><rect fill="none" height="217.1224" rx="4.1667" ry="4.1667" style="stroke:#2FA4E7;stroke-width:1.0417;" width="290.9007" x="1083.8542" y="409.668"/><ellipse cx="1175.6683" cy="426.7537" fill="#EDF0F2" rx="10.4167" ry="10.4167" style="stroke:#BABDBF;stroke-width:1.0417;"/><path d="M1177.5726,431.1808 Q1177.1495,431.3924 1176.6774,431.5063 Q1176.2054,431.6203 1175.7009,431.6203 Q1173.8454,431.6203 1172.8689,430.4159 Q1171.9086,429.1951 1171.9086,426.9002 Q1171.9086,424.589 1172.8689,423.3846 Q1173.8454,422.1639 1175.7009,422.1639 Q1176.2054,422.1639 1176.6774,422.2778 Q1177.1657,422.3755 1177.5726,422.6034 L1177.5726,424.6053 Q1177.1169,424.1821 1176.6774,423.9868 Q1176.238,423.7752 1175.7823,423.7752 Q1174.7894,423.7752 1174.2849,424.5728 Q1173.7803,425.354 1173.7803,426.9002 Q1173.7803,428.4302 1174.2849,429.2114 Q1174.7894,429.9927 1175.7823,429.9927 Q1176.238,429.9927 1176.6774,429.7974 Q1177.1169,429.6021 1177.5726,429.1789 L1177.5726,431.1808 Z " fill="#2FA4E7"/><text fill="#343A40" font-family="'Verdana'" font-size="11.4583" lengthAdjust="spacing" textLength="88.5223" x="1200.6683" y="430.7205">CameraMonitor</text><line style="stroke:#2FA4E7;stroke-width:1.0417;" x1="1084.8958" x2="1373.7132" y1="443.8395" y2="443.8395"/><text fill="#343A40" font-family="'Verdana'" font-size="11.4583" lengthAdjust="spacing" textLength="249.2243" x="1095.3125" y="463.8504">-videoRef: RefObject&lt;HTMLVideoElement&gt;</text><text fill="#343A40" font-family="'Verdana'" font-size="11.4583" lengthAdjust="spacing" textLength="267.984" x="1095.3125" y="487.6053">-canvasRef: RefObject&lt;HTMLCanvasElement&gt;</text><text fill="#343A40" font-family="'Verdana'" font-size="11.4583" lengthAdjust="spacing" textLength="123.3393" x="1095.3125" y="511.3602">-faceMesh: FaceMesh</text><line style="stroke:#2FA4E7;stroke-width:1.0417;" x1="1084.8958" x2="1373.7132" y1="523.4375" y2="523.4375"/><text fill="#343A40" font-family="'Verdana'" font-size="11.4583" lengthAdjust="spacing" textLength="254.892" x="1095.3125" y="543.4484">+onFatigueUpdate: (level: number) =&gt; void</text><text fill="#343A40" font-family="'Verdana'" font-size="11.4583" lengthAdjust="spacing" textLength="228.9149" x="1095.3125" y="567.2033">+onAlert: (event: HealthEvent) =&gt; void</text><text fill="#343A40" font-family="'Verdana'" font-size="11.4583" lengthAdjust="spacing" textLength="125.6444" x="1095.3125" y="590.9582">-processFrame(): void</text><text fill="#343A40" font-family="'Verdana'" font-size="11.4583" lengthAdjust="spacing" textLength="252.5701" x="1095.3125" y="614.713">-calculateFatigueScore(landmarks): number</text></g><!--class Dashboard--><g class="entity" data-entity="Dashboard" data-source-line="83" data-uid="ent0013" id="entity_Dashboard"><rect fill="none" height="145.8577" rx="4.1667" ry="4.1667" style="stroke:#2FA4E7;stroke-width:1.0417;" width="197.1639" x="1130.7292" y="164.8763"/><rect fill="url(#g1v63ybwekb1nj0)" height="34.1715" rx="4.1667" ry="4.1667" style="stroke:url(#g1v63ybwekb1nj0);stroke-width:1.0417;" width="197.1639" x="1130.7292" y="164.8763"/><rect fill="url(#g1v63ybwekb1nj0)" height="4.1667" style="stroke:url(#g1v63ybwekb1nj0);stroke-width:1.0417;" width="197.1639" x="1130.7292" y="194.8812"/><rect fill="none" height="145.8577" rx="4.1667" ry="4.1667" style="stroke:#2FA4E7;stroke-width:1.0417;" width="197.1639" x="1130.7292" y="164.8763"/><ellipse cx="1188.753" cy="181.9621" fill="#EDF0F2" rx="10.4167" ry="10.4167" style="stroke:#BABDBF;stroke-width:1.0417;"/><path d="M1190.6573,186.3892 Q1190.2341,186.6007 1189.7621,186.7147 Q1189.2901,186.8286 1188.7856,186.8286 Q1186.9301,186.8286 1185.9535,185.6242 Q1184.9932,184.4035 1184.9932,182.1086 Q1184.9932,179.7974 1185.9535,178.5929 Q1186.9301,177.3722 1188.7856,177.3722 Q1189.2901,177.3722 1189.7621,177.4862 Q1190.2504,177.5838 1190.6573,177.8117 L1190.6573,179.8136 Q1190.2016,179.3905 1189.7621,179.1951 Q1189.3227,178.9836 1188.8669,178.9836 Q1187.8741,178.9836 1187.3695,179.7811 Q1186.865,180.5623 1186.865,182.1086 Q1186.865,183.6385 1187.3695,184.4198 Q1187.8741,185.201 1188.8669,185.201 Q1189.3227,185.201 1189.7621,185.0057 Q1190.2016,184.8104 1190.6573,184.3872 L1190.6573,186.3892 Z " fill="#2FA4E7"/><text fill="#343A40" font-family="'Verdana'" font-size="11.4583" lengthAdjust="spacing" textLength="62.3662" x="1213.753" y="185.9289">Dashboard</text><line style="stroke:#2FA4E7;stroke-width:1.0417;" x1="1131.7708" x2="1326.8514" y1="199.0479" y2="199.0479"/><text fill="#343A40" font-family="'Verdana'" font-size="11.4583" lengthAdjust="spacing" textLength="129.6336" x="1142.1875" y="219.0587">-events: HealthEvent[]</text><text fill="#343A40" font-family="'Verdana'" font-size="11.4583" lengthAdjust="spacing" textLength="107.3715" x="1142.1875" y="242.8136">-forecast: Forecast</text><line style="stroke:#2FA4E7;stroke-width:1.0417;" x1="1131.7708" x2="1326.8514" y1="254.891" y2="254.891"/><text fill="#343A40" font-family="'Verdana'" font-size="11.4583" lengthAdjust="spacing" textLength="118.4382" x="1142.1875" y="274.9018">+refreshData(): void</text><text fill="#343A40" font-family="'Verdana'" font-size="11.4583" lengthAdjust="spacing" textLength="174.2472" x="1142.1875" y="298.6567">+handleNewAlert(event): void</text></g><!--class ChatbotWidget--><g class="entity" data-entity="ChatbotWidget" data-source-line="90" data-uid="ent0014" id="entity_ChatbotWidget"><rect fill="none" height="122.1029" rx="4.1667" ry="4.1667" style="stroke:#2FA4E7;stroke-width:1.0417;" width="238.9969" x="585.9375" y="457.0638"/><rect fill="url(#g1v63ybwekb1nj0)" height="34.1715" rx="4.1667" ry="4.1667" style="stroke:url(#g1v63ybwekb1nj0);stroke-width:1.0417;" width="238.9969" x="585.9375" y="457.0638"/><rect fill="url(#g1v63ybwekb1nj0)" height="4.1667" style="stroke:url(#g1v63ybwekb1nj0);stroke-width:1.0417;" width="238.9969" x="585.9375" y="487.0687"/><rect fill="none" height="122.1029" rx="4.1667" ry="4.1667" style="stroke:#2FA4E7;stroke-width:1.0417;" width="238.9969" x="585.9375" y="457.0638"/><ellipse cx="652.9831" cy="474.1496" fill="#EDF0F2" rx="10.4167" ry="10.4167" style="stroke:#BABDBF;stroke-width:1.0417;"/><path d="M654.8874,478.5767 Q654.4642,478.7882 653.9922,478.9022 Q653.5202,479.0161 653.0156,479.0161 Q651.1602,479.0161 650.1836,477.8117 Q649.2233,476.591 649.2233,474.2961 Q649.2233,471.9849 650.1836,470.7804 Q651.1602,469.5597 653.0156,469.5597 Q653.5202,469.5597 653.9922,469.6737 Q654.4805,469.7713 654.8874,469.9992 L654.8874,472.0011 Q654.4317,471.578 653.9922,471.3826 Q653.5528,471.1711 653.097,471.1711 Q652.1042,471.1711 651.5996,471.9686 Q651.0951,472.7498 651.0951,474.2961 Q651.0951,475.826 651.5996,476.6073 Q652.1042,477.3885 653.097,477.3885 Q653.5528,477.3885 653.9922,477.1932 Q654.4317,476.9979 654.8874,476.5747 L654.8874,478.5767 Z " fill="#2FA4E7"/><text fill="#343A40" font-family="'Verdana'" font-size="11.4583" lengthAdjust="spacing" textLength="86.1557" x="677.9831" y="478.1164">ChatbotWidget</text><line style="stroke:#2FA4E7;stroke-width:1.0417;" x1="586.9792" x2="823.8927" y1="491.2354" y2="491.2354"/><text fill="#343A40" font-family="'Verdana'" font-size="11.4583" lengthAdjust="spacing" textLength="128.2628" x="597.3958" y="511.2462">-messages: Message[]</text><text fill="#343A40" font-family="'Verdana'" font-size="11.4583" lengthAdjust="spacing" textLength="112.0097" x="597.3958" y="535.0011">-isLoading: boolean</text><line style="stroke:#2FA4E7;stroke-width:1.0417;" x1="586.9792" x2="823.8927" y1="547.0785" y2="547.0785"/><text fill="#343A40" font-family="'Verdana'" font-size="11.4583" lengthAdjust="spacing" textLength="216.0802" x="597.3958" y="567.0893">+sendMessage(text): Promise&lt;void&gt;</text></g><!--class ActivityChart--><g class="entity" data-entity="ActivityChart" data-source-line="96" data-uid="ent0015" id="entity_ActivityChart"><rect fill="none" height="98.348" rx="4.1667" ry="4.1667" style="stroke:#2FA4E7;stroke-width:1.0417;" width="185.907" x="861.4583" y="469.043"/><rect fill="url(#g1v63ybwekb1nj0)" height="34.1715" rx="4.1667" ry="4.1667" style="stroke:url(#g1v63ybwekb1nj0);stroke-width:1.0417;" width="185.907" x="861.4583" y="469.043"/><rect fill="url(#g1v63ybwekb1nj0)" height="4.1667" style="stroke:url(#g1v63ybwekb1nj0);stroke-width:1.0417;" width="185.907" x="861.4583" y="499.0479"/><rect fill="none" height="98.348" rx="4.1667" ry="4.1667" style="stroke:#2FA4E7;stroke-width:1.0417;" width="185.907" x="861.4583" y="469.043"/><ellipse cx="907.7665" cy="486.1287" fill="#EDF0F2" rx="10.4167" ry="10.4167" style="stroke:#BABDBF;stroke-width:1.0417;"/><path d="M909.6708,490.5558 Q909.2476,490.7674 908.7756,490.8813 Q908.3036,490.9953 907.799,490.9953 Q905.9436,490.9953 904.967,489.7909 Q904.0067,488.5701 904.0067,486.2752 Q904.0067,483.964 904.967,482.7596 Q905.9436,481.5389 907.799,481.5389 Q908.3036,481.5389 908.7756,481.6528 Q909.2639,481.7505 909.6708,481.9784 L909.6708,483.9803 Q909.215,483.5571 908.7756,483.3618 Q908.3361,483.1502 907.8804,483.1502 Q906.8876,483.1502 906.383,483.9478 Q905.8784,484.729 905.8784,486.2752 Q905.8784,487.8052 906.383,488.5864 Q906.8876,489.3677 907.8804,489.3677 Q908.3361,489.3677 908.7756,489.1724 Q909.215,488.9771 909.6708,488.5539 L909.6708,490.5558 Z " fill="#2FA4E7"/><text fill="#343A40" font-family="'Verdana'" font-size="11.4583" lengthAdjust="spacing" textLength="74.5407" x="932.7665" y="490.0955">ActivityChart</text><line style="stroke:#2FA4E7;stroke-width:1.0417;" x1="862.5" x2="1046.3236" y1="503.2145" y2="503.2145"/><text fill="#343A40" font-family="'Verdana'" font-size="11.4583" lengthAdjust="spacing" textLength="135.0998" x="872.9167" y="523.2254">+events: HealthEvent[]</text><line style="stroke:#2FA4E7;stroke-width:1.0417;" x1="862.5" x2="1046.3236" y1="535.3027" y2="535.3027"/><text fill="#343A40" font-family="'Verdana'" font-size="11.4583" lengthAdjust="spacing" textLength="162.9903" x="872.9167" y="555.3136">-calculateStats(): RadarData</text></g><!--class LanguageContext--><g class="entity" data-entity="LanguageContext" data-source-line="103" data-uid="ent0017" id="entity_LanguageContext"><rect fill="none" height="145.8577" rx="4.1667" ry="4.1667" style="stroke:#2FA4E7;stroke-width:1.0417;" width="182.0689" x="1483.8542" y="164.8763"/><rect fill="url(#g1v63ybwekb1nj0)" height="34.1715" rx="4.1667" ry="4.1667" style="stroke:url(#g1v63ybwekb1nj0);stroke-width:1.0417;" width="182.0689" x="1483.8542" y="164.8763"/><rect fill="url(#g1v63ybwekb1nj0)" height="4.1667" style="stroke:url(#g1v63ybwekb1nj0);stroke-width:1.0417;" width="182.0689" x="1483.8542" y="194.8812"/><rect fill="none" height="145.8577" rx="4.1667" ry="4.1667" style="stroke:#2FA4E7;stroke-width:1.0417;" width="182.0689" x="1483.8542" y="164.8763"/><ellipse cx="1515.882" cy="181.9621" fill="#EDF0F2" rx="10.4167" ry="10.4167" style="stroke:#BABDBF;stroke-width:1.0417;"/><path d="M1517.7863,186.3892 Q1517.3631,186.6007 1516.8911,186.7147 Q1516.4191,186.8286 1515.9145,186.8286 Q1514.059,186.8286 1513.0825,185.6242 Q1512.1222,184.4035 1512.1222,182.1086 Q1512.1222,179.7974 1513.0825,178.5929 Q1514.059,177.3722 1515.9145,177.3722 Q1516.4191,177.3722 1516.8911,177.4862 Q1517.3794,177.5838 1517.7863,177.8117 L1517.7863,179.8136 Q1517.3305,179.3905 1516.8911,179.1951 Q1516.4516,178.9836 1515.9959,178.9836 Q1515.0031,178.9836 1514.4985,179.7811 Q1513.9939,180.5623 1513.9939,182.1086 Q1513.9939,183.6385 1514.4985,184.4198 Q1515.0031,185.201 1515.9959,185.201 Q1516.4516,185.201 1516.8911,185.0057 Q1517.3305,184.8104 1517.7863,184.3872 L1517.7863,186.3892 Z " fill="#2FA4E7"/><text fill="#343A40" font-family="'Verdana'" font-size="11.4583" lengthAdjust="spacing" textLength="101.6368" x="1538.5085" y="185.9289">LanguageContext</text><line style="stroke:#2FA4E7;stroke-width:1.0417;" x1="1484.8958" x2="1664.8814" y1="199.0479" y2="199.0479"/><text fill="#343A40" font-family="'Verdana'" font-size="11.4583" lengthAdjust="spacing" textLength="159.1522" x="1495.3125" y="219.0587">+language: "en" | "fr" | "ar"</text><text fill="#343A40" font-family="'Verdana'" font-size="11.4583" lengthAdjust="spacing" textLength="89.2721" x="1495.3125" y="242.8136">+dir: "ltr" | "rtl"</text><line style="stroke:#2FA4E7;stroke-width:1.0417;" x1="1484.8958" x2="1664.8814" y1="254.891" y2="254.891"/><text fill="#343A40" font-family="'Verdana'" font-size="11.4583" lengthAdjust="spacing" textLength="149.0926" x="1495.3125" y="274.9018">+setLanguage(lang): void</text><text fill="#343A40" font-family="'Verdana'" font-size="11.4583" lengthAdjust="spacing" textLength="140.4205" x="1495.3125" y="298.6567">+t(key, params?): string</text></g><!--reverse link User to HealthEvent--><g class="link" data-entity-1="User" data-entity-2="HealthEvent" data-source-line="111" data-uid="lnk18" id="link_User_HealthEvent"><path codeLine="111" d="M208.0368,331.3953 C216.6201,339.4995 216.3021,338.8346 225,346.1263 C263.2708,378.2305 281.1458,375.6263 317.7083,409.668 C324.0729,415.5846 330.3542,422.0013 336.4479,428.6471" fill="none" id="User-backto-HealthEvent" style="stroke:#2FA4E7;stroke-width:3.125;"/><polygon fill="#2FA4E7" points="198.9479,322.8138,200.6319,330.1342,208.0368,331.3953,206.3529,324.0749,198.9479,322.8138" style="stroke:#2FA4E7;stroke-width:3.125;"/><text fill="#343A40" font-family="'Verdana'" font-size="12.5" lengthAdjust="spacing" textLength="7.9529" x="192.279" y="347.7069">1</text><text fill="#343A40" font-family="'Verdana'" font-size="12.5" lengthAdjust="spacing" textLength="35.1563" x="287.7179" y="411.1217">many</text></g><!--reverse link User to PrivacySettings--><g class="link" data-entity-1="User" data-entity-2="PrivacySettings" data-source-line="112" data-uid="lnk19" id="link_User_PrivacySettings"><path codeLine="112" d="M136.0569,335.3587 C141.9319,370.2128 146.6563,398.2201 152.5208,433.043" fill="none" id="User-backto-PrivacySettings" style="stroke:#2FA4E7;stroke-width:3.125;"/><polygon fill="#2FA4E7" points="133.9792,323.0326,130.9093,329.8882,136.0569,335.3587,139.1267,328.5031,133.9792,323.0326" style="stroke:#2FA4E7;stroke-width:3.125;"/><text fill="#343A40" font-family="'Verdana'" font-size="12.5" lengthAdjust="spacing" textLength="7.9529" x="121.913" y="347.6381">1</text><text fill="#343A40" font-family="'Verdana'" font-size="12.5" lengthAdjust="spacing" textLength="7.9529" x="137.8491" y="416.713">1</text></g><!--link Dashboard to FirebaseService--><g class="link" data-entity-1="Dashboard" data-entity-2="FirebaseService" data-source-line="113" data-uid="lnk20" id="link_Dashboard_FirebaseService"><path codeLine="113" d="M1327.8958,286.6367 C1377.6667,315.5951 1434.7396,357.1471 1469.7917,409.668 C1536.6875,509.9284 1561.3265,640.122 1570.6077,739.747" fill="none" id="Dashboard-to-FirebaseService" style="stroke:#2FA4E7;stroke-width:3.125;"/><polygon fill="#2FA4E7" points="1571.1875,745.9701,1574.4666,736.249,1570.7044,740.7842,1566.1692,737.022,1571.1875,745.9701" style="stroke:#2FA4E7;stroke-width:3.125;"/><text fill="#343A40" font-family="'Verdana'" font-size="12.5" lengthAdjust="spacing" textLength="28.6377" x="1563.5417" y="522.8333">uses</text></g><!--link Dashboard to GeminiService--><g class="link" data-entity-1="Dashboard" data-entity-2="GeminiService" data-source-line="114" data-uid="lnk21" id="link_Dashboard_GeminiService"><path codeLine="114" d="M1322.0313,311.0638 C1350.2396,338.543 1377.7188,372.3242 1392.7083,409.668 C1432.7292,509.3451 1429.2917,550.3555 1392.7083,651.3346 C1375.3021,699.3763 1346.8949,739.7367 1313.6657,776.7367" fill="none" id="Dashboard-to-GeminiService" style="stroke:#2FA4E7;stroke-width:3.125;"/><polygon fill="#2FA4E7" points="1309.4896,781.3867,1318.8538,777.1958,1312.9697,777.5117,1312.6537,771.6276,1309.4896,781.3867" style="stroke:#2FA4E7;stroke-width:3.125;"/><text fill="#343A40" font-family="'Verdana'" font-size="12.5" lengthAdjust="spacing" textLength="28.6377" x="1427.0833" y="522.8333">uses</text></g><!--link CameraMonitor to GeminiService--><g class="link" data-entity-1="CameraMonitor" data-entity-2="GeminiService" data-source-line="115" data-uid="lnk22" id="link_CameraMonitor_GeminiService"><path codeLine="115" d="M1221.6667,626.5534 C1218.2292,675.8242 1214.6226,727.5165 1211.2893,775.2769" fill="none" id="CameraMonitor-to-GeminiService" style="stroke:#2FA4E7;stroke-width:3.125;"/><polygon fill="#2FA4E7" points="1210.8542,781.5117,1215.6634,772.4496,1211.2168,776.316,1207.3503,771.8694,1210.8542,781.5117" style="stroke:#2FA4E7;stroke-width:3.125;"/><text fill="#343A40" font-family="'Verdana'" font-size="12.5" lengthAdjust="spacing" textLength="84.1248" x="1225" y="677.5208">sends frames</text></g><!--link ChatbotWidget to GeminiService--><g class="link" data-entity-1="ChatbotWidget" data-entity-2="GeminiService" data-source-line="116" data-uid="lnk23" id="link_ChatbotWidget_GeminiService"><path codeLine="116" d="M762.8333,579.1159 C786.8542,602.7826 815.6667,629.4805 843.75,651.3346 C903.6458,697.9388 968.1839,740.2904 1030.3818,778.1966" fill="none" id="ChatbotWidget-to-GeminiService" style="stroke:#2FA4E7;stroke-width:3.125;"/><polygon fill="#2FA4E7" points="1035.7188,781.4492,1029.8817,773.0124,1031.2713,778.7387,1025.5449,780.1283,1035.7188,781.4492" style="stroke:#2FA4E7;stroke-width:3.125;"/><text fill="#343A40" font-family="'Verdana'" font-size="12.5" lengthAdjust="spacing" textLength="46.3623" x="886.4583" y="677.5208">queries</text></g><!--reverse link Dashboard to CameraMonitor--><g class="link" data-entity-1="Dashboard" data-entity-2="CameraMonitor" data-source-line="117" data-uid="lnk24" id="link_Dashboard_CameraMonitor"><path codeLine="117" d="M1229.1667,323.3242 C1229.1667,353.418 1229.1667,376.5326 1229.1667,409.6055" fill="none" id="Dashboard-backto-CameraMonitor" style="stroke:#2FA4E7;stroke-width:3.125;"/><polygon fill="#2FA4E7" points="1229.1667,310.8242,1225,317.0742,1229.1667,323.3242,1233.3333,317.0742,1229.1667,310.8242" style="stroke:#2FA4E7;stroke-width:3.125;"/></g><!--reverse link Dashboard to ChatbotWidget--><g class="link" data-entity-1="Dashboard" data-entity-2="ChatbotWidget" data-source-line="118" data-uid="lnk25" id="link_Dashboard_ChatbotWidget"><path codeLine="118" d="M1118.8676,279.4299 C1039.0134,310.4195 936.6042,354.2513 843.75,409.668 C820.6354,423.4701 796.9375,440.543 775.8333,456.9909" fill="none" id="Dashboard-backto-ChatbotWidget" style="stroke:#2FA4E7;stroke-width:3.125;"/><polygon fill="#2FA4E7" points="1130.5208,274.9076,1123.1868,273.2843,1118.8676,279.4299,1126.2017,281.0531,1130.5208,274.9076" style="stroke:#2FA4E7;stroke-width:3.125;"/></g><!--reverse link Dashboard to ActivityChart--><g class="link" data-entity-1="Dashboard" data-entity-2="ActivityChart" data-source-line="119" data-uid="lnk26" id="link_Dashboard_ActivityChart"><path codeLine="119" d="M1149.2002,319.7123 C1100.0231,369.4414 1044.7604,425.3451 1001.6875,468.8971" fill="none" id="Dashboard-backto-ActivityChart" style="stroke:#2FA4E7;stroke-width:3.125;"/><polygon fill="#2FA4E7" points="1157.9896,310.8242,1150.6322,312.3384,1149.2002,319.7123,1156.5576,318.198,1157.9896,310.8242" style="stroke:#2FA4E7;stroke-width:3.125;"/></g><!--SRC=[VLPTSwCs57tthr1v8jqmqyzzy6opGsoyOM8xATZDP3eTZmpNM0q8hoISikt-zru9OGFhtOV4vdvmppttwChVgJqKG18GLGwKUsMbSiPX95yOFr112vBaL4fVAS6sbO8mANdCFW7vOJHIJEL0fd1yWZmd7fdeI39bDCEyqUX0anUQ0N4cfG2ogWyW7VBlY13WLK628t2bZSP4oEqyNDvl_7aGhSppi_-qt4o3LJ1P1LDZUNo8L-ies3pvqJ9SVZ2ssSDa7M_cw36FTy_Jo5-53yjD52p2vJI8Z3bUHS5gShUvZGB_tbY2vs23LZzSukDd_6jXnN04mLHjKSqVdipd8fY6wqLJ8_nmTquox90xeBdQcvPiuXkMZeb4qdZMF2jiTNpkkZ5AMsrygck3MG5IqU8m9bEgR701YgPKqJ4fjtz3eXehPI6NBDkhzvrwFN2FWXrfKiUW57fb2v3oajS5Zj8FnsHRbdhyZGTu8kg3cfUPlEnX9PyZtdnC73-8lPz-VUkG_uZpUqMvgWgdYTLG8r3OBuPFQOtlGeAt86pvF2zV_ImJa667Aq4PHtJTUhqcrX94YxmQSWi5PVc0RWO2uUq4WC5s4ANJSjxmC1uIOz-b9uJEpaZ__CkW-ToHT0pYo99Mq0t46HEmfHAipwBrQANsO-BZ_-OvtOvDg5HuB1gJKDeOwOeuU9murU-nS5d6G-wQ5g_90GkzbYAzqkZBWabufvcvESUk3yFOQy9f0L_9e4VeTEeYjTV4KD29RtYr6HceJeBK6PtG7cis8n604uvhdiGW9OfXaDDxFMuN3DGKkBA93X5HWchP8lUOjUQosie4jn4CDV812XJHaFu3kuUw9mwlA5CZtimaU3zxEypV6vsSJ6V1K4xp-XFCg69P1IuhK06tE9-tltIQiDu8P9Mh4rKS1BPk3wZRIEiRn3uAI5cYs15cg8s4oWivhQSbTq-LYyj28YZagUGA_haykxw0KMo98fEoE9HSL-WAUO9o4NHHSeOIRNayiXJA27PQfxi7iu3UtQqMyp-qFSZn4k4MavTGVgJoGkp4EFh1Evh00YGUaPdzrWh1Khe-u2R1rUdcpSffbiWL-Us674kMjj5-3a9Xb26iTtpxeNgmU73b3EyeS96fimTLbbGv5hELumIvTdFAquAA5ps4qmBhwMwAujcMLAGjLr_R8RfTEpvirtvh6X20gqhkZV2xeDxiiNmEItWr3RhjsRG1FHmJrCAsL4yiHIsrMAms4CsY-TOYON9UqdImSyr-vAaDTGTYqaLlXbLzBLYykR2wEDr-ts3Wn7AiAEuFV7s4rvhGdN-XqacZvwuuvvHd5JgjgosOMpEUQk3c9E-4-Q3YlFVRN3tJhCUoSb-WrYiJLI7VN_NlafJfgoHNpGk5ofqMgBcLd1yTyhtd4QUWl7QwBG_y-3cySixIyRoRBswGCQbm2Gw2-blEXlIFxAKmFLP9Tbhr6DvJogNmZnN-7EdLrYtqoWnztNSEV3sD_0y0]--></g></svg>