<svg xmlns="http://www.w3.org/2000/svg" xmlns:xlink="http://www.w3.org/1999/xlink" contentStyleType="text/css" data-diagram-type="SEQUENCE" height="1388.5417px" preserveAspectRatio="none" style="width:911px;height:1388px;" version="1.1" viewBox="0 0 911 1388" width="911.4583px" zoomAndPan="magnify"><title>DevWell - Neural Bridge Mobile Sync</title><defs/><g><rect fill="none" height="47.168" rx="4.1667" ry="4.1667" style="stroke:#BABDBF;stroke-width:1.0417;" width="453.479" x="227.5452" y="20.8333"/><text fill="#2FA4E7" font-family="'Verdana'" font-size="20.8333" font-weight="bold" lengthAdjust="spacing" textLength="430.5623" x="239.0035" y="51.6296">DevWell - Neural Bridge Mobile Sync</text><rect fill="none" height="357.9753" rx="4.1667" ry="4.1667" style="stroke:#2FA4E7;stroke-width:1.0417;" width="837.8835" x="20.8333" y="825.7813"/><g><title>Developer</title><rect fill="#000000" fill-opacity="0.00000" height="1093.8477" width="8.3333" x="67.5608" y="182.5195"/><line style="stroke:#BABDBF;stroke-width:1.0417;stroke-dasharray:5.2083,5.2083;" x1="70.8333" x2="70.8333" y1="182.5195" y2="1276.3672"/></g><g><title>Web Dashboard</title><rect fill="#000000" fill-opacity="0.00000" height="1093.8477" width="8.3333" x="278.5573" y="182.5195"/><line style="stroke:#BABDBF;stroke-width:1.0417;stroke-dasharray:5.2083,5.2083;" x1="281.6854" x2="281.6854" y1="182.5195" y2="1276.3672"/></g><g><title>Firebase</title><rect fill="#000000" fill-opacity="0.00000" height="1093.8477" width="8.3333" x="480.3864" y="182.5195"/><line style="stroke:#BABDBF;stroke-width:1.0417;stroke-dasharray:5.2083,5.2083;" x1="484.1329" x2="484.1329" y1="182.5195" y2="1276.3672"/></g><g><title>Mobile PWA</title><rect fill="#000000" fill-opacity="0.00000" height="1093.8477" width="8.3333" x="682.1543" y="182.5195"/><line style="stroke:#BABDBF;stroke-width:1.0417;stroke-dasharray:5.2083,5.2083;" x1="686.0667" x2="686.0667" y1="182.5195" y2="1276.3672"/></g><g><title>Developer</title><rect fill="#000000" fill-opacity="0.00000" height="1093.8477" width="8.3333" x="849.3418" y="182.5195"/><line style="stroke:#BABDBF;stroke-width:1.0417;stroke-dasharray:5.2083,5.2083;" x1="852.6143" x2="852.6143" y1="182.5195" y2="1276.3672"/></g><g class="participant participant-head" data-participant="dev"><text fill="#2FA4E7" font-family="'Verdana'" font-size="12.5" lengthAdjust="spacing" textLength="64.2883" x="36.4583" y="159.8124">Developer</text><text fill="#2FA4E7" font-family="'Verdana'" font-size="12.5" lengthAdjust="spacing" textLength="61.3037" x="37.9506" y="174.3632">(Desktop)</text><ellipse cx="71.7275" cy="88.8346" fill="none" rx="8.3333" ry="8.3333" style="stroke:#2FA4E7;stroke-width:1.0417;"/><path d="M71.7275,97.168 L71.7275,125.293 M58.1858,105.5013 L85.2692,105.5013 M71.7275,125.293 L58.1858,140.918 M71.7275,125.293 L85.2692,140.918" fill="none" style="stroke:#2FA4E7;stroke-width:1.0417;"/></g><g class="participant participant-tail" data-participant="dev"><text fill="#2FA4E7" font-family="'Verdana'" font-size="12.5" lengthAdjust="spacing" textLength="64.2883" x="36.4583" y="1292.1366">Developer</text><text fill="#2FA4E7" font-family="'Verdana'" font-size="12.5" lengthAdjust="spacing" textLength="61.3037" x="37.9506" y="1306.6874">(Desktop)</text><ellipse cx="71.7275" cy="1324.2188" fill="none" rx="8.3333" ry="8.3333" style="stroke:#2FA4E7;stroke-width:1.0417;"/><path d="M71.7275,1332.5521 L71.7275,1360.6771 M58.1858,1340.8854 L85.2692,1340.8854 M71.7275,1360.6771 L58.1858,1376.3021 M71.7275,1360.6771 L85.2692,1376.3021" fill="none" style="stroke:#2FA4E7;stroke-width:1.0417;"/></g><g class="participant participant-head" data-participant="web"><rect fill="none" height="39.5508" rx="4.1667" ry="4.1667" style="stroke:#2FA4E7;stroke-width:1.0417;" width="124.9939" x="220.2271" y="141.9271"/><text fill="#2FA4E7" font-family="'Verdana'" font-size="12.5" lengthAdjust="spacing" textLength="99.9939" x="232.7271" y="166.0299">Web Dashboard</text></g><g class="participant participant-tail" data-participant="web"><rect fill="none" height="39.5508" rx="4.1667" ry="4.1667" style="stroke:#2FA4E7;stroke-width:1.0417;" width="124.9939" x="220.2271" y="1275.3255"/><text fill="#2FA4E7" font-family="'Verdana'" font-size="12.5" lengthAdjust="spacing" textLength="99.9939" x="232.7271" y="1299.4283">Web Dashboard</text></g><g class="participant participant-head" data-participant="rtdb"><text fill="#2FA4E7" font-family="'Verdana'" font-size="12.5" lengthAdjust="spacing" textLength="53.2898" x="454.7831" y="159.8124">Firebase</text><text fill="#2FA4E7" font-family="'Verdana'" font-size="12.5" lengthAdjust="spacing" textLength="77.9236" x="442.4662" y="174.3632">Realtime DB</text><path d="M465.803,105.5013 C465.803,95.0846 484.553,95.0846 484.553,95.0846 C484.553,95.0846 503.303,95.0846 503.303,105.5013 L503.303,132.5846 C503.303,143.0013 484.553,143.0013 484.553,143.0013 C484.553,143.0013 465.803,143.0013 465.803,132.5846 L465.803,105.5013" fill="none" style="stroke:#2FA4E7;stroke-width:1.0417;"/><path d="M465.803,105.5013 C465.803,115.918 484.553,115.918 484.553,115.918 C484.553,115.918 503.303,115.918 503.303,105.5013" fill="none" style="stroke:#2FA4E7;stroke-width:1.0417;"/></g><g class="participant participant-tail" data-participant="rtdb"><text fill="#2FA4E7" font-family="'Verdana'" font-size="12.5" lengthAdjust="spacing" textLength="53.2898" x="454.7831" y="1292.1366">Firebase</text><text fill="#2FA4E7" font-family="'Verdana'" font-size="12.5" lengthAdjust="spacing" textLength="77.9236" x="442.4662" y="1306.6874">Realtime DB</text><path d="M465.803,1325.2604 C465.803,1314.8438 484.553,1314.8438 484.553,1314.8438 C484.553,1314.8438 503.303,1314.8438 503.303,1325.2604 L503.303,1352.3438 C503.303,1362.7604 484.553,1362.7604 484.553,1362.7604 C484.553,1362.7604 465.803,1362.7604 465.803,1352.3438 L465.803,1325.2604" fill="none" style="stroke:#2FA4E7;stroke-width:1.0417;"/><path d="M465.803,1325.2604 C465.803,1335.6771 484.553,1335.6771 484.553,1335.6771 C484.553,1335.6771 503.303,1335.6771 503.303,1325.2604" fill="none" style="stroke:#2FA4E7;stroke-width:1.0417;"/></g><g class="participant participant-head" data-participant="mobile"><rect fill="none" height="39.5508" rx="4.1667" ry="4.1667" style="stroke:#2FA4E7;stroke-width:1.0417;" width="98.4253" x="637.1084" y="141.9271"/><text fill="#2FA4E7" font-family="'Verdana'" font-size="12.5" lengthAdjust="spacing" textLength="73.4253" x="649.6084" y="166.0299">Mobile PWA</text></g><g class="participant participant-tail" data-participant="mobile"><rect fill="none" height="39.5508" rx="4.1667" ry="4.1667" style="stroke:#2FA4E7;stroke-width:1.0417;" width="98.4253" x="637.1084" y="1275.3255"/><text fill="#2FA4E7" font-family="'Verdana'" font-size="12.5" lengthAdjust="spacing" textLength="73.4253" x="649.6084" y="1299.4283">Mobile PWA</text></g><g class="participant participant-head" data-participant="devMobile"><text fill="#2FA4E7" font-family="'Verdana'" font-size="12.5" lengthAdjust="spacing" textLength="64.2883" x="818.2393" y="159.8124">Developer</text><text fill="#2FA4E7" font-family="'Verdana'" font-size="12.5" lengthAdjust="spacing" textLength="50.7568" x="825.0051" y="174.3632">(Mobile)</text><ellipse cx="853.5085" cy="88.8346" fill="none" rx="8.3333" ry="8.3333" style="stroke:#2FA4E7;stroke-width:1.0417;"/><path d="M853.5085,97.168 L853.5085,125.293 M839.9668,105.5013 L867.0502,105.5013 M853.5085,125.293 L839.9668,140.918 M853.5085,125.293 L867.0502,140.918" fill="none" style="stroke:#2FA4E7;stroke-width:1.0417;"/></g><g class="participant participant-tail" data-participant="devMobile"><text fill="#2FA4E7" font-family="'Verdana'" font-size="12.5" lengthAdjust="spacing" textLength="64.2883" x="818.2393" y="1292.1366">Developer</text><text fill="#2FA4E7" font-family="'Verdana'" font-size="12.5" lengthAdjust="spacing" textLength="50.7568" x="825.0051" y="1306.6874">(Mobile)</text><ellipse cx="853.5085" cy="1324.2188" fill="none" rx="8.3333" ry="8.3333" style="stroke:#2FA4E7;stroke-width:1.0417;"/><path d="M853.5085,1332.5521 L853.5085,1360.6771 M839.9668,1340.8854 L867.0502,1340.8854 M853.5085,1360.6771 L839.9668,1376.3021 M853.5085,1360.6771 L867.0502,1376.3021" fill="none" style="stroke:#2FA4E7;stroke-width:1.0417;"/></g><rect fill="#F8F9FA" height="3.125" rx="4.1667" ry="4.1667" style="stroke:#F8F9FA;stroke-width:1.0417;" width="888.7777" x="10.4167" y="218.9616"/><line style="stroke:#868E96;stroke-width:1.0417;" x1="10.4167" x2="899.1943" y1="218.9616" y2="218.9616"/><line style="stroke:#868E96;stroke-width:1.0417;" x1="10.4167" x2="899.1943" y1="222.0866" y2="222.0866"/><rect fill="#F8F9FA" height="33.3008" rx="4.1667" ry="4.1667" style="stroke:#868E96;stroke-width:2.0833;" width="147.8333" x="380.8889" y="203.3529"/><text fill="#343A40" font-family="'Verdana'" font-size="12.5" font-weight="bold" lengthAdjust="spacing" textLength="118.4814" x="392.3472" y="224.3306">Session Creation</text><g class="message" data-participant-1="dev" data-participant-2="web"><polygon fill="#2FA4E7" points="270.224,274.1211,280.6407,278.2878,270.224,282.4544,274.3907,278.2878" style="stroke:#2FA4E7;stroke-width:1.0417;"/><line style="stroke:#2FA4E7;stroke-width:3.125;" x1="71.7275" x2="276.474" y1="278.2878" y2="278.2878"/><text fill="#343A40" font-family="'Verdana'" font-size="12.5" lengthAdjust="spacing" textLength="175.5798" x="84.2275" y="268.0481">Click "Generate Link Signal"</text></g><g class="message" data-participant-1="web" data-participant-2="rtdb"><polygon fill="#2FA4E7" points="472.053,313.6719,482.4697,317.8385,472.053,322.0052,476.2197,317.8385" style="stroke:#2FA4E7;stroke-width:1.0417;"/><line style="stroke:#2FA4E7;stroke-width:3.125;" x1="282.724" x2="478.303" y1="317.8385" y2="317.8385"/><text fill="#343A40" font-family="'Verdana'" font-size="12.5" lengthAdjust="spacing" textLength="166.4124" x="295.224" y="307.5989">createSyncSession(userId)</text></g><g class="message" data-participant-1="rtdb" data-participant-2="web"><polygon fill="#2FA4E7" points="294.1823,353.2227,283.7657,357.3893,294.1823,361.556,290.0157,357.3893" style="stroke:#2FA4E7;stroke-width:1.0417;"/><line style="stroke:#2FA4E7;stroke-width:3.125;stroke-dasharray:2.0833,2.0833;" x1="287.9323" x2="483.5114" y1="357.3893" y2="357.3893"/><text fill="#343A40" font-family="'Verdana'" font-size="12.5" lengthAdjust="spacing" textLength="57.8918" x="305.6407" y="347.1497">sessionId</text></g><g class="message" data-participant-1="web" data-participant-2="web"><line style="stroke:#2FA4E7;stroke-width:3.125;" x1="282.724" x2="326.474" y1="411.4909" y2="411.4909"/><line style="stroke:#2FA4E7;stroke-width:3.125;" x1="326.474" x2="326.474" y1="411.4909" y2="425.0326"/><line style="stroke:#2FA4E7;stroke-width:3.125;" x1="283.7657" x2="326.474" y1="425.0326" y2="425.0326"/><polygon fill="#2FA4E7" points="294.1823,420.8659,283.7657,425.0326,294.1823,429.1992,290.0157,425.0326" style="stroke:#2FA4E7;stroke-width:1.0417;"/><text fill="#343A40" font-family="'Verdana'" font-size="12.5" lengthAdjust="spacing" textLength="116.8518" x="295.224" y="386.7004">Generate QR Code</text><text fill="#343A40" font-family="'Verdana'" font-size="12.5" lengthAdjust="spacing" textLength="88.385" x="295.224" y="401.2512">with sessionId</text></g><g class="message" data-participant-1="web" data-participant-2="dev"><polygon fill="#2FA4E7" points="83.1858,460.4167,72.7692,464.5833,83.1858,468.75,79.0192,464.5833" style="stroke:#2FA4E7;stroke-width:1.0417;"/><line style="stroke:#2FA4E7;stroke-width:3.125;stroke-dasharray:2.0833,2.0833;" x1="76.9358" x2="281.6823" y1="464.5833" y2="464.5833"/><text fill="#343A40" font-family="'Verdana'" font-size="12.5" lengthAdjust="spacing" textLength="104.5471" x="94.6442" y="454.3437">Display QR Code</text></g><rect fill="#F8F9FA" height="3.125" rx="4.1667" ry="4.1667" style="stroke:#F8F9FA;stroke-width:1.0417;" width="888.7777" x="10.4167" y="498.9421"/><line style="stroke:#868E96;stroke-width:1.0417;" x1="10.4167" x2="899.1943" y1="498.9421" y2="498.9421"/><line style="stroke:#868E96;stroke-width:1.0417;" x1="10.4167" x2="899.1943" y1="502.0671" y2="502.0671"/><rect fill="#F8F9FA" height="33.3008" rx="4.1667" ry="4.1667" style="stroke:#868E96;stroke-width:2.0833;" width="159.9182" x="374.8464" y="483.3333"/><text fill="#343A40" font-family="'Verdana'" font-size="12.5" font-weight="bold" lengthAdjust="spacing" textLength="130.5664" x="386.3047" y="504.3111">Mobile Connection</text><g class="message" data-participant-1="devMobile" data-participant-2="mobile"><polygon fill="#2FA4E7" points="697.7793,554.1016,687.3627,558.2682,697.7793,562.4349,693.6127,558.2682" style="stroke:#2FA4E7;stroke-width:1.0417;"/><line style="stroke:#2FA4E7;stroke-width:3.125;" x1="691.5293" x2="852.4668" y1="558.2682" y2="558.2682"/><text fill="#343A40" font-family="'Verdana'" font-size="12.5" lengthAdjust="spacing" textLength="121.4905" x="709.2377" y="548.0286">Open DevWell PWA</text></g><g class="message" data-participant-1="devMobile" data-participant-2="mobile"><polygon fill="#2FA4E7" points="697.7793,593.6523,687.3627,597.819,697.7793,601.9857,693.6127,597.819" style="stroke:#2FA4E7;stroke-width:1.0417;"/><line style="stroke:#2FA4E7;stroke-width:3.125;" x1="691.5293" x2="852.4668" y1="597.819" y2="597.819"/><text fill="#343A40" font-family="'Verdana'" font-size="12.5" lengthAdjust="spacing" textLength="88.8611" x="709.2377" y="587.5793">Scan QR Code</text></g><g class="message" data-participant-1="mobile" data-participant-2="rtdb"><polygon fill="#2FA4E7" points="496.0114,633.2031,485.5947,637.3698,496.0114,641.5365,491.8447,637.3698" style="stroke:#2FA4E7;stroke-width:1.0417;"/><line style="stroke:#2FA4E7;stroke-width:3.125;" x1="489.7614" x2="685.2793" y1="637.3698" y2="637.3698"/><text fill="#343A40" font-family="'Verdana'" font-size="12.5" lengthAdjust="spacing" textLength="137.854" x="507.4697" y="627.1301">joinSession(sessionId)</text></g><g class="message" data-participant-1="rtdb" data-participant-2="mobile"><polygon fill="#2FA4E7" points="673.821,672.7539,684.2377,676.9206,673.821,681.0872,677.9877,676.9206" style="stroke:#2FA4E7;stroke-width:1.0417;"/><line style="stroke:#2FA4E7;stroke-width:3.125;stroke-dasharray:2.0833,2.0833;" x1="484.553" x2="680.071" y1="676.9206" y2="676.9206"/><text fill="#343A40" font-family="'Verdana'" font-size="12.5" lengthAdjust="spacing" textLength="103.8452" x="497.053" y="666.6809">Session linked ✓</text></g><g class="message" data-participant-1="rtdb" data-participant-2="web"><polygon fill="#2FA4E7" points="294.1823,712.3047,283.7657,716.4714,294.1823,720.638,290.0157,716.4714" style="stroke:#2FA4E7;stroke-width:1.0417;"/><line style="stroke:#2FA4E7;stroke-width:3.125;stroke-dasharray:2.0833,2.0833;" x1="287.9323" x2="483.5114" y1="716.4714" y2="716.4714"/><text fill="#343A40" font-family="'Verdana'" font-size="12.5" lengthAdjust="spacing" textLength="111.3708" x="305.6407" y="706.2317">onSessionJoined()</text></g><g class="message" data-participant-1="web" data-participant-2="dev"><polygon fill="#2FA4E7" points="83.1858,751.8555,72.7692,756.0221,83.1858,760.1888,79.0192,756.0221" style="stroke:#2FA4E7;stroke-width:1.0417;"/><line style="stroke:#2FA4E7;stroke-width:3.125;stroke-dasharray:2.0833,2.0833;" x1="76.9358" x2="281.6823" y1="756.0221" y2="756.0221"/><text fill="#343A40" font-family="'Verdana'" font-size="12.5" lengthAdjust="spacing" textLength="170.6055" x="94.6442" y="745.7825">"Mobile Sensor Connected"</text></g><rect fill="#F8F9FA" height="3.125" rx="4.1667" ry="4.1667" style="stroke:#F8F9FA;stroke-width:1.0417;" width="888.7777" x="10.4167" y="790.3809"/><line style="stroke:#868E96;stroke-width:1.0417;" x1="10.4167" x2="899.1943" y1="790.3809" y2="790.3809"/><line style="stroke:#868E96;stroke-width:1.0417;" x1="10.4167" x2="899.1943" y1="793.5059" y2="793.5059"/><rect fill="#F8F9FA" height="33.3008" rx="4.1667" ry="4.1667" style="stroke:#868E96;stroke-width:2.0833;" width="174.6521" x="367.4795" y="774.7721"/><text fill="#343A40" font-family="'Verdana'" font-size="12.5" font-weight="bold" lengthAdjust="spacing" textLength="145.3003" x="378.9378" y="795.7499">Biometric Streaming</text><path d="M25,825.7813 L108.5327,825.7813 L108.5327,842.4154 L98.116,852.832 L20.8333,852.832 L20.8333,829.9479 A4.1667,4.1667 0 0 1 25,825.7813" fill="#E9ECEF" style="stroke:#868E96;stroke-width:1.0417;"/><rect fill="none" height="357.9753" rx="4.1667" ry="4.1667" style="stroke:#2FA4E7;stroke-width:1.0417;" width="837.8835" x="20.8333" y="825.7813"/><text fill="#033C73" font-family="'Verdana'" font-size="12.5" font-weight="bold" lengthAdjust="spacing" textLength="30.4077" x="41.6667" y="843.634">loop</text><text fill="#343A40" font-family="'Verdana'" font-size="12.5" font-weight="bold" lengthAdjust="spacing" textLength="91.0706" x="129.366" y="844.6757">[Continuous]</text><g class="message" data-participant-1="mobile" data-participant-2="mobile"><line style="stroke:#2FA4E7;stroke-width:3.125;" x1="686.321" x2="730.071" y1="893.3919" y2="893.3919"/><line style="stroke:#2FA4E7;stroke-width:3.125;" x1="730.071" x2="730.071" y1="893.3919" y2="906.9336"/><line style="stroke:#2FA4E7;stroke-width:3.125;" x1="687.3627" x2="730.071" y1="906.9336" y2="906.9336"/><polygon fill="#2FA4E7" points="697.7793,902.7669,687.3627,906.9336,697.7793,911.1003,693.6127,906.9336" style="stroke:#2FA4E7;stroke-width:1.0417;"/><text fill="#343A40" font-family="'Verdana'" font-size="12.5" lengthAdjust="spacing" textLength="142.1875" x="698.821" y="883.1523">Capture camera frame</text></g><g class="message" data-participant-1="mobile" data-participant-2="mobile"><line style="stroke:#2FA4E7;stroke-width:3.125;" x1="686.321" x2="730.071" y1="946.4844" y2="946.4844"/><line style="stroke:#2FA4E7;stroke-width:3.125;" x1="730.071" x2="730.071" y1="946.4844" y2="960.026"/><line style="stroke:#2FA4E7;stroke-width:3.125;" x1="687.3627" x2="730.071" y1="960.026" y2="960.026"/><polygon fill="#2FA4E7" points="697.7793,955.8594,687.3627,960.026,697.7793,964.1927,693.6127,960.026" style="stroke:#2FA4E7;stroke-width:1.0417;"/><text fill="#343A40" font-family="'Verdana'" font-size="12.5" lengthAdjust="spacing" textLength="118.7622" x="698.821" y="936.2447">MediaPipe analysis</text></g><g class="message" data-participant-1="mobile" data-participant-2="rtdb"><polygon fill="#2FA4E7" points="496.0114,1039.0625,485.5947,1043.2292,496.0114,1047.3958,491.8447,1043.2292" style="stroke:#2FA4E7;stroke-width:1.0417;"/><line style="stroke:#2FA4E7;stroke-width:3.125;" x1="489.7614" x2="685.2793" y1="1043.2292" y2="1043.2292"/><text fill="#343A40" font-family="'Verdana'" font-size="12.5" lengthAdjust="spacing" textLength="132.9163" x="507.4697" y="989.3372">pushBiometricData({</text><text fill="#343A40" font-family="'Verdana'" font-size="12.5" lengthAdjust="spacing" textLength="141.2231" x="515.4165" y="1003.8879">blinkRate, yawnCount,</text><text fill="#343A40" font-family="'Verdana'" font-size="12.5" lengthAdjust="spacing" textLength="158.4045" x="515.4165" y="1018.4387">postureScore, timestamp</text><text fill="#343A40" font-family="'Verdana'" font-size="12.5" lengthAdjust="spacing" textLength="12.8296" x="507.4697" y="1032.9895">})</text></g><g class="message" data-participant-1="rtdb" data-participant-2="web"><polygon fill="#2FA4E7" points="294.1823,1078.6133,283.7657,1082.7799,294.1823,1086.9466,290.0157,1082.7799" style="stroke:#2FA4E7;stroke-width:1.0417;"/><line style="stroke:#2FA4E7;stroke-width:3.125;stroke-dasharray:2.0833,2.0833;" x1="287.9323" x2="483.5114" y1="1082.7799" y2="1082.7799"/><text fill="#343A40" font-family="'Verdana'" font-size="12.5" lengthAdjust="spacing" textLength="130.542" x="305.6407" y="1072.5403">onBiometricUpdate()</text></g><g class="message" data-participant-1="web" data-participant-2="web"><line style="stroke:#2FA4E7;stroke-width:3.125;" x1="282.724" x2="326.474" y1="1122.3307" y2="1122.3307"/><line style="stroke:#2FA4E7;stroke-width:3.125;" x1="326.474" x2="326.474" y1="1122.3307" y2="1135.8724"/><line style="stroke:#2FA4E7;stroke-width:3.125;" x1="283.7657" x2="326.474" y1="1135.8724" y2="1135.8724"/><polygon fill="#2FA4E7" points="294.1823,1131.7057,283.7657,1135.8724,294.1823,1140.0391,290.0157,1135.8724" style="stroke:#2FA4E7;stroke-width:1.0417;"/><text fill="#343A40" font-family="'Verdana'" font-size="12.5" lengthAdjust="spacing" textLength="155.6946" x="295.224" y="1112.0911">Merge with desktop data</text></g><g class="message" data-participant-1="web" data-participant-2="dev"><polygon fill="#2FA4E7" points="83.1858,1171.2565,72.7692,1175.4232,83.1858,1179.5898,79.0192,1175.4232" style="stroke:#2FA4E7;stroke-width:1.0417;"/><line style="stroke:#2FA4E7;stroke-width:3.125;stroke-dasharray:2.0833,2.0833;" x1="76.9358" x2="281.6823" y1="1175.4232" y2="1175.4232"/><text fill="#343A40" font-family="'Verdana'" font-size="12.5" lengthAdjust="spacing" textLength="160.26" x="94.6442" y="1165.1835">Update Dashboard charts</text></g><path d="M379.1667,1200.4232 L379.1667,1255.6315 A4.1667,4.1667 0 0 0 383.3333,1259.7982 L583.3333,1259.7982 A4.1667,4.1667 0 0 0 587.5,1255.6315 L587.5,1206.6732 L577.0833,1196.2565 L383.3333,1196.2565 A4.1667,4.1667 0 0 0 379.1667,1200.4232" fill="none" style="stroke:#033C73;stroke-width:1.0417;"/><path d="M577.0833,1196.2565 L577.0833,1204.5898 A2.0833,2.0833 0 0 0 579.1667,1206.6732 L587.5,1206.6732 L577.0833,1196.2565" fill="none" style="stroke:#033C73;stroke-width:1.0417;"/><text fill="#033C73" font-family="'Verdana'" font-size="12.5" lengthAdjust="spacing" textLength="176.7029" x="390.625" y="1218.276">Data flows through Firebase</text><text fill="#033C73" font-family="'Verdana'" font-size="12.5" lengthAdjust="spacing" textLength="140.5273" x="390.625" y="1232.8267">Realtime Database for</text><text fill="#033C73" font-family="'Verdana'" font-size="12.5" lengthAdjust="spacing" textLength="102.9114" x="390.625" y="1247.3775">&lt;100ms latency</text><!--SRC=[TLFBRjim4BppAxOwsK0CfDUWBb3RQ96YRjC8XI- -KEBQOaqj2PAAOHJzYbxxTVsIBlLouYGdKTpXS6UMyoPMM2EKw1k3acQsYKOJ2X5rD0WhVDYWCJ23hzXuQM3XjTeZh6sXkPoVg1H2bj5wo1YBnZhqMvgiC1oYTTCCP0253y997tMfdQG8sGOBMCbG5LPwrKAEM0WbeonaGCW-QezfjQLxb2PgRd2rQ74-gk8fLz_9tUP32wZRtvTQwe1ZHzsl4FCvv1Y2jWHBZpAcnNmk606pzwalk86bqUK1iaz8w6L4-ABf0BdUapIPI116fiuOMYOEJBxqh9CceBzLKz42PYDdwCgtQY3ejiSxlj_3qYgsuAXZTObcU6hm1bOwE2DF0xgLqpkoj4HOFjBJx_FPpYG-_iqXZJDc2r-1vQMayOfwhFUIVrfDWzYnpqTwppIzp_p03gZWtzy_bwROWUWpSwAQJ2_a3jFEaGBFjvU8Ack5BxIjCNfTGXvv3BMcVP9kh7K96ZKrjWa2e7ukSIbTR3m7GTRiF-myVrz6hb5fUQSTWkJvdu9-ojYRuffGZVsi-6LFVcq9e4ZQxtc-Lt2IHrhQXk9LAZWRqlrvQJtNqfCFKTPkIx-dJF_Cff7wX-FOu2I1dhoZDNgEQVjsL9T5IFaQOAEZtVbp6g6iE5r182aXo7B9Fg3lSWUGXC3Es6E0M7dRx2iOiihLSrY79E-iv_rtRw-lwm26BwBobAWXCVy7]--></g></svg>