<svg xmlns="http://www.w3.org/2000/svg" xmlns:xlink="http://www.w3.org/1999/xlink" contentStyleType="text/css" data-diagram-type="SEQUENCE" height="1434.375px" preserveAspectRatio="none" style="width:1332px;height:1434px;" version="1.1" viewBox="0 0 1332 1434" width="1332.2917px" zoomAndPan="magnify"><title>DevWell - Biometric Analysis Sequence</title><defs/><g><rect fill="none" height="47.168" rx="4.1667" ry="4.1667" style="stroke:#BABDBF;stroke-width:1.0417;" width="481.8604" x="423.9065" y="20.8333"/><text fill="#2FA4E7" font-family="'Verdana'" font-size="20.8333" font-weight="bold" lengthAdjust="spacing" textLength="458.9437" x="435.3648" y="51.6296">DevWell - Biometric Analysis Sequence</text><rect fill="none" height="615.0391" rx="4.1667" ry="4.1667" style="stroke:#2FA4E7;stroke-width:1.0417;" width="1289.0483" x="20.8333" y="465.6901"/><rect fill="none" height="431.8685" rx="4.1667" ry="4.1667" style="stroke:#2FA4E7;stroke-width:1.0417;" width="1268.2149" x="31.25" y="641.569"/><rect fill="none" height="288.2487" rx="4.1667" ry="4.1667" style="stroke:#2FA4E7;stroke-width:1.0417;" width="1247.3816" x="41.6667" y="777.8971"/><g><title>Developer</title><rect fill="#000000" fill-opacity="0.00000" height="1157.3568" width="8.3333" x="88.3942" y="167.9688"/><line style="stroke:#BABDBF;stroke-width:1.0417;stroke-dasharray:5.2083,5.2083;" x1="91.6667" x2="91.6667" y1="167.9688" y2="1325.3255"/></g><g><title>React Frontend</title><rect fill="#000000" fill-opacity="0.00000" height="1157.3568" width="8.3333" x="283.2163" y="167.9688"/><line style="stroke:#BABDBF;stroke-width:1.0417;stroke-dasharray:5.2083,5.2083;" x1="287.2345" x2="287.2345" y1="167.9688" y2="1325.3255"/></g><g><title>CameraMonitor</title><rect fill="#000000" fill-opacity="0.00000" height="1157.3568" width="8.3333" x="502.2817" y="167.9688"/><line style="stroke:#BABDBF;stroke-width:1.0417;stroke-dasharray:5.2083,5.2083;" x1="506.0801" x2="506.0801" y1="167.9688" y2="1325.3255"/></g><g><title>MediaPipe</title><rect fill="#000000" fill-opacity="0.00000" height="1157.3568" width="8.3333" x="705.5959" y="167.9688"/><line style="stroke:#BABDBF;stroke-width:1.0417;stroke-dasharray:5.2083,5.2083;" x1="708.9233" x2="708.9233" y1="167.9688" y2="1325.3255"/></g><g><title>Gemini 3 API</title><rect fill="#000000" fill-opacity="0.00000" height="1157.3568" width="8.3333" x="907.311" y="167.9688"/><line style="stroke:#BABDBF;stroke-width:1.0417;stroke-dasharray:5.2083,5.2083;" x1="911.0128" x2="911.0128" y1="167.9688" y2="1325.3255"/></g><g><title>Firebase</title><rect fill="#000000" fill-opacity="0.00000" height="1157.3568" width="8.3333" x="1047.9675" y="167.9688"/><line style="stroke:#BABDBF;stroke-width:1.0417;stroke-dasharray:5.2083,5.2083;" x1="1051.5259" x2="1051.5259" y1="167.9688" y2="1325.3255"/></g><g><title>Toast</title><rect fill="#000000" fill-opacity="0.00000" height="1157.3568" width="8.3333" x="1184.4371" y="167.9688"/><line style="stroke:#BABDBF;stroke-width:1.0417;stroke-dasharray:5.2083,5.2083;" x1="1188.1592" x2="1188.1592" y1="167.9688" y2="1325.3255"/></g><g class="participant participant-head" data-participant="dev"><text fill="#2FA4E7" font-family="'Verdana'" font-size="12.5" lengthAdjust="spacing" textLength="64.2883" x="57.2917" y="159.8124">Developer</text><ellipse cx="92.5608" cy="88.8346" fill="none" rx="8.3333" ry="8.3333" style="stroke:#2FA4E7;stroke-width:1.0417;"/><path d="M92.5608,97.168 L92.5608,125.293 M79.0192,105.5013 L106.1025,105.5013 M92.5608,125.293 L79.0192,140.918 M92.5608,125.293 L106.1025,140.918" fill="none" style="stroke:#2FA4E7;stroke-width:1.0417;"/></g><g class="participant participant-tail" data-participant="dev"><text fill="#2FA4E7" font-family="'Verdana'" font-size="12.5" lengthAdjust="spacing" textLength="64.2883" x="57.2917" y="1341.095">Developer</text><ellipse cx="92.5608" cy="1358.6263" fill="none" rx="8.3333" ry="8.3333" style="stroke:#2FA4E7;stroke-width:1.0417;"/><path d="M92.5608,1366.9596 L92.5608,1395.0846 M79.0192,1375.293 L106.1025,1375.293 M92.5608,1395.0846 L79.0192,1410.7096 M92.5608,1395.0846 L106.1025,1410.7096" fill="none" style="stroke:#2FA4E7;stroke-width:1.0417;"/></g><g class="participant participant-head" data-participant="ui"><rect fill="none" height="39.5508" rx="4.1667" ry="4.1667" style="stroke:#2FA4E7;stroke-width:1.0417;" width="121.1304" x="226.8178" y="127.3763"/><text fill="#2FA4E7" font-family="'Verdana'" font-size="12.5" lengthAdjust="spacing" textLength="96.1304" x="239.3178" y="151.4791">React Frontend</text></g><g class="participant participant-tail" data-participant="ui"><rect fill="none" height="39.5508" rx="4.1667" ry="4.1667" style="stroke:#2FA4E7;stroke-width:1.0417;" width="121.1304" x="226.8178" y="1324.2839"/><text fill="#2FA4E7" font-family="'Verdana'" font-size="12.5" lengthAdjust="spacing" textLength="96.1304" x="239.3178" y="1348.3866">React Frontend</text></g><g class="participant participant-head" data-participant="cam"><rect fill="none" height="54.1016" rx="4.1667" ry="4.1667" style="stroke:#2FA4E7;stroke-width:1.0417;" width="121.5698" x="445.6635" y="112.8255"/><text fill="#2FA4E7" font-family="'Verdana'" font-size="12.5" lengthAdjust="spacing" textLength="96.5698" x="458.1635" y="136.9283">CameraMonitor</text><text fill="#2FA4E7" font-family="'Verdana'" font-size="12.5" lengthAdjust="spacing" textLength="72.5708" x="470.163" y="151.4791">Component</text></g><g class="participant participant-tail" data-participant="cam"><rect fill="none" height="54.1016" rx="4.1667" ry="4.1667" style="stroke:#2FA4E7;stroke-width:1.0417;" width="121.5698" x="445.6635" y="1324.2839"/><text fill="#2FA4E7" font-family="'Verdana'" font-size="12.5" lengthAdjust="spacing" textLength="96.5698" x="458.1635" y="1348.3866">CameraMonitor</text><text fill="#2FA4E7" font-family="'Verdana'" font-size="12.5" lengthAdjust="spacing" textLength="72.5708" x="470.163" y="1362.9374">Component</text></g><g class="participant participant-head" data-participant="mp"><rect fill="none" height="54.1016" rx="4.1667" ry="4.1667" style="stroke:#2FA4E7;stroke-width:1.0417;" width="89.1785" x="665.1733" y="112.8255"/><text fill="#2FA4E7" font-family="'Verdana'" font-size="12.5" lengthAdjust="spacing" textLength="64.1785" x="677.6733" y="136.9283">MediaPipe</text><text fill="#2FA4E7" font-family="'Verdana'" font-size="12.5" lengthAdjust="spacing" textLength="42.3706" x="688.5773" y="151.4791">(Local)</text></g><g class="participant participant-tail" data-participant="mp"><rect fill="none" height="54.1016" rx="4.1667" ry="4.1667" style="stroke:#2FA4E7;stroke-width:1.0417;" width="89.1785" x="665.1733" y="1324.2839"/><text fill="#2FA4E7" font-family="'Verdana'" font-size="12.5" lengthAdjust="spacing" textLength="64.1785" x="677.6733" y="1348.3866">MediaPipe</text><text fill="#2FA4E7" font-family="'Verdana'" font-size="12.5" lengthAdjust="spacing" textLength="42.3706" x="688.5773" y="1362.9374">(Local)</text></g><g class="participant participant-head" data-participant="gemini"><rect fill="none" height="39.5508" rx="4.1667" ry="4.1667" style="stroke:#2FA4E7;stroke-width:1.0417;" width="105.0964" x="858.9294" y="127.3763"/><text fill="#2FA4E7" font-family="'Verdana'" font-size="12.5" lengthAdjust="spacing" textLength="80.0964" x="871.4294" y="151.4791">Gemini 3 API</text></g><g class="participant participant-tail" data-participant="gemini"><rect fill="none" height="39.5508" rx="4.1667" ry="4.1667" style="stroke:#2FA4E7;stroke-width:1.0417;" width="105.0964" x="858.9294" y="1324.2839"/><text fill="#2FA4E7" font-family="'Verdana'" font-size="12.5" lengthAdjust="spacing" textLength="80.0964" x="871.4294" y="1348.3866">Gemini 3 API</text></g><g class="participant participant-head" data-participant="db"><text fill="#2FA4E7" font-family="'Verdana'" font-size="12.5" lengthAdjust="spacing" textLength="53.2898" x="1022.3643" y="145.2616">Firebase</text><text fill="#2FA4E7" font-family="'Verdana'" font-size="12.5" lengthAdjust="spacing" textLength="55.3833" x="1021.3175" y="159.8124">Firestore</text><path d="M1033.3842,90.9505 C1033.3842,80.5339 1052.1342,80.5339 1052.1342,80.5339 C1052.1342,80.5339 1070.8842,80.5339 1070.8842,90.9505 L1070.8842,118.0339 C1070.8842,128.4505 1052.1342,128.4505 1052.1342,128.4505 C1052.1342,128.4505 1033.3842,128.4505 1033.3842,118.0339 L1033.3842,90.9505" fill="none" style="stroke:#2FA4E7;stroke-width:1.0417;"/><path d="M1033.3842,90.9505 C1033.3842,101.3672 1052.1342,101.3672 1052.1342,101.3672 C1052.1342,101.3672 1070.8842,101.3672 1070.8842,90.9505" fill="none" style="stroke:#2FA4E7;stroke-width:1.0417;"/></g><g class="participant participant-tail" data-participant="db"><text fill="#2FA4E7" font-family="'Verdana'" font-size="12.5" lengthAdjust="spacing" textLength="53.2898" x="1022.3643" y="1341.095">Firebase</text><text fill="#2FA4E7" font-family="'Verdana'" font-size="12.5" lengthAdjust="spacing" textLength="55.3833" x="1021.3175" y="1355.6458">Firestore</text><path d="M1033.3842,1374.2188 C1033.3842,1363.8021 1052.1342,1363.8021 1052.1342,1363.8021 C1052.1342,1363.8021 1070.8842,1363.8021 1070.8842,1374.2188 L1070.8842,1401.3021 C1070.8842,1411.7188 1052.1342,1411.7188 1052.1342,1411.7188 C1052.1342,1411.7188 1033.3842,1411.7188 1033.3842,1401.3021 L1033.3842,1374.2188" fill="none" style="stroke:#2FA4E7;stroke-width:1.0417;"/><path d="M1033.3842,1374.2188 C1033.3842,1384.6354 1052.1342,1384.6354 1052.1342,1384.6354 C1052.1342,1384.6354 1070.8842,1384.6354 1070.8842,1374.2188" fill="none" style="stroke:#2FA4E7;stroke-width:1.0417;"/></g><g class="participant participant-head" data-participant="toast"><rect fill="none" height="54.1016" rx="4.1667" ry="4.1667" style="stroke:#2FA4E7;stroke-width:1.0417;" width="96.7224" x="1140.2425" y="112.8255"/><text fill="#2FA4E7" font-family="'Verdana'" font-size="12.5" lengthAdjust="spacing" textLength="34.3567" x="1171.4254" y="136.9283">Toast</text><text fill="#2FA4E7" font-family="'Verdana'" font-size="12.5" lengthAdjust="spacing" textLength="71.7224" x="1152.7425" y="151.4791">Notification</text></g><g class="participant participant-tail" data-participant="toast"><rect fill="none" height="54.1016" rx="4.1667" ry="4.1667" style="stroke:#2FA4E7;stroke-width:1.0417;" width="96.7224" x="1140.2425" y="1324.2839"/><text fill="#2FA4E7" font-family="'Verdana'" font-size="12.5" lengthAdjust="spacing" textLength="34.3567" x="1171.4254" y="1348.3866">Toast</text><text fill="#2FA4E7" font-family="'Verdana'" font-size="12.5" lengthAdjust="spacing" textLength="71.7224" x="1152.7425" y="1362.9374">Notification</text></g><rect fill="#F8F9FA" height="3.125" rx="4.1667" ry="4.1667" style="stroke:#F8F9FA;stroke-width:1.0417;" width="1309.8816" x="10.4167" y="204.4108"/><line style="stroke:#868E96;stroke-width:1.0417;" x1="10.4167" x2="1320.2983" y1="204.4108" y2="204.4108"/><line style="stroke:#868E96;stroke-width:1.0417;" x1="10.4167" x2="1320.2983" y1="207.5358" y2="207.5358"/><rect fill="#F8F9FA" height="33.3008" rx="4.1667" ry="4.1667" style="stroke:#868E96;stroke-width:2.0833;" width="117.9077" x="606.4036" y="188.8021"/><text fill="#343A40" font-family="'Verdana'" font-size="12.5" font-weight="bold" lengthAdjust="spacing" textLength="88.5559" x="617.8619" y="209.7799">Initialization</text><g class="message" data-participant-1="dev" data-participant-2="ui"><polygon fill="#2FA4E7" points="274.883,259.5703,285.2997,263.737,274.883,267.9036,279.0497,263.737" style="stroke:#2FA4E7;stroke-width:1.0417;"/><line style="stroke:#2FA4E7;stroke-width:3.125;" x1="92.5608" x2="281.133" y1="263.737" y2="263.737"/><text fill="#343A40" font-family="'Verdana'" font-size="12.5" lengthAdjust="spacing" textLength="111.908" x="134.0179" y="253.4973">Opens Dashboard</text></g><g class="message" data-participant-1="ui" data-participant-2="cam"><polygon fill="#2FA4E7" points="493.9484,299.1211,504.365,303.2878,493.9484,307.4544,498.115,303.2878" style="stroke:#2FA4E7;stroke-width:1.0417;"/><line style="stroke:#2FA4E7;stroke-width:3.125;" x1="287.383" x2="500.1984" y1="303.2878" y2="303.2878"/><text fill="#343A40" font-family="'Verdana'" font-size="12.5" lengthAdjust="spacing" textLength="139.7217" x="327.0549" y="293.0481">Mount CameraMonitor</text></g><g class="message" data-participant-1="cam" data-participant-2="cam"><line style="stroke:#2FA4E7;stroke-width:3.125;" x1="506.4484" x2="550.1984" y1="342.8385" y2="342.8385"/><line style="stroke:#2FA4E7;stroke-width:3.125;" x1="550.1984" x2="550.1984" y1="342.8385" y2="356.3802"/><line style="stroke:#2FA4E7;stroke-width:3.125;" x1="507.49" x2="550.1984" y1="356.3802" y2="356.3802"/><polygon fill="#2FA4E7" points="517.9067,352.2135,507.49,356.3802,517.9067,360.5469,513.74,356.3802" style="stroke:#2FA4E7;stroke-width:1.0417;"/><text fill="#343A40" font-family="'Verdana'" font-size="12.5" lengthAdjust="spacing" textLength="174.9634" x="518.9484" y="332.5989">Request camera permission</text></g><g class="message" data-participant-1="cam" data-participant-2="dev"><polygon fill="#2FA4E7" points="104.0192,391.7643,93.6025,395.931,104.0192,400.0977,99.8525,395.931" style="stroke:#2FA4E7;stroke-width:1.0417;"/><line style="stroke:#2FA4E7;stroke-width:3.125;stroke-dasharray:2.0833,2.0833;" x1="97.7692" x2="505.4067" y1="395.931" y2="395.931"/><text fill="#343A40" font-family="'Verdana'" font-size="12.5" lengthAdjust="spacing" textLength="115.8813" x="241.5639" y="385.6913">Display video feed</text></g><rect fill="#F8F9FA" height="3.125" rx="4.1667" ry="4.1667" style="stroke:#F8F9FA;stroke-width:1.0417;" width="1309.8816" x="10.4167" y="430.2897"/><line style="stroke:#868E96;stroke-width:1.0417;" x1="10.4167" x2="1320.2983" y1="430.2897" y2="430.2897"/><line style="stroke:#868E96;stroke-width:1.0417;" x1="10.4167" x2="1320.2983" y1="433.4147" y2="433.4147"/><rect fill="#F8F9FA" height="33.3008" rx="4.1667" ry="4.1667" style="stroke:#868E96;stroke-width:2.0833;" width="253.5217" x="538.5966" y="414.681"/><text fill="#343A40" font-family="'Verdana'" font-size="12.5" font-weight="bold" lengthAdjust="spacing" textLength="224.1699" x="550.0549" y="435.6588">Real-time Analysis Loop (30fps)</text><path d="M25,465.6901 L108.5327,465.6901 L108.5327,482.3242 L98.116,492.7409 L20.8333,492.7409 L20.8333,469.8568 A4.1667,4.1667 0 0 1 25,465.6901" fill="#E9ECEF" style="stroke:#868E96;stroke-width:1.0417;"/><rect fill="none" height="615.0391" rx="4.1667" ry="4.1667" style="stroke:#2FA4E7;stroke-width:1.0417;" width="1289.0483" x="20.8333" y="465.6901"/><text fill="#033C73" font-family="'Verdana'" font-size="12.5" font-weight="bold" lengthAdjust="spacing" textLength="30.4077" x="41.6667" y="483.5429">loop</text><text fill="#343A40" font-family="'Verdana'" font-size="12.5" font-weight="bold" lengthAdjust="spacing" textLength="93.1152" x="129.366" y="484.5846">[Every 33ms]</text><g class="message" data-participant-1="cam" data-participant-2="mp"><polygon fill="#2FA4E7" points="697.2626,529.1341,707.6792,533.3008,697.2626,537.4674,701.4292,533.3008" style="stroke:#2FA4E7;stroke-width:1.0417;"/><line style="stroke:#2FA4E7;stroke-width:3.125;" x1="506.4484" x2="703.5126" y1="533.3008" y2="533.3008"/><text fill="#343A40" font-family="'Verdana'" font-size="12.5" lengthAdjust="spacing" textLength="110.6384" x="552.7863" y="523.0611">Send video frame</text></g><g class="message" data-participant-1="mp" data-participant-2="mp"><line style="stroke:#2FA4E7;stroke-width:3.125;" x1="709.7626" x2="753.5126" y1="572.8516" y2="572.8516"/><line style="stroke:#2FA4E7;stroke-width:3.125;" x1="753.5126" x2="753.5126" y1="572.8516" y2="586.3932"/><line style="stroke:#2FA4E7;stroke-width:3.125;" x1="710.8042" x2="753.5126" y1="586.3932" y2="586.3932"/><polygon fill="#2FA4E7" points="721.2209,582.2266,710.8042,586.3932,721.2209,590.5599,717.0542,586.3932" style="stroke:#2FA4E7;stroke-width:1.0417;"/><text fill="#343A40" font-family="'Verdana'" font-size="12.5" lengthAdjust="spacing" textLength="176.7151" x="722.2626" y="562.6119">Detect 478 facial landmarks</text></g><g class="message" data-participant-1="mp" data-participant-2="cam"><polygon fill="#2FA4E7" points="517.9067,621.7773,507.49,625.944,517.9067,630.1107,513.74,625.944" style="stroke:#2FA4E7;stroke-width:1.0417;"/><line style="stroke:#2FA4E7;stroke-width:3.125;stroke-dasharray:2.0833,2.0833;" x1="511.6567" x2="708.7209" y1="625.944" y2="625.944"/><text fill="#343A40" font-family="'Verdana'" font-size="12.5" lengthAdjust="spacing" textLength="137.5671" x="539.3219" y="615.7043">Return landmark data</text></g><path d="M35.4167,641.569 L107.2367,641.569 L107.2367,658.2031 L96.8201,668.6198 L31.25,668.6198 L31.25,645.7357 A4.1667,4.1667 0 0 1 35.4167,641.569" fill="#E9ECEF" style="stroke:#868E96;stroke-width:1.0417;"/><rect fill="none" height="431.8685" rx="4.1667" ry="4.1667" style="stroke:#2FA4E7;stroke-width:1.0417;" width="1268.2149" x="31.25" y="641.569"/><text fill="#033C73" font-family="'Verdana'" font-size="12.5" font-weight="bold" lengthAdjust="spacing" textLength="18.6951" x="52.0833" y="659.4218">alt</text><text fill="#343A40" font-family="'Verdana'" font-size="12.5" font-weight="bold" lengthAdjust="spacing" textLength="194.397" x="128.0701" y="660.4635">[Fatigue markers detected]</text><g class="message" data-participant-1="cam" data-participant-2="cam"><line style="stroke:#2FA4E7;stroke-width:3.125;" x1="506.4484" x2="550.1984" y1="709.1797" y2="709.1797"/><line style="stroke:#2FA4E7;stroke-width:3.125;" x1="550.1984" x2="550.1984" y1="709.1797" y2="722.7214"/><line style="stroke:#2FA4E7;stroke-width:3.125;" x1="507.49" x2="550.1984" y1="722.7214" y2="722.7214"/><polygon fill="#2FA4E7" points="517.9067,718.5547,507.49,722.7214,517.9067,726.888,513.74,722.7214" style="stroke:#2FA4E7;stroke-width:1.0417;"/><text fill="#343A40" font-family="'Verdana'" font-size="12.5" lengthAdjust="spacing" textLength="178.3142" x="518.9484" y="698.94">Calculate fatigue score (1-9)</text></g><g class="message" data-participant-1="cam" data-participant-2="ui"><polygon fill="#2FA4E7" points="298.8413,758.1055,288.4247,762.2721,298.8413,766.4388,294.6747,762.2721" style="stroke:#2FA4E7;stroke-width:1.0417;"/><line style="stroke:#2FA4E7;stroke-width:3.125;" x1="292.5913" x2="505.4067" y1="762.2721" y2="762.2721"/><text fill="#343A40" font-family="'Verdana'" font-size="12.5" lengthAdjust="spacing" textLength="183.6487" x="305.0913" y="752.0325">Emit onFatigueUpdate(score)</text></g><path d="M45.8333,777.8971 L117.6534,777.8971 L117.6534,794.5313 L107.2367,804.9479 L41.6667,804.9479 L41.6667,782.0638 A4.1667,4.1667 0 0 1 45.8333,777.8971" fill="#E9ECEF" style="stroke:#868E96;stroke-width:1.0417;"/><rect fill="none" height="288.2487" rx="4.1667" ry="4.1667" style="stroke:#2FA4E7;stroke-width:1.0417;" width="1247.3816" x="41.6667" y="777.8971"/><text fill="#033C73" font-family="'Verdana'" font-size="12.5" font-weight="bold" lengthAdjust="spacing" textLength="18.6951" x="62.5" y="795.7499">alt</text><text fill="#343A40" font-family="'Verdana'" font-size="12.5" font-weight="bold" lengthAdjust="spacing" textLength="194.1345" x="138.4867" y="796.7916">[score &gt;= 7 (High Fatigue)]</text><g class="message" data-participant-1="ui" data-participant-2="gemini"><polygon fill="#2FA4E7" points="898.9777,855.8919,909.3943,860.0586,898.9777,864.2253,903.1443,860.0586" style="stroke:#2FA4E7;stroke-width:1.0417;"/><line style="stroke:#2FA4E7;stroke-width:3.125;" x1="287.383" x2="905.2277" y1="860.0586" y2="860.0586"/><text fill="#343A40" font-family="'Verdana'" font-size="12.5" lengthAdjust="spacing" textLength="199.9512" x="499.4548" y="835.2681">POST /v1/models/gemini-3-flash</text><text fill="#343A40" font-family="'Verdana'" font-size="12.5" lengthAdjust="spacing" textLength="270.6665" x="464.0971" y="849.8189">{image: frame, prompt: "Analyze fatigue"}</text></g><g class="message" data-participant-1="gemini" data-participant-2="ui"><polygon fill="#2FA4E7" points="298.8413,895.4427,288.4247,899.6094,298.8413,903.776,294.6747,899.6094" style="stroke:#2FA4E7;stroke-width:1.0417;"/><line style="stroke:#2FA4E7;stroke-width:3.125;stroke-dasharray:2.0833,2.0833;" x1="292.5913" x2="910.436" y1="899.6094" y2="899.6094"/><text fill="#343A40" font-family="'Verdana'" font-size="12.5" lengthAdjust="spacing" textLength="207.9041" x="495.4783" y="889.3697">{fatigueLevel, recommendation}</text></g><g class="message" data-participant-1="ui" data-participant-2="db"><polygon fill="#2FA4E7" points="1039.6342,934.9935,1050.0509,939.1602,1039.6342,943.3268,1043.8009,939.1602" style="stroke:#2FA4E7;stroke-width:1.0417;"/><line style="stroke:#2FA4E7;stroke-width:3.125;" x1="287.383" x2="1045.8842" y1="939.1602" y2="939.1602"/><text fill="#343A40" font-family="'Verdana'" font-size="12.5" lengthAdjust="spacing" textLength="151.4709" x="594.0231" y="928.9205">saveHealthEvent(event)</text></g><g class="message" data-participant-1="db" data-participant-2="ui"><polygon fill="#2FA4E7" points="298.8413,974.5443,288.4247,978.7109,298.8413,982.8776,294.6747,978.7109" style="stroke:#2FA4E7;stroke-width:1.0417;"/><line style="stroke:#2FA4E7;stroke-width:3.125;stroke-dasharray:2.0833,2.0833;" x1="292.5913" x2="1051.0925" y1="978.7109" y2="978.7109"/><text fill="#343A40" font-family="'Verdana'" font-size="12.5" lengthAdjust="spacing" textLength="47.2229" x="646.1472" y="968.4713">eventId</text></g><g class="message" data-participant-1="ui" data-participant-2="toast"><polygon fill="#2FA4E7" points="1176.1037,1014.0951,1186.5204,1018.2617,1176.1037,1022.4284,1180.2704,1018.2617" style="stroke:#2FA4E7;stroke-width:1.0417;"/><line style="stroke:#2FA4E7;stroke-width:3.125;" x1="287.383" x2="1182.3537" y1="1018.2617" y2="1018.2617"/><text fill="#343A40" font-family="'Verdana'" font-size="12.5" lengthAdjust="spacing" textLength="207.8857" x="634.0505" y="1008.0221">Show alert with recommendation</text></g><g class="message" data-participant-1="toast" data-participant-2="dev"><polygon fill="#2FA4E7" points="104.0192,1053.6458,93.6025,1057.8125,104.0192,1061.9792,99.8525,1057.8125" style="stroke:#2FA4E7;stroke-width:1.0417;"/><line style="stroke:#2FA4E7;stroke-width:3.125;stroke-dasharray:2.0833,2.0833;" x1="97.7692" x2="1187.5621" y1="1057.8125" y2="1057.8125"/><text fill="#343A40" font-family="'Verdana'" font-size="12.5" lengthAdjust="spacing" textLength="153.5156" x="563.8245" y="1047.5728">"Take a 5-minute break"</text></g><rect fill="#F8F9FA" height="3.125" rx="4.1667" ry="4.1667" style="stroke:#F8F9FA;stroke-width:1.0417;" width="1309.8816" x="10.4167" y="1114.0462"/><line style="stroke:#868E96;stroke-width:1.0417;" x1="10.4167" x2="1320.2983" y1="1114.0462" y2="1114.0462"/><line style="stroke:#868E96;stroke-width:1.0417;" x1="10.4167" x2="1320.2983" y1="1117.1712" y2="1117.1712"/><rect fill="#F8F9FA" height="33.3008" rx="4.1667" ry="4.1667" style="stroke:#868E96;stroke-width:2.0833;" width="207.9346" x="561.3902" y="1098.4375"/><text fill="#343A40" font-family="'Verdana'" font-size="12.5" font-weight="bold" lengthAdjust="spacing" textLength="178.5828" x="572.8485" y="1119.4153">Neural Oracle Interaction</text><g class="message" data-participant-1="dev" data-participant-2="ui"><polygon fill="#2FA4E7" points="274.883,1169.2057,285.2997,1173.3724,274.883,1177.5391,279.0497,1173.3724" style="stroke:#2FA4E7;stroke-width:1.0417;"/><line style="stroke:#2FA4E7;stroke-width:3.125;" x1="92.5608" x2="281.133" y1="1173.3724" y2="1173.3724"/><text fill="#343A40" font-family="'Verdana'" font-size="12.5" lengthAdjust="spacing" textLength="145.6848" x="117.1295" y="1163.1327">Click "Summon Oracle"</text></g><g class="message" data-participant-1="ui" data-participant-2="gemini"><polygon fill="#2FA4E7" points="898.9777,1223.3073,909.3943,1227.474,898.9777,1231.6406,903.1443,1227.474" style="stroke:#2FA4E7;stroke-width:1.0417;"/><line style="stroke:#2FA4E7;stroke-width:3.125;" x1="287.383" x2="905.2277" y1="1227.474" y2="1227.474"/><text fill="#343A40" font-family="'Verdana'" font-size="12.5" lengthAdjust="spacing" textLength="147.4731" x="525.6938" y="1202.6835">POST /generateContent</text><text fill="#343A40" font-family="'Verdana'" font-size="12.5" lengthAdjust="spacing" textLength="289.7278" x="454.5664" y="1217.2343">{context: healthHistory, query: userMessage}</text></g><g class="message" data-participant-1="gemini" data-participant-2="ui"><polygon fill="#2FA4E7" points="298.8413,1262.8581,288.4247,1267.0247,298.8413,1271.1914,294.6747,1267.0247" style="stroke:#2FA4E7;stroke-width:1.0417;"/><line style="stroke:#2FA4E7;stroke-width:3.125;stroke-dasharray:2.0833,2.0833;" x1="292.5913" x2="910.436" y1="1267.0247" y2="1267.0247"/><text fill="#343A40" font-family="'Verdana'" font-size="12.5" lengthAdjust="spacing" textLength="183.783" x="507.5389" y="1256.7851">AI-generated wellness advice</text></g><g class="message" data-participant-1="ui" data-participant-2="dev"><polygon fill="#2FA4E7" points="104.0192,1302.4089,93.6025,1306.5755,104.0192,1310.7422,99.8525,1306.5755" style="stroke:#2FA4E7;stroke-width:1.0417;"/><line style="stroke:#2FA4E7;stroke-width:3.125;stroke-dasharray:2.0833,2.0833;" x1="97.7692" x2="286.3413" y1="1306.5755" y2="1306.5755"/><text fill="#343A40" font-family="'Verdana'" font-size="12.5" lengthAdjust="spacing" textLength="159.4055" x="110.2692" y="1296.3359">Display in ChatbotWidget</text></g><!--SRC=[RPJRJjj048Rl_HHJNmK9YwAqQXifI3H0YSH9X8gRt4piIJBA7jpTTMX0l7jdrqvA459YsJlV_ZCxX_qKbgG9IdAD8ZI5RO9YGvbViQdHeGPFVneo9LsJzxYWKyKB8xm9vB8iS504PxH-9AMWW9ziDGN79PmQL1lF7YRT_Yp3CbWNOLAs9WVeeQ9r9cu2broZ2P3Var1muQpecogFJCFxo0WrERosXaLkQaPMrzP8F0akKU_JrrGntd5DKzExiYMgWyJfUX_xHPeDGnzExyO9MAI5hCA0C_G4-GKxYczJ4z-y-AO4LhDzfGUBFapDZGqyvn83MvEu4DUpR3Y4iKJEgFWv6M4up2GDK9p8IM40jpKP3sVebpEBhifaKKnoBh5TsqPSx2KWYvOTS1-JxKFy4WGaovgz5oyj9bnqDO0pzhN23Qov8WjpeYf59jbNHM1fY5tvhgojeTV_FA_zGGnLnU_pDRaDzFlQPm1T0BeMtOaKRIigpKDYblMjzOm2INM_VFiESomb1Q3GL1hTodVWcuE4nfcT7M8TX94VAkaFoToY8OWcSh6Deh0S0c0NJwipGbKs2WE9ntQFBwLoq3ikVXoynLFkppK7iAQJ_rsBL-gb3IsR7Z60LkHa2D-WTycBvJQY5WDeYzRsaEZUtKuUu6XzVAHjHSeVjOQYNyoLr7bgNbZBQ0tQd1r2xQIdmm3oL8NdNUpvQoVV2HVRk5ywu2hErY4uAgtMKehKOAzxCLKpuJskwL9g7PPIIHDw59_Rs8NO2IV3kDfJI8qSQxsqJv8CSW6UE2pVUUssjF3_niiVS4M0yBMG4pHIbfaZNEM9bgrP-up_s8ytr3Zfabk7fLmputZdoFNmmT2C59Sho2UDrc9i-Jpxi0eBCg8IQ9Ik69dKbpA-_PLyBrDABZaEz-OGP9JSPW2D9zTTVg_P-yoVZekjO0LFSWaQ8G6hDSkDr_078yS6HaiCCniUkLfG-0S0]--></g></svg>