<svg xmlns="http://www.w3.org/2000/svg" xmlns:xlink="http://www.w3.org/1999/xlink" contentStyleType="text/css" data-diagram-type="DESCRIPTION" height="848.9583px" preserveAspectRatio="none" style="width:1022px;height:848px;" version="1.1" viewBox="0 0 1022 848" width="1022.9167px" zoomAndPan="magnify"><title>DevWell - System Architecture</title><defs/><g><g class="title" data-source-line="4"><rect fill="none" height="47.168" rx="4.1667" ry="4.1667" style="stroke:#BABDBF;stroke-width:1.0417;" width="382.8512" x="315.3487" y="20.8333"/><text fill="#2FA4E7" font-family="'Verdana'" font-size="20.8333" font-weight="bold" lengthAdjust="spacing" textLength="359.9345" x="326.807" y="51.6296">DevWell - System Architecture</text></g><!--cluster Google Cloud--><g class="cluster" data-entity="Google Cloud" data-source-line="6" data-uid="ent0002" id="cluster_Google Cloud"><path d="M44.4267,552.1558 C59.5812,525.1061 81.8169,528.2078 97.6255,551.4641 C110.5217,531.1029 130.0886,528.1372 144.7138,549.5134 C162.4847,522.0902 181.0351,528.1068 197.5872,550.7992 C215.3556,524.6948 234.0708,519.1802 253.5434,549.097 C269.5627,519.0524 292.7971,518.8686 309.3167,548.6305 C326.9728,524.5247 351.9717,527.2443 363.8658,554.7235 C375.616,530.2225 398.673,533.541 410.6117,554.5299 C424.8051,531.5093 450.8954,526.2657 466.0336,553.4877 C483.8247,529.1562 507.4973,527.7774 523.968,554.9724 C536.6713,531.1731 561.5944,525.0529 577.0728,552.0725 C591.53,527.2015 611.8538,525.2698 628.2358,550.0906 C644.8826,524.4937 665.0398,522.3029 681.0367,550.7258 C698.6989,522.1807 717.5644,528.4401 734.1474,551.8296 C754.7683,522.9412 773.8713,525.0049 790.6319,555.5013 C791.3846,555.5194 791.7998,556.0299 791.4635,556.7648 C803.1488,561.3135 803.8588,569.9387 794.5291,577.5822 C805.768,584.3419 804.531,591.1652 796.0509,599.3063 C806.0056,605.7783 804.8706,613.8886 796.1107,620.4135 C804.241,633.0072 801.3535,647.0532 783.3402,647.168 C789.1851,645.4825 790.8918,648.9578 790.2722,653.9145 C771.8237,672.9292 753.3463,676.8049 739.5992,648.8432 C725.5681,681.6549 700.059,684.1255 679.9522,654.6626 C662.0597,681.3009 642.8891,675.8011 627.3281,652.2195 C614.8112,681.6852 591.8917,678.3875 573.5637,658.5575 C556.6597,681.4674 540.0137,684.1281 522.1212,659.6302 C505.766,682.6083 489.6488,689.7649 470.0744,662.9982 C453.354,684.5967 431.0601,692.2193 415.4148,661.8669 C400.5904,686.2994 375.8949,682.7248 364.1509,658.6139 C348.8477,681.5216 326.2522,681.5726 313.0893,656.3435 C297.0175,680.3989 278.1753,682.2117 260.2294,658.4136 C237.7042,688.7279 215.5054,679.4822 199.7679,651.3874 C189.7298,676.9537 166.0258,680.4701 151.4156,655.7868 C133.9672,684.368 106.3588,684.2933 91.4377,653.2447 C69.9711,675.7927 40.2368,669.7424 30.2152,639.8763 C30.7957,639.4811 31.1016,639.7576 31.2279,640.3446 C20.3336,636.1941 19.5454,627.454 29.2301,621.1604 C19.2474,615.1308 19.2809,608.5027 27.0106,600.5643 C17.3255,592.361 19.9868,582.8865 31.2092,578.6976 C16.6667,566.1676 20.7934,554.2834 37.5069,548.2096 C41.3806,546.3023 44.4756,547.1847 44.4267,552.1558" fill="none" style="stroke:#2FA4E7;stroke-width:1.0417;"/><text fill="#343A40" font-family="'Verdana'" font-size="12.5" font-weight="bold" lengthAdjust="spacing" textLength="93.3899" x="363.7286" y="570.2291">Google Cloud</text></g><!--cluster User Desktop--><g class="cluster" data-entity="User Desktop" data-source-line="14" data-uid="ent0008" id="cluster_User Desktop"><polygon fill="none" points="366.6735,96.1263,377.0902,85.7096,550.0069,85.7096,550.0069,455.5013,539.5902,465.918,366.6735,465.918,366.6735,96.1263" style="stroke:#2FA4E7;stroke-width:1.0417;"/><line style="stroke:#2FA4E7;stroke-width:1.0417;" x1="539.5902" x2="550.0069" y1="96.1263" y2="85.7096"/><line style="stroke:#2FA4E7;stroke-width:1.0417;" x1="366.6735" x2="539.5902" y1="96.1263" y2="96.1263"/><line style="stroke:#2FA4E7;stroke-width:1.0417;" x1="539.5902" x2="539.5902" y1="96.1263" y2="465.918"/><text fill="#343A40" font-family="'Verdana'" font-size="12.5" font-weight="bold" lengthAdjust="spacing" textLength="94.7021" x="406.8225" y="116.0624">User Desktop</text></g><!--cluster User Mobile (PWA)--><g class="cluster" data-entity="User Mobile .PWA." data-source-line="20" data-uid="ent0012" id="cluster_User Mobile .PWA."><polygon fill="none" points="779.1735,96.1263,789.5902,85.7096,1000.0069,85.7096,1000.0069,455.5013,989.5902,465.918,779.1735,465.918,779.1735,96.1263" style="stroke:#2FA4E7;stroke-width:1.0417;"/><line style="stroke:#2FA4E7;stroke-width:1.0417;" x1="989.5902" x2="1000.0069" y1="96.1263" y2="85.7096"/><line style="stroke:#2FA4E7;stroke-width:1.0417;" x1="779.1735" x2="989.5902" y1="96.1263" y2="96.1263"/><line style="stroke:#2FA4E7;stroke-width:1.0417;" x1="989.5902" x2="989.5902" y1="96.1263" y2="465.918"/><text fill="#343A40" font-family="'Verdana'" font-size="12.5" font-weight="bold" lengthAdjust="spacing" textLength="132.0068" x="819.4201" y="116.0624">User Mobile (PWA)</text></g><!--cluster Admin Dashboard--><g class="cluster" data-entity="Admin Dashboard" data-source-line="26" data-uid="ent0016" id="cluster_Admin Dashboard"><polygon fill="none" points="311.4652,725.293,321.8819,714.8763,526.0485,714.8763,526.0485,815.918,515.6319,826.3346,311.4652,826.3346,311.4652,725.293" style="stroke:#2FA4E7;stroke-width:1.0417;"/><line style="stroke:#2FA4E7;stroke-width:1.0417;" x1="515.6319" x2="526.0485" y1="725.293" y2="714.8763"/><line style="stroke:#2FA4E7;stroke-width:1.0417;" x1="311.4652" x2="515.6319" y1="725.293" y2="725.293"/><line style="stroke:#2FA4E7;stroke-width:1.0417;" x1="515.6319" x2="515.6319" y1="725.293" y2="826.3346"/><text fill="#343A40" font-family="'Verdana'" font-size="12.5" font-weight="bold" lengthAdjust="spacing" textLength="125.415" x="351.8827" y="745.2291">Admin Dashboard</text></g><!--entity gemini--><g class="entity" data-entity="gemini" data-source-line="7" data-uid="ent0003" id="entity_gemini"><rect fill="none" height="45.8008" rx="4.1667" ry="4.1667" style="stroke:#2FA4E7;stroke-width:1.0417;" width="148.0774" x="38.5485" y="588.3138"/><text fill="#2FA4E7" font-family="'Verdana'" font-size="12.5" lengthAdjust="spacing" textLength="116.8274" x="54.1735" y="615.5416">Gemini 3 Flash API</text></g><!--entity geminiPro--><g class="entity" data-entity="geminiPro" data-source-line="8" data-uid="ent0004" id="entity_geminiPro"><rect fill="none" height="45.8008" rx="4.1667" ry="4.1667" style="stroke:#2FA4E7;stroke-width:1.0417;" width="135.6445" x="222.9235" y="588.3138"/><text fill="#2FA4E7" font-family="'Verdana'" font-size="12.5" lengthAdjust="spacing" textLength="104.3945" x="238.5485" y="615.5416">Gemini 3 Pro API</text></g><!--entity auth--><g class="entity" data-entity="auth" data-source-line="9" data-uid="ent0005" id="entity_auth"><rect fill="none" height="45.8008" rx="4.1667" ry="4.1667" style="stroke:#2FA4E7;stroke-width:1.0417;" width="117.8101" x="395.3194" y="588.3138"/><text fill="#2FA4E7" font-family="'Verdana'" font-size="12.5" lengthAdjust="spacing" textLength="86.5601" x="410.9444" y="615.5416">Firebase Auth</text></g><!--entity firestore--><g class="entity" data-entity="firestore" data-source-line="10" data-uid="ent0006" id="entity_firestore"><path d="M549.486,594.043 C549.486,583.6263 592.8027,583.6263 592.8027,583.6263 C592.8027,583.6263 636.1193,583.6263 636.1193,594.043 L636.1193,628.3854 C636.1193,638.8021 592.8027,638.8021 592.8027,638.8021 C592.8027,638.8021 549.486,638.8021 549.486,628.3854 L549.486,594.043" fill="none" style="stroke:#2FA4E7;stroke-width:1.0417;"/><path d="M549.486,594.043 C549.486,604.4596 592.8027,604.4596 592.8027,604.4596 C592.8027,604.4596 636.1193,604.4596 636.1193,594.043" fill="none" style="stroke:#2FA4E7;stroke-width:1.0417;"/><text fill="#2FA4E7" font-family="'Verdana'" font-size="12.5" lengthAdjust="spacing" textLength="55.3833" x="565.111" y="625.4374">Firestore</text></g><!--entity rtdb--><g class="entity" data-entity="rtdb" data-source-line="11" data-uid="ent0007" id="entity_rtdb"><path d="M672.4027,594.043 C672.4027,583.6263 726.9895,583.6263 726.9895,583.6263 C726.9895,583.6263 781.5763,583.6263 781.5763,594.043 L781.5763,628.3854 C781.5763,638.8021 726.9895,638.8021 726.9895,638.8021 C726.9895,638.8021 672.4027,638.8021 672.4027,628.3854 L672.4027,594.043" fill="none" style="stroke:#2FA4E7;stroke-width:1.0417;"/><path d="M672.4027,594.043 C672.4027,604.4596 726.9895,604.4596 726.9895,604.4596 C726.9895,604.4596 781.5763,604.4596 781.5763,594.043" fill="none" style="stroke:#2FA4E7;stroke-width:1.0417;"/><text fill="#2FA4E7" font-family="'Verdana'" font-size="12.5" lengthAdjust="spacing" textLength="77.9236" x="688.0277" y="625.4374">Realtime DB</text></g><!--entity web--><g class="entity" data-entity="web" data-source-line="15" data-uid="ent0009" id="entity_web"><rect fill="none" height="45.8008" rx="4.1667" ry="4.1667" style="stroke:#2FA4E7;stroke-width:1.0417;" width="95.0562" x="386.986" y="403.418"/><text fill="#2FA4E7" font-family="'Verdana'" font-size="12.5" lengthAdjust="spacing" textLength="63.8062" x="402.611" y="430.6458">React SPA</text></g><!--entity mp--><g class="entity" data-entity="mp" data-source-line="16" data-uid="ent0010" id="entity_mp"><rect fill="none" height="45.8008" rx="4.1667" ry="4.1667" style="stroke:#2FA4E7;stroke-width:1.0417;" width="139.032" x="386.986" y="269.043"/><text fill="#2FA4E7" font-family="'Verdana'" font-size="12.5" lengthAdjust="spacing" textLength="107.782" x="402.611" y="296.2708">MediaPipe WASM</text></g><!--entity cam--><g class="entity" data-entity="cam" data-source-line="17" data-uid="ent0011" id="entity_cam"><rect fill="none" height="45.8008" rx="4.1667" ry="4.1667" style="stroke:#2FA4E7;stroke-width:1.0417;" width="112.262" x="386.4652" y="134.668"/><text fill="#2FA4E7" font-family="'Verdana'" font-size="12.5" lengthAdjust="spacing" textLength="81.012" x="402.0902" y="161.8958">Web Camera</text></g><!--entity pwa--><g class="entity" data-entity="pwa" data-source-line="21" data-uid="ent0013" id="entity_pwa"><rect fill="none" height="45.8008" rx="4.1667" ry="4.1667" style="stroke:#2FA4E7;stroke-width:1.0417;" width="99.4812" x="817.7152" y="403.418"/><text fill="#2FA4E7" font-family="'Verdana'" font-size="12.5" lengthAdjust="spacing" textLength="68.2312" x="833.3402" y="430.6458">React PWA</text></g><!--entity mpMobile--><g class="entity" data-entity="mpMobile" data-source-line="22" data-uid="ent0014" id="entity_mpMobile"><rect fill="none" height="45.8008" rx="4.1667" ry="4.1667" style="stroke:#2FA4E7;stroke-width:1.0417;" width="140.4053" x="818.236" y="269.043"/><text fill="#2FA4E7" font-family="'Verdana'" font-size="12.5" lengthAdjust="spacing" textLength="109.1553" x="833.861" y="296.2708">MediaPipe Mobile</text></g><!--entity phoneCam--><g class="entity" data-entity="phoneCam" data-source-line="23" data-uid="ent0015" id="entity_phoneCam"><rect fill="none" height="45.8008" rx="4.1667" ry="4.1667" style="stroke:#2FA4E7;stroke-width:1.0417;" width="122.998" x="817.7152" y="134.668"/><text fill="#2FA4E7" font-family="'Verdana'" font-size="12.5" lengthAdjust="spacing" textLength="91.748" x="833.3402" y="161.8958">Phone Camera</text></g><!--entity admin--><g class="entity" data-entity="admin" data-source-line="27" data-uid="ent0017" id="entity_admin"><rect fill="none" height="45.8008" rx="4.1667" ry="4.1667" style="stroke:#2FA4E7;stroke-width:1.0417;" width="121.9238" x="351.5694" y="763.8346"/><text fill="#2FA4E7" font-family="'Verdana'" font-size="12.5" lengthAdjust="spacing" textLength="90.6738" x="367.1944" y="791.0624">Analytics View</text></g><g class="entity" data-entity="GMN30" data-source-line="47" data-uid="ent0031" id="entity_GMN30"><path d="M646.8819,758.6263 L646.8819,814.7786 A4.1667,4.1667 0 0 0 651.0485,818.9453 L802.6436,818.9453 A4.1667,4.1667 0 0 0 806.8103,814.7786 L806.8103,764.8763 L796.3936,754.4596 L731.2569,754.4596 L727.0902,638.9909 L722.9235,754.4596 L651.0485,754.4596 A4.1667,4.1667 0 0 0 646.8819,758.6263" fill="none" style="stroke:#033C73;stroke-width:1.0417;"/><path d="M796.3936,754.4596 L796.3936,762.793 A2.0833,2.0833 0 0 0 798.4769,764.8763 L806.8103,764.8763 L796.3936,754.4596" fill="none" style="stroke:#033C73;stroke-width:1.0417;"/><text fill="#033C73" font-family="'Verdana'" font-size="12.5" font-weight="bold" lengthAdjust="spacing" textLength="97.4243" x="658.3402" y="776.4791">Neural Bridge</text><text fill="#033C73" font-family="'Verdana'" font-size="12.5" lengthAdjust="spacing" textLength="127.6367" x="658.3402" y="791.0299">&lt;50ms sync latency</text><text fill="#033C73" font-family="'Verdana'" font-size="12.5" lengthAdjust="spacing" textLength="105.5969" x="658.3402" y="805.5806">between devices</text></g><g class="entity" data-entity="GMN33" data-source-line="53" data-uid="ent0034" id="entity_GMN33"><path d="M35.9444,751.3346 L35.9444,822.0378 A4.1667,4.1667 0 0 0 40.111,826.2044 L184.9556,826.2044 A4.1667,4.1667 0 0 0 189.1223,822.0378 L189.1223,757.5846 L178.7056,747.168 L116.6735,747.168 L112.5069,634.2409 L108.3402,747.168 L40.111,747.168 A4.1667,4.1667 0 0 0 35.9444,751.3346" fill="none" style="stroke:#033C73;stroke-width:1.0417;"/><path d="M178.7056,747.168 L178.7056,755.5013 A2.0833,2.0833 0 0 0 180.7889,757.5846 L189.1223,757.5846 L178.7056,747.168" fill="none" style="stroke:#033C73;stroke-width:1.0417;"/><text fill="#033C73" font-family="'Verdana'" font-size="12.5" font-weight="bold" lengthAdjust="spacing" textLength="120.8862" x="47.4027" y="769.1874">Multimodal Input</text><text fill="#033C73" font-family="'Verdana'" font-size="12.5" lengthAdjust="spacing" textLength="95.1843" x="47.4027" y="783.7382">- Image frames</text><text fill="#033C73" font-family="'Verdana'" font-size="12.5" lengthAdjust="spacing" textLength="87.4146" x="47.4027" y="798.289">- Text context</text><text fill="#033C73" font-family="'Verdana'" font-size="12.5" lengthAdjust="spacing" textLength="96.4966" x="47.4027" y="812.8398">- Health history</text></g><!--link cam to mp--><g class="link" data-entity-1="cam" data-entity-2="mp" data-source-line="30" data-uid="lnk18" id="link_cam_mp"><path d="M444.986,180.7721 C447.486,205.1888 450.8372,238.034 453.3476,262.4819" fill="none" id="cam-to-mp" style="stroke:#2FA4E7;stroke-width:3.125;"/><polygon fill="#2FA4E7" points="453.986,268.6992,457.1733,258.9476,453.454,263.5181,448.8835,259.7989,453.986,268.6992" style="stroke:#2FA4E7;stroke-width:3.125;"/><text fill="#343A40" font-family="'Verdana'" font-size="12.5" lengthAdjust="spacing" textLength="82.8491" x="456.2569" y="229.6041">Video frames</text></g><!--link mp to web--><g class="link" data-entity-1="mp" data-entity-2="web" data-source-line="31" data-uid="lnk19" id="link_mp_web"><path d="M452.6006,315.1471 C448.559,339.5638 443.12,372.46 439.0784,396.9079" fill="none" id="mp-to-web" style="stroke:#2FA4E7;stroke-width:3.125;"/><polygon fill="#2FA4E7" points="438.059,403.0742,443.6989,394.5044,438.9085,397.9356,435.4772,393.1452,438.059,403.0742" style="stroke:#2FA4E7;stroke-width:3.125;"/><text fill="#343A40" font-family="'Verdana'" font-size="12.5" lengthAdjust="spacing" textLength="94.8242" x="453.1319" y="363.9791">Landmark data</text></g><!--link web to gemini--><g class="link" data-entity-1="web" data-entity-2="gemini" data-source-line="32" data-uid="lnk20" id="link_web_gemini"><path d="M386.6631,427.6263 C334.2777,430.1471 249.9027,441.0534 191.6735,482.5846 C154.5277,509.0742 133.406,553.1428 122.3435,582.0699" fill="none" id="web-to-gemini" style="stroke:#2FA4E7;stroke-width:3.125;"/><polygon fill="#2FA4E7" points="120.111,587.9076,127.3516,580.6394,121.9714,583.0428,119.568,577.6627,120.111,587.9076" style="stroke:#2FA4E7;stroke-width:3.125;"/><text fill="#343A40" font-family="'Verdana'" font-size="12.5" lengthAdjust="spacing" textLength="101.355" x="197.9235" y="507.7291">Fatigue analysis</text></g><!--link web to firestore--><g class="link" data-entity-1="web" data-entity-2="firestore" data-source-line="33" data-uid="lnk21" id="link_web_firestore"><path d="M481.9965,443.9492 C501.9131,452.8451 523.9965,465.543 539.5902,482.5846 C565.9965,511.4388 578.8122,549.2144 585.7289,577.2561" fill="none" id="web-to-firestore" style="stroke:#2FA4E7;stroke-width:3.125;"/><polygon fill="#2FA4E7" points="587.2256,583.3242,589.0259,573.2242,585.9783,578.2674,580.9351,575.2198,587.2256,583.3242" style="stroke:#2FA4E7;stroke-width:3.125;"/><text fill="#343A40" font-family="'Verdana'" font-size="12.5" lengthAdjust="spacing" textLength="87.1338" x="569.7985" y="507.7291">Health events</text></g><!--link web to auth--><g class="link" data-entity-1="web" data-entity-2="auth" data-source-line="34" data-uid="lnk22" id="link_web_auth"><path d="M432.8506,449.3971 C432.2152,459.5013 431.5694,471.6471 431.2569,482.5846 C430.7465,500.6367 428.934,505.3034 431.2569,523.2096 C434.1631,545.668 439.251,564.6244 444.7406,582.0202" fill="none" id="web-to-auth" style="stroke:#2FA4E7;stroke-width:3.125;"/><polygon fill="#2FA4E7" points="446.6215,587.9805,447.7737,577.7861,445.0541,583.0136,439.8266,580.294,446.6215,587.9805" style="stroke:#2FA4E7;stroke-width:3.125;"/><text fill="#343A40" font-family="'Verdana'" font-size="12.5" lengthAdjust="spacing" textLength="91.7603" x="437.5069" y="507.7291">Authentication</text></g><!--link phoneCam to mpMobile--><g class="link" data-entity-1="phoneCam" data-entity-2="mpMobile" data-source-line="36" data-uid="lnk23" id="link_phoneCam_mpMobile"><path d="M880.7465,180.7721 C882.4756,205.1888 884.8055,238.0169 886.5347,262.4648" fill="none" id="phoneCam-to-mpMobile" style="stroke:#2FA4E7;stroke-width:3.125;"/><polygon fill="#2FA4E7" points="886.9756,268.6992,890.4705,259.0536,886.6082,263.5039,882.1579,259.6415,886.9756,268.6992" style="stroke:#2FA4E7;stroke-width:3.125;"/><text fill="#343A40" font-family="'Verdana'" font-size="12.5" lengthAdjust="spacing" textLength="82.8491" x="890.6319" y="229.6041">Video frames</text></g><!--link mpMobile to pwa--><g class="link" data-entity-1="mpMobile" data-entity-2="pwa" data-source-line="37" data-uid="lnk24" id="link_mpMobile_pwa"><path d="M885.059,315.1471 C881.2152,339.5638 876.0297,372.4521 872.1859,396.9001" fill="none" id="mpMobile-to-pwa" style="stroke:#2FA4E7;stroke-width:3.125;"/><polygon fill="#2FA4E7" points="871.2152,403.0742,876.7874,394.4601,872.0241,397.9291,868.5552,393.1658,871.2152,403.0742" style="stroke:#2FA4E7;stroke-width:3.125;"/><text fill="#343A40" font-family="'Verdana'" font-size="12.5" lengthAdjust="spacing" textLength="94.8242" x="885.4235" y="363.9791">Landmark data</text></g><!--link pwa to rtdb--><g class="link" data-entity-1="pwa" data-entity-2="rtdb" data-source-line="38" data-uid="lnk25" id="link_pwa_rtdb"><path d="M861.5381,449.3763 C855.111,469.8034 843.6527,500.3971 827.0902,523.2096 C810.1944,546.4805 790.9079,563.9605 770.5225,579.648" fill="none" id="pwa-to-rtdb" style="stroke:#2FA4E7;stroke-width:3.125;"/><polygon fill="#2FA4E7" points="765.5694,583.4596,775.5402,581.0442,769.697,580.2832,770.458,574.44,765.5694,583.4596" style="stroke:#2FA4E7;stroke-width:3.125;"/><text fill="#343A40" font-family="'Verdana'" font-size="12.5" lengthAdjust="spacing" textLength="108.0017" x="855.2152" y="507.7291">Biometric stream</text></g><!--link rtdb to web--><g class="link" data-entity-1="rtdb" data-entity-2="web" data-source-line="39" data-uid="lnk26" id="link_rtdb_web"><path d="M722.5902,583.4805 C716.236,554.2826 701.7673,508.2409 670.8402,482.5846 C642.4548,459.0326 548.5711,442.7564 488.0815,434.2564" fill="none" id="rtdb-to-web" style="stroke:#2FA4E7;stroke-width:3.125;"/><polygon fill="#2FA4E7" points="481.8923,433.3867,490.5963,438.8174,487.05,434.1115,491.7559,430.5651,481.8923,433.3867" style="stroke:#2FA4E7;stroke-width:3.125;"/><text fill="#343A40" font-family="'Verdana'" font-size="12.5" lengthAdjust="spacing" textLength="92.9382" x="706.2569" y="507.7291">Real-time sync</text></g><!--link web to geminiPro--><g class="link" data-entity-1="web" data-entity-2="geminiPro" data-source-line="41" data-uid="lnk27" id="link_web_geminiPro"><path d="M386.6735,445.7513 C368.8923,454.5951 349.809,466.7826 336.4652,482.5846 C310.3506,513.5221 299.7232,554.3369 294.8482,581.8265" fill="none" id="web-to-geminiPro" style="stroke:#2FA4E7;stroke-width:3.125;"/><polygon fill="#2FA4E7" points="293.7569,587.9805,299.4965,579.4771,294.6663,582.8522,291.2912,578.0219,293.7569,587.9805" style="stroke:#2FA4E7;stroke-width:3.125;"/><text fill="#343A40" font-family="'Verdana'" font-size="12.5" lengthAdjust="spacing" textLength="72.0032" x="342.7152" y="500.4374">Oracle chat</text><text fill="#343A40" font-family="'Verdana'" font-size="12.5" lengthAdjust="spacing" textLength="67.8284" x="344.8026" y="514.9882">(Pro users)</text></g><!--link firestore to admin--><g class="link" data-entity-1="firestore" data-entity-2="admin" data-source-line="43" data-uid="lnk28" id="link_firestore_admin"><path d="M564.9548,638.9909 C529.4131,673.1992 472.9898,727.5012 439.9377,759.3033" fill="none" id="firestore-to-admin" style="stroke:#2FA4E7;stroke-width:3.125;"/><polygon fill="#2FA4E7" points="435.434,763.6367,445.0786,760.1391,439.1871,760.0255,439.3006,754.1341,435.434,763.6367" style="stroke:#2FA4E7;stroke-width:3.125;"/><text fill="#343A40" font-family="'Verdana'" font-size="12.5" lengthAdjust="spacing" textLength="105.4993" x="535.4235" y="690.0208">Aggregated data</text></g><!--link admin to geminiPro--><g class="link" data-entity-1="admin" data-entity-2="geminiPro" data-source-line="44" data-uid="lnk29" id="link_admin_geminiPro"><path d="M397.0069,763.6471 C373.5902,730.3242 333.0373,672.6257 309.6623,639.3549" fill="none" id="admin-to-geminiPro" style="stroke:#2FA4E7;stroke-width:3.125;"/><polygon fill="#2FA4E7" points="306.0694,634.2409,308.0494,644.3072,309.0635,638.5026,314.8681,639.5166,306.0694,634.2409" style="stroke:#2FA4E7;stroke-width:3.125;"/><text fill="#343A40" font-family="'Verdana'" font-size="12.5" lengthAdjust="spacing" textLength="107.3181" x="353.1319" y="690.0208">Generate reports</text></g><!--SRC=[PLHDRzD04BtlhnXoQYD5Ga9SAeJajcgeH20Yq1o0mtWziLUrTwtTSKE4-E_Ch9EqIK_9llTsljwitt137O6bEBI4VXO6RfqdanwTxp5Y1pPqVV3aUSMxbY2IPVHrIyQmOm5kwMbDRGipMEqIKmT5j8rZaGrHHBODGmMJUGXo1sxqD86_1k3dd3hd7Ro3knPJ0yNo_ZTWWZh39u9b36Uq8AguSv5AJ0J5m4scKVu8Ko5Z9YOgIHmYJPJU74udcc-4BJiPm-rrLaMkIlFF61ygONyaYj9bUkJGxqkN2vPXjInopYsL2YweShXqFS6wM2qoq_LAhAc46-meOWOjTcV15w5qCfoBvRguFCaWGBxIR_4qmtXZdsCyg63PY5ClS_KAtBnCM5GoFxYLYPS1uy6BmcExOsSJF3ZQZfDKeTwJUc4s-oY9u4heYW9iP34e6K6KaFw5-Oo-wZ0-vhaQnPGRxHBw3jdL0m5gfkJIKN6qH4IVr8W6w4dMxLcXdWgf7Wlkh4GAtfX3R_lYzaDyLU8ULv6CyLMXYYcddWjvxK9779s5n95aS1b_xb9NPPPt9UsyDMTzwg9UmTU8LZBQ1lcNlr1i49VJfJ7FlUQ-iXNIM5r7gf6f6aiQyVEeS_BYAkiBx4EKyOYXSYe3S-WWRCQj1PXElz0GiONhwAgQfbF1Fhn_swLSCRGImjkTW2NnbiX3HK_EogZ8Lw0XNmK-liZfT37eGmcLXB_t_S0v-WpkEwpfC785ljCVbY-7P_dDmDxPncdxksEk_m00]--></g></svg>