<svg xmlns="http://www.w3.org/2000/svg" xmlns:xlink="http://www.w3.org/1999/xlink" contentStyleType="text/css" data-diagram-type="DESCRIPTION" height="1177.0833px" preserveAspectRatio="none" style="width:2759px;height:1177px;" version="1.1" viewBox="0 0 2759 1177" width="2759.375px" zoomAndPan="magnify"><title>DevWell - Use Case Diagram</title><defs/><g><g class="title" data-source-line="5"><rect fill="none" height="47.168" rx="4.1667" ry="4.1667" style="stroke:#BABDBF;stroke-width:1.0417;" width="355.7414" x="1197.3836" y="20.8333"/><text fill="#2FA4E7" font-family="'Verdana'" font-size="20.8333" font-weight="bold" lengthAdjust="spacing" textLength="332.8247" x="1208.842" y="51.6296">DevWell - Use Case Diagram</text></g><!--cluster DevWell Platform--><g class="cluster" data-entity="DevWell Platform" data-source-line="18" data-uid="ent0007" id="cluster_DevWell Platform"><rect fill="none" height="251.0417" rx="4.1667" ry="4.1667" style="stroke:#2FA4E7;stroke-width:2.0833;" width="2519.7917" x="17.7083" y="376.3346"/><text fill="#2FA4E7" font-family="'Verdana'" font-size="12.5" font-weight="bold" lengthAdjust="spacing" textLength="123.2605" x="1215.9739" y="395.2291">DevWell Platform</text></g><!--entity UC1--><g class="entity" data-entity="UC1" data-source-line="19" data-uid="ent0008" id="entity_UC1"><ellipse cx="95.8744" cy="446.0121" fill="none" rx="61.4994" ry="16.5525" style="stroke:#2FA4E7;stroke-width:2.0833;"/><text fill="#2FA4E7" font-family="'Verdana'" font-size="12.5" lengthAdjust="spacing" textLength="98.1262" x="46.8113" y="449.6417">Register / Login</text></g><!--entity UC2--><g class="entity" data-entity="UC2" data-source-line="20" data-uid="ent0009" id="entity_UC2"><ellipse cx="931.4365" cy="445.9553" fill="none" rx="93.4157" ry="21.1831" style="stroke:#2FA4E7;stroke-width:2.0833;"/><text fill="#2FA4E7" font-family="'Verdana'" font-size="12.5" lengthAdjust="spacing" textLength="165.2771" x="848.798" y="449.5848">Start Biometric Monitoring</text></g><!--entity UC3--><g class="entity" data-entity="UC3" data-source-line="21" data-uid="ent0010" id="entity_UC3"><ellipse cx="1143.6862" cy="446.3219" fill="none" rx="82.2279" ry="18.9456" style="stroke:#2FA4E7;stroke-width:2.0833;"/><text fill="#2FA4E7" font-family="'Verdana'" font-size="12.5" lengthAdjust="spacing" textLength="140.4846" x="1073.4439" y="449.9514">Receive Fatigue Alerts</text></g><!--entity UC4--><g class="entity" data-entity="UC4" data-source-line="22" data-uid="ent0011" id="entity_UC4"><ellipse cx="1348.7837" cy="446.0914" fill="none" rx="86.2837" ry="19.7567" style="stroke:#2FA4E7;stroke-width:2.0833;"/><text fill="#2FA4E7" font-family="'Verdana'" font-size="12.5" lengthAdjust="spacing" textLength="149.5605" x="1274.0034" y="449.7209">Chat with Neural Oracle</text></g><!--entity UC5--><g class="entity" data-entity="UC5" data-source-line="23" data-uid="ent0012" id="entity_UC5"><ellipse cx="1563.5901" cy="446.136" fill="none" rx="91.7151" ry="20.843" style="stroke:#2FA4E7;stroke-width:2.0833;"/><text fill="#2FA4E7" font-family="'Verdana'" font-size="12.5" lengthAdjust="spacing" textLength="161.554" x="1482.8131" y="449.7655">View Wellness Dashboard</text></g><!--entity UC6--><g class="entity" data-entity="UC6" data-source-line="24" data-uid="ent0013" id="entity_UC6"><ellipse cx="2057.0831" cy="445.9804" fill="none" rx="93.5414" ry="21.2083" style="stroke:#2FA4E7;stroke-width:2.0833;"/><text fill="#2FA4E7" font-family="'Verdana'" font-size="12.5" lengthAdjust="spacing" textLength="165.5518" x="1974.3072" y="449.61">Configure Privacy Settings</text></g><!--entity UC7--><g class="entity" data-entity="UC7" data-source-line="25" data-uid="ent0014" id="entity_UC7"><ellipse cx="2261.2081" cy="446.0763" fill="none" rx="73.1873" ry="17.1375" style="stroke:#2FA4E7;stroke-width:2.0833;"/><text fill="#2FA4E7" font-family="'Verdana'" font-size="12.5" lengthAdjust="spacing" textLength="119.7571" x="2201.3296" y="449.7058">Export Health Data</text></g><!--entity UC8--><g class="entity" data-entity="UC8" data-source-line="26" data-uid="ent0015" id="entity_UC8"><ellipse cx="1809.2642" cy="446.1041" fill="none" rx="117.5975" ry="26.0195" style="stroke:#2FA4E7;stroke-width:2.0833;"/><text fill="#2FA4E7" font-family="'Verdana'" font-size="12.5" lengthAdjust="spacing" textLength="217.0776" x="1700.7254" y="449.7337">Link Mobile Sensor (Neural Bridge)</text></g><!--entity UC9--><g class="entity" data-entity="UC9" data-source-line="27" data-uid="ent0016" id="entity_UC9"><ellipse cx="2445.6793" cy="446.3038" fill="none" rx="74.3252" ry="17.365" style="stroke:#2FA4E7;stroke-width:2.0833;"/><text fill="#2FA4E7" font-family="'Verdana'" font-size="12.5" lengthAdjust="spacing" textLength="122.4121" x="2384.4733" y="449.9334">Upgrade to Zen Pro</text></g><!--entity UC10--><g class="entity" data-entity="UC10" data-source-line="28" data-uid="ent0017" id="entity_UC10"><ellipse cx="926.1094" cy="588.9524" fill="none" rx="92.2552" ry="20.951" style="stroke:#2FA4E7;stroke-width:2.0833;"/><text fill="#2FA4E7" font-family="'Verdana'" font-size="12.5" lengthAdjust="spacing" textLength="162.738" x="844.7404" y="592.5819">Analyze Facial Landmarks</text></g><!--entity UC11--><g class="entity" data-entity="UC11" data-source-line="29" data-uid="ent0018" id="entity_UC11"><ellipse cx="1131.1829" cy="588.9254" fill="none" rx="76.4954" ry="17.7991" style="stroke:#2FA4E7;stroke-width:2.0833;"/><text fill="#2FA4E7" font-family="'Verdana'" font-size="12.5" lengthAdjust="spacing" textLength="127.4353" x="1067.4653" y="592.5549">Predict Burnout Risk</text></g><!--entity UC12--><g class="entity" data-entity="UC12" data-source-line="30" data-uid="ent0019" id="entity_UC12"><ellipse cx="1340.7531" cy="588.6519" fill="none" rx="95.9614" ry="21.6923" style="stroke:#2FA4E7;stroke-width:2.0833;"/><text fill="#2FA4E7" font-family="'Verdana'" font-size="12.5" lengthAdjust="spacing" textLength="170.8252" x="1255.3405" y="592.2815">Generate Wellness Insights</text></g><!--entity UC13--><g class="entity" data-entity="UC13" data-source-line="31" data-uid="ent0020" id="entity_UC13"><ellipse cx="286.501" cy="446.239" fill="none" rx="92.2302" ry="20.946" style="stroke:#2FA4E7;stroke-width:2.0833;"/><text fill="#2FA4E7" font-family="'Verdana'" font-size="12.5" lengthAdjust="spacing" textLength="162.6831" x="205.1594" y="449.8686">View Analytics Dashboard</text></g><!--entity UC14--><g class="entity" data-entity="UC14" data-source-line="32" data-uid="ent0021" id="entity_UC14"><ellipse cx="499.0258" cy="446.0356" fill="none" rx="83.4008" ry="19.1802" style="stroke:#2FA4E7;stroke-width:2.0833;"/><text fill="#2FA4E7" font-family="'Verdana'" font-size="12.5" lengthAdjust="spacing" textLength="143.1213" x="427.4652" y="449.6652">Monitor System Health</text></g><!--entity UC15--><g class="entity" data-entity="UC15" data-source-line="33" data-uid="ent0022" id="entity_UC15"><ellipse cx="710.3825" cy="446.0153" fill="none" rx="91.1117" ry="20.7223" style="stroke:#2FA4E7;stroke-width:2.0833;"/><text fill="#2FA4E7" font-family="'Verdana'" font-size="12.5" lengthAdjust="spacing" textLength="160.2295" x="630.2678" y="449.6449">Review Anonymized Data</text></g><!--entity dev--><g class="entity" data-entity="dev" data-source-line="10" data-uid="ent0002" id="entity_dev"><ellipse cx="1001.9358" cy="102.3763" fill="none" rx="16.6667" ry="16.6667" style="stroke:#2FA4E7;stroke-width:1.0417;"/><path d="M1001.9358,123.2096 C1006.1025,123.2096 1009.2275,123.2096 1013.3942,119.043 C1021.7275,119.043 1030.0608,127.3763 1030.0608,135.7096 L1030.0608,139.8763 C1030.0608,144.043 1025.8942,148.2096 1021.7275,148.2096 L982.1442,148.2096 C977.9775,148.2096 973.8108,144.043 973.8108,139.8763 L973.8108,135.7096 C973.8108,127.3763 982.1442,119.043 990.4775,119.043 C994.6442,123.2096 997.7692,123.2096 1001.9358,123.2096" fill="none" style="stroke:#2FA4E7;stroke-width:1.0417;"/><text fill="#2FA4E7" font-family="'Verdana'" font-size="12.5" lengthAdjust="spacing" textLength="64.2883" x="969.7917" y="166.0624">Developer</text></g><!--entity admin--><g class="entity" data-entity="admin" data-source-line="11" data-uid="ent0003" id="entity_admin"><ellipse cx="695.8333" cy="255.5013" fill="none" rx="16.6667" ry="16.6667" style="stroke:#2FA4E7;stroke-width:1.0417;"/><path d="M695.8333,276.3346 C700,276.3346 703.125,276.3346 707.2917,272.168 C715.625,272.168 723.9583,280.5013 723.9583,288.8346 L723.9583,293.0013 C723.9583,297.168 719.7917,301.3346 715.625,301.3346 L676.0417,301.3346 C671.875,301.3346 667.7083,297.168 667.7083,293.0013 L667.7083,288.8346 C667.7083,280.5013 676.0417,272.168 684.375,272.168 C688.5417,276.3346 691.6667,276.3346 695.8333,276.3346" fill="none" style="stroke:#2FA4E7;stroke-width:1.0417;"/><text fill="#2FA4E7" font-family="'Verdana'" font-size="12.5" lengthAdjust="spacing" textLength="40.0574" x="675.8046" y="319.1874">Admin</text></g><!--entity gemini--><g class="entity" data-entity="gemini" data-source-line="14" data-uid="ent0004" id="entity_gemini"><ellipse cx="1150.9857" cy="744.0104" fill="none" rx="16.6667" ry="16.6667" style="stroke:#2FA4E7;stroke-width:1.0417;"/><path d="M1150.9857,764.8438 C1155.1524,764.8438 1158.2774,764.8438 1162.4441,760.6771 C1170.7774,760.6771 1179.1107,769.0104 1179.1107,777.3438 L1179.1107,781.5104 C1179.1107,785.6771 1174.9441,789.8438 1170.7774,789.8438 L1131.1941,789.8438 C1127.0274,789.8438 1122.8607,785.6771 1122.8607,781.5104 L1122.8607,777.3438 C1122.8607,769.0104 1131.1941,760.6771 1139.5274,760.6771 C1143.6941,764.8438 1146.8191,764.8438 1150.9857,764.8438" fill="none" style="stroke:#2FA4E7;stroke-width:1.0417;"/><text fill="#2FA4E7" font-family="'Verdana'" font-size="12.5" lengthAdjust="spacing" textLength="80.0964" x="1110.9375" y="807.6965">Gemini 3 API</text><text fill="#2FA4E7" font-family="'Verdana'" font-size="12.5" font-style="italic" lengthAdjust="spacing" textLength="60.6201" x="1120.6757" y="718.1458">«system»</text></g><!--entity firebase--><g class="entity" data-entity="firebase" data-source-line="15" data-uid="ent0005" id="entity_firebase"><ellipse cx="1491.7684" cy="922.1354" fill="none" rx="16.6667" ry="16.6667" style="stroke:#2FA4E7;stroke-width:1.0417;"/><path d="M1491.7684,942.9688 C1495.9351,942.9688 1499.0601,942.9688 1503.2267,938.8021 C1511.5601,938.8021 1519.8934,947.1354 1519.8934,955.4688 L1519.8934,959.6354 C1519.8934,963.8021 1515.7267,967.9688 1511.5601,967.9688 L1471.9767,967.9688 C1467.8101,967.9688 1463.6434,963.8021 1463.6434,959.6354 L1463.6434,955.4688 C1463.6434,947.1354 1471.9767,938.8021 1480.3101,938.8021 C1484.4767,942.9688 1487.6017,942.9688 1491.7684,942.9688" fill="none" style="stroke:#2FA4E7;stroke-width:1.0417;"/><text fill="#2FA4E7" font-family="'Verdana'" font-size="12.5" lengthAdjust="spacing" textLength="53.2898" x="1465.1235" y="985.8215">Firebase</text><text fill="#2FA4E7" font-family="'Verdana'" font-size="12.5" font-style="italic" lengthAdjust="spacing" textLength="60.6201" x="1461.4583" y="896.2708">«system»</text></g><!--entity mobile--><g class="entity" data-entity="mobile" data-source-line="16" data-uid="ent0006" id="entity_mobile"><ellipse cx="1657.0943" cy="1100.2604" fill="none" rx="16.6667" ry="16.6667" style="stroke:#2FA4E7;stroke-width:1.0417;"/><path d="M1657.0943,1121.0938 C1661.261,1121.0938 1664.386,1121.0938 1668.5527,1116.9271 C1676.886,1116.9271 1685.2193,1125.2604 1685.2193,1133.5938 L1685.2193,1137.7604 C1685.2193,1141.9271 1681.0527,1146.0938 1676.886,1146.0938 L1637.3027,1146.0938 C1633.136,1146.0938 1628.9693,1141.9271 1628.9693,1137.7604 L1628.9693,1133.5938 C1628.9693,1125.2604 1637.3027,1116.9271 1645.636,1116.9271 C1649.8027,1121.0938 1652.9277,1121.0938 1657.0943,1121.0938" fill="none" style="stroke:#2FA4E7;stroke-width:1.0417;"/><text fill="#2FA4E7" font-family="'Verdana'" font-size="12.5" lengthAdjust="spacing" textLength="69.397" x="1622.3958" y="1163.9465">Mobile App</text><text fill="#2FA4E7" font-family="'Verdana'" font-size="12.5" font-style="italic" lengthAdjust="spacing" textLength="56.488" x="1628.8503" y="1074.3958">«device»</text></g><g class="entity" data-entity="GMN52" data-source-line="81" data-uid="ent0053" id="entity_GMN52"><path d="M2557.2917,418.0013 L2557.2917,474.1536 A4.1667,4.1667 0 0 0 2561.4583,478.3203 L2743.217,478.3203 A4.1667,4.1667 0 0 0 2747.3836,474.1536 L2747.3836,424.2513 L2736.967,413.8346 L2561.4583,413.8346 A4.1667,4.1667 0 0 0 2557.2917,418.0013" fill="none" style="stroke:#033C73;stroke-width:1.0417;"/><path d="M2736.967,413.8346 L2736.967,422.168 A2.0833,2.0833 0 0 0 2739.0503,424.2513 L2747.3836,424.2513 L2736.967,413.8346" fill="none" style="stroke:#033C73;stroke-width:1.0417;"/><text fill="#033C73" font-family="'Verdana'" font-size="12.5" font-weight="bold" lengthAdjust="spacing" textLength="75.3662" x="2568.75" y="435.8541">Innovation</text><text fill="#033C73" font-family="'Verdana'" font-size="12.5" lengthAdjust="spacing" textLength="82.4341" x="2644.1162" y="435.8541">: Dual-device</text><text fill="#033C73" font-family="'Verdana'" font-size="12.5" lengthAdjust="spacing" textLength="133.905" x="2568.75" y="450.4049">biometric capture via</text><text fill="#033C73" font-family="'Verdana'" font-size="12.5" lengthAdjust="spacing" textLength="135.1868" x="2568.75" y="464.9556">Firebase Realtime DB</text></g><!--link dev to admin--><!--link gemini to firebase--><!--link firebase to mobile--><!--link dev to UC1--><!--link dev to UC1--><g class="link" data-entity-1="dev" data-entity-2="UC1" data-source-line="53" data-uid="lnk31" id="link_dev_UC1"><path d="M964.2188,135.8971 C843.6771,152.668 464.6875,212.4805 194.7917,368.0013 C166.1771,384.4909 144.7027,409.2283 124.8902,426.5721" fill="none" id="dev-to-UC1-1" style="stroke:#2FA4E7;stroke-width:3.125;"/><polygon fill="#2FA4E7" points="120.1875,430.6888,129.986,427.6489,124.1064,427.2582,124.4971,421.3786,120.1875,430.6888" style="stroke:#2FA4E7;stroke-width:3.125;"/></g><!--link admin to UC13--><!--link admin to UC13--><g class="link" data-entity-1="admin" data-entity-2="UC13" data-source-line="63" data-uid="lnk40" id="link_admin_UC13"><path d="M686.6979,327.5117 C677.5208,340.168 664.8125,352.4909 650,359.668 C626.6563,370.9805 441.2917,359.8346 416.6667,368.0013 C380.4896,380.0013 350.5145,404.0005 324.9207,422.7089" fill="none" id="admin-to-UC13-1" style="stroke:#2FA4E7;stroke-width:3.125;"/><polygon fill="#2FA4E7" points="319.875,426.3971,329.9024,424.2285,324.0798,423.3236,324.9847,417.5009,319.875,426.3971" style="stroke:#2FA4E7;stroke-width:3.125;"/></g><!--link UC10 to gemini--><!--link UC10 to gemini--><g class="link" data-entity-1="UC10" data-entity-2="gemini" data-source-line="73" data-uid="lnk46" id="link_UC10_gemini"><path d="M943.0313,609.3555 C958.5104,626.4805 982.5313,651.5013 1006.25,670.0846 C1037.4688,694.5326 1070.549,714.5124 1100.0281,730.7832" fill="none" id="UC10-to-gemini-1" style="stroke:#2FA4E7;stroke-width:3.125;"/><polygon fill="#2FA4E7" points="1105.5,733.8034,1099.3057,725.6253,1100.9401,731.2866,1095.2788,732.9211,1105.5,733.8034" style="stroke:#2FA4E7;stroke-width:3.125;"/><text fill="#343A40" font-family="'Verdana'" font-size="12.5" lengthAdjust="spacing" textLength="110.9985" x="1012.5" y="661.8958">Multimodal Vision</text></g><!--link UC1 to firebase--><!--link UC1 to firebase--><g class="link" data-entity-1="UC1" data-entity-2="firebase" data-source-line="76" data-uid="lnk49" id="link_UC1_firebase"><path d="M128.5,460.2513 C252.4792,509.7409 706.2708,688.9909 1087.5,815.918 C1221.8646,860.6471 1377.9946,904.5418 1449.1613,924.1147" fill="none" id="UC1-to-firebase-1" style="stroke:#2FA4E7;stroke-width:3.125;"/><polygon fill="#2FA4E7" points="1455.1875,925.7721,1447.2531,919.2686,1450.1656,924.391,1445.0432,927.3035,1455.1875,925.7721" style="stroke:#2FA4E7;stroke-width:3.125;"/><text fill="#343A40" font-family="'Verdana'" font-size="12.5" lengthAdjust="spacing" textLength="29.2969" x="677.0833" y="661.8958">Auth</text></g><!--link UC8 to mobile--><!--link UC8 to mobile--><g class="link" data-entity-1="UC8" data-entity-2="mobile" data-source-line="78" data-uid="lnk51" id="link_UC8_mobile"><path d="M1757.0417,469.5326 C1713.0417,492.2617 1657.2917,532.0534 1657.2917,587.793 C1657.2917,587.793 1657.2917,587.793 1657.2917,937.793 C1657.2917,977.8346 1657.2917,1016.7409 1657.2917,1051.293" fill="none" id="UC8-to-mobile-1" style="stroke:#2FA4E7;stroke-width:3.125;"/><polygon fill="#2FA4E7" points="1657.2917,1057.543,1661.4583,1048.168,1657.2917,1052.3346,1653.125,1048.168,1657.2917,1057.543" style="stroke:#2FA4E7;stroke-width:3.125;"/><text fill="#343A40" font-family="'Verdana'" font-size="12.5" lengthAdjust="spacing" textLength="94.3604" x="1663.5417" y="763.4583">Real-time Sync</text></g><!--link dev to UC2--><g class="link" data-entity-1="dev" data-entity-2="UC2" data-source-line="54" data-uid="lnk32" id="link_dev_UC2"><path d="M992.1563,174.5742 C976.625,243.5638 948.5392,368.2789 937.2163,418.581" fill="none" id="dev-to-UC2" style="stroke:#2FA4E7;stroke-width:3.125;"/><polygon fill="#2FA4E7" points="935.8438,424.6784,941.9675,416.4473,936.9875,419.5972,933.8376,414.6172,935.8438,424.6784" style="stroke:#2FA4E7;stroke-width:3.125;"/></g><!--link dev to UC3--><g class="link" data-entity-1="dev" data-entity-2="UC3" data-source-line="55" data-uid="lnk33" id="link_dev_UC3"><path d="M1021.9271,174.5742 C1053.5313,244.7513 1111.3713,373.1878 1133.1213,421.4899" fill="none" id="dev-to-UC3" style="stroke:#2FA4E7;stroke-width:3.125;"/><polygon fill="#2FA4E7" points="1135.6875,427.1888,1135.6375,416.9297,1133.549,422.4397,1128.039,420.3512,1135.6875,427.1888" style="stroke:#2FA4E7;stroke-width:3.125;"/></g><!--link dev to UC4--><g class="link" data-entity-1="dev" data-entity-2="UC4" data-source-line="56" data-uid="lnk34" id="link_dev_UC4"><path d="M1039.8646,164.7617 C1113.0833,231.168 1267.4435,371.1565 1323.9123,422.3752" fill="none" id="dev-to-UC4" style="stroke:#2FA4E7;stroke-width:3.125;"/><polygon fill="#2FA4E7" points="1328.5417,426.5742,1324.3969,417.1895,1324.6839,423.0751,1318.7983,423.362,1328.5417,426.5742" style="stroke:#2FA4E7;stroke-width:3.125;"/></g><!--link dev to UC5--><g class="link" data-entity-1="dev" data-entity-2="UC5" data-source-line="57" data-uid="lnk35" id="link_dev_UC5"><path d="M1039.6042,148.1576 C1118.25,185.5951 1305.3438,277.0013 1454.1667,368.0013 C1484.0938,386.3034 1511.7588,406.1008 1533.5296,422.3195" fill="none" id="dev-to-UC5" style="stroke:#2FA4E7;stroke-width:3.125;"/><polygon fill="#2FA4E7" points="1538.5417,426.0534,1533.5128,417.1112,1534.3649,422.9418,1528.5343,423.794,1538.5417,426.0534" style="stroke:#2FA4E7;stroke-width:3.125;"/></g><!--link dev to UC6--><g class="link" data-entity-1="dev" data-entity-2="UC6" data-source-line="58" data-uid="lnk36" id="link_dev_UC6"><path d="M1039.6667,135.043 C1170.1042,151.8138 1613.4792,217.2617 1945.8333,368.0013 C1978.8333,382.9701 2007.5974,403.8956 2029.1599,421.3227" fill="none" id="dev-to-UC6" style="stroke:#2FA4E7;stroke-width:3.125;"/><polygon fill="#2FA4E7" points="2034.0208,425.2513,2029.3486,416.1177,2029.9701,421.9774,2024.1104,422.5989,2034.0208,425.2513" style="stroke:#2FA4E7;stroke-width:3.125;"/></g><!--link dev to UC7--><g class="link" data-entity-1="dev" data-entity-2="UC7" data-source-line="59" data-uid="lnk37" id="link_dev_UC7"><path d="M1040.0625,130.4492 C1192.125,131.7513 1768.2813,151.4805 2169.7917,368.0013 C2200.1771,384.3867 2225.323,407.465 2242.323,424.8087" fill="none" id="dev-to-UC7" style="stroke:#2FA4E7;stroke-width:3.125;"/><polygon fill="#2FA4E7" points="2246.6979,429.2721,2243.1111,419.6604,2243.0521,425.5526,2237.1599,425.4936,2246.6979,429.2721" style="stroke:#2FA4E7;stroke-width:3.125;"/></g><!--link dev to UC8--><g class="link" data-entity-1="dev" data-entity-2="UC8" data-source-line="60" data-uid="lnk38" id="link_dev_UC8"><path d="M1039.7708,141.2513 C1143.3646,171.3242 1440.1875,261.1784 1673.9583,368.0013 C1708.1563,383.6263 1739.812,401.7539 1766.4683,418.0352" fill="none" id="dev-to-UC8" style="stroke:#2FA4E7;stroke-width:3.125;"/><polygon fill="#2FA4E7" points="1771.8021,421.293,1765.9733,412.8504,1767.3573,418.5781,1761.6295,419.9621,1771.8021,421.293" style="stroke:#2FA4E7;stroke-width:3.125;"/></g><!--link dev to UC9--><g class="link" data-entity-1="dev" data-entity-2="UC9" data-source-line="61" data-uid="lnk39" id="link_dev_UC9"><path d="M1039.8542,131.1576 C1172.1563,134.1784 1626.3333,150.6888 1988.5417,237.793 C2155.8333,278.0221 2203.6667,282.7617 2353.125,368.0013 C2383.125,385.1159 2408.5055,407.8136 2425.9326,424.897" fill="none" id="dev-to-UC9" style="stroke:#2FA4E7;stroke-width:3.125;"/><polygon fill="#2FA4E7" points="2430.3958,429.2721,2426.6178,419.7339,2426.6765,425.6262,2420.7842,425.6848,2430.3958,429.2721" style="stroke:#2FA4E7;stroke-width:3.125;"/></g><!--link admin to UC14--><g class="link" data-entity-1="admin" data-entity-2="UC14" data-source-line="64" data-uid="lnk41" id="link_admin_UC14"><path d="M716.0313,327.6992 C718.3021,339.3138 717.3958,351.0117 709.375,359.668 C692.9688,377.3867 623.625,359.4596 601.0417,368.0013 C567.1875,380.8138 539.5297,404.1927 520.6547,422.6615" fill="none" id="admin-to-UC14" style="stroke:#2FA4E7;stroke-width:3.125;"/><polygon fill="#2FA4E7" points="516.1875,427.0326,525.8024,423.4541,519.9102,423.39,519.9743,417.4978,516.1875,427.0326" style="stroke:#2FA4E7;stroke-width:3.125;"/></g><!--link admin to UC15--><g class="link" data-entity-1="admin" data-entity-2="UC15" data-source-line="65" data-uid="lnk42" id="link_admin_UC15"><path d="M725.2188,313.4805 C735.8438,326.293 746.5729,342.1055 752.0833,358.6263 C760.0417,382.4909 748.1351,403.4974 733.7289,420.6432" fill="none" id="admin-to-UC15" style="stroke:#2FA4E7;stroke-width:3.125;"/><polygon fill="#2FA4E7" points="729.7083,425.4284,738.9293,420.9311,733.0588,421.4408,732.5491,415.5703,729.7083,425.4284" style="stroke:#2FA4E7;stroke-width:3.125;"/></g><!--link UC2 to UC10--><g class="link" data-entity-1="UC2" data-entity-2="UC10" data-source-line="68" data-uid="lnk43" id="link_UC2_UC10"><path d="M930.4896,467.6159 C929.5,494.4284 928.0032,534.9327 927.0137,561.5265" fill="none" id="UC2-to-UC10" style="stroke:#2FA4E7;stroke-width:3.125;stroke-dasharray:7.2917,7.2917;"/><polygon fill="#2FA4E7" points="926.7813,567.7721,931.2936,558.5586,926.9749,562.5674,922.9661,558.2487,926.7813,567.7721" style="stroke:#2FA4E7;stroke-width:3.125;"/><text fill="#343A40" font-family="'Verdana'" font-size="12.5" lengthAdjust="spacing" textLength="60.5835" x="934.375" y="527.5208">«include»</text></g><!--link UC3 to UC11--><g class="link" data-entity-1="UC3" data-entity-2="UC11" data-source-line="69" data-uid="lnk44" id="link_UC3_UC11"><path d="M1142.1667,464.9805 C1139.7396,492.3242 1135.668,538.0571 1133.293,564.7758" fill="none" id="UC3-to-UC11" style="stroke:#2FA4E7;stroke-width:3.125;stroke-dasharray:7.2917,7.2917;"/><polygon fill="#2FA4E7" points="1132.7396,571.0013,1137.7199,562.032,1133.2007,565.8134,1129.4193,561.2942,1132.7396,571.0013" style="stroke:#2FA4E7;stroke-width:3.125;"/><text fill="#343A40" font-family="'Verdana'" font-size="12.5" lengthAdjust="spacing" textLength="60.5835" x="1143.75" y="527.5208">«include»</text></g><!--link UC4 to UC12--><g class="link" data-entity-1="UC4" data-entity-2="UC12" data-source-line="70" data-uid="lnk45" id="link_UC4_UC12"><path d="M1347.8333,466.1367 C1346.2813,492.3763 1343.8487,533.3456 1342.2341,560.606" fill="none" id="UC4-to-UC12" style="stroke:#2FA4E7;stroke-width:3.125;stroke-dasharray:7.2917,7.2917;"/><polygon fill="#2FA4E7" points="1341.8646,566.8451,1346.5783,557.7328,1342.1725,561.6458,1338.2595,557.2401,1341.8646,566.8451" style="stroke:#2FA4E7;stroke-width:3.125;"/><text fill="#343A40" font-family="'Verdana'" font-size="12.5" lengthAdjust="spacing" textLength="60.5835" x="1351.0417" y="527.5208">«include»</text></g><!--link UC11 to gemini--><g class="link" data-entity-1="UC11" data-entity-2="gemini" data-source-line="74" data-uid="lnk47" id="link_UC11_gemini"><path d="M1133.2188,606.5742 C1135.8021,628.4388 1139.7259,661.7006 1143.6322,694.8048" fill="none" id="UC11-to-gemini" style="stroke:#2FA4E7;stroke-width:3.125;"/><polygon fill="#2FA4E7" points="1144.3646,701.0117,1147.4039,691.213,1143.7542,695.8393,1139.128,692.1896,1144.3646,701.0117" style="stroke:#2FA4E7;stroke-width:3.125;"/><text fill="#343A40" font-family="'Verdana'" font-size="12.5" lengthAdjust="spacing" textLength="117.5842" x="1145.8333" y="661.8958">Predictive Analysis</text></g><!--link UC12 to gemini--><g class="link" data-entity-1="UC12" data-entity-2="gemini" data-source-line="75" data-uid="lnk48" id="link_UC12_gemini"><path d="M1326.7188,610.7096 C1314.7396,627.7721 1296.3854,651.9701 1277.0833,670.0846 C1252.6146,693.0534 1226.9708,711.2604 1201.8771,727.2292" fill="none" id="UC12-to-gemini" style="stroke:#2FA4E7;stroke-width:3.125;"/><polygon fill="#2FA4E7" points="1196.6042,730.5846,1206.7505,729.0667,1200.9982,727.7884,1202.2765,722.0362,1196.6042,730.5846" style="stroke:#2FA4E7;stroke-width:3.125;"/><text fill="#343A40" font-family="'Verdana'" font-size="12.5" lengthAdjust="spacing" textLength="97.5586" x="1306.25" y="661.8958">NLP Generation</text></g><!--link UC5 to firebase--><g class="link" data-entity-1="UC5" data-entity-2="firebase" data-source-line="77" data-uid="lnk50" id="link_UC5_firebase"><path d="M1562.6563,466.9909 C1559.7396,525.7409 1548.875,703.8451 1518.75,848.2096 C1516.6354,858.3242 1515.6035,862.949 1512.6243,873.1678" fill="none" id="UC5-to-firebase" style="stroke:#2FA4E7;stroke-width:3.125;"/><polygon fill="#2FA4E7" points="1510.875,879.168,1517.4991,871.3339,1512.3327,874.1678,1509.4988,869.0015,1510.875,879.168" style="stroke:#2FA4E7;stroke-width:3.125;"/><text fill="#343A40" font-family="'Verdana'" font-size="12.5" lengthAdjust="spacing" textLength="55.3833" x="1554.1667" y="661.8958">Firestore</text></g><!--link UC8 to GMN52--><g class="link" data-entity-1="UC8" data-entity-2="GMN52" data-source-line="81" data-uid="lnk54" id="link_UC8_GMN52"><path d="M1837.9688,420.7617 C1867.2604,396.6055 1915.3125,361.8867 1964.0625,347.6888 C2023.2917,330.4388 2460.6875,328.3451 2519.2708,347.6888 C2558.5208,360.6471 2595.6354,390.1784 2620.5938,413.5326" fill="none" id="UC8-GMN52" style="stroke:#2FA4E7;stroke-width:3.125;stroke-dasharray:7.2917,7.2917;"/></g><!--SRC=[ZLNRRkCs47tNLqppqZQ5jsl7takG1d3Y96l0sHfnimLQz86cnl8W4YcGbBFUel_U8KNPKkmKzOD1SSxCdBdoExV60a6YgN8KggShbvF2n3wHAeKH1GZfj5cuROuWdj7geYqiXNmI6TPYWz89bUMO98uSNqnmyplcEVJWqI9S2_wRaCXOaH6w1ATXgPtJ1QJabKch9FaUVZdsWzdDxM-mc4vksDpSa99KYXp6dfqzhf84wd32D33N9PeJ41PIt3I2SLgG2fV2drxt_J2z-xHpljXQXyN_ydo7R9RW3CRpQV2JrHSN5pOOkRniaBUSW2KdAA1MyUC8xbulYJCxBik0BEhFYmkEYYGoBjbL8GGUyZ_FXLjfKvp0tmb0PL5wuoSFc15RD_0pp7GMC_5utMzZ5auO1rV4PNU69DnhHKo4L1RHWwv5YRH1k1MEieffvcYSZSYpDl9wBHmyarl3PwmC5_9N8sIE4JfiGxyGFeEFGw6rC15slTJ2f14wwbZLQiME3VeEsGYvXGKwnsGR3k_Qw9klfURWFg78cST4E15Hxzke6QadY6bVeB9SXHyYvoj3QOO_HgqFRQt7ajiyHT_YVw1YEZgYFhPHOoNoxJUVBqbiRoPKMWZprB3jlss3vmPJaboCoYWUKtWW-zG0EpMxGuL6EDmdRQeiPUjT9Vg3W_m69exaOOBxdRh5-ZT3KEUkGGwxlR2f3MkrBUWRfkqCzqV9FtxSRhMH21lk4fAS0Ejudt2vG2l8SUKIRcle_RccD4NrLwgVLMy_gl-XQtoqIHos5_hDS2MxANi1g6Tgxy4JgRUWzULaFzk67_m4KYl54nSa8ITTpe59xpACLM1-L7IszrOREUAlZiatnQ69Eb8lF9JjukKEFPJkWtrbyt61-OyN22zdkwRojOqNeew1xi-3rlciTHwspgFM-Lth_Bvr_j0wVqoQJ3R9wtmEkvyZ7zjKoRnAqN8E1l3cJH2yXNFUcrHBU74omKRKFn0D6z7WXOYDttpb7ShZqxI2JrIiqwuqh7LVvOuAdJBm2rd_r0LF7KmSSRz2mq1Q2fO6NTJdsHpYZ4SpGRxhvtCOLsxDzwENz_wLiTnOiHbszMUHBtIF2VAIsogP94hp0WbT0deLjzlfwLGflGbkJq_FOLAnJltoi7IvUoIaA9rVmXiIVDyyRS55y32vIb2bu5ty2m00]--></g></svg>